%TF.GenerationSoftware,KiCad,Pcbnew,7.0.2*%
%TF.CreationDate,2023-11-04T13:58:57-04:00*%
%TF.ProjectId,AntSniffer,416e7453-6e69-4666-9665-722e6b696361,rev?*%
%TF.SameCoordinates,Original*%
%TF.FileFunction,Copper,L1,Top*%
%TF.FilePolarity,Positive*%
%FSLAX46Y46*%
G04 Gerber Fmt 4.6, Leading zero omitted, Abs format (unit mm)*
G04 Created by KiCad (PCBNEW 7.0.2) date 2023-11-04 13:58:57*
%MOMM*%
%LPD*%
G01*
G04 APERTURE LIST*
G04 Aperture macros list*
%AMRoundRect*
0 Rectangle with rounded corners*
0 $1 Rounding radius*
0 $2 $3 $4 $5 $6 $7 $8 $9 X,Y pos of 4 corners*
0 Add a 4 corners polygon primitive as box body*
4,1,4,$2,$3,$4,$5,$6,$7,$8,$9,$2,$3,0*
0 Add four circle primitives for the rounded corners*
1,1,$1+$1,$2,$3*
1,1,$1+$1,$4,$5*
1,1,$1+$1,$6,$7*
1,1,$1+$1,$8,$9*
0 Add four rect primitives between the rounded corners*
20,1,$1+$1,$2,$3,$4,$5,0*
20,1,$1+$1,$4,$5,$6,$7,0*
20,1,$1+$1,$6,$7,$8,$9,0*
20,1,$1+$1,$8,$9,$2,$3,0*%
G04 Aperture macros list end*
%TA.AperFunction,ComponentPad*%
%ADD10R,1.700000X1.700000*%
%TD*%
%TA.AperFunction,ComponentPad*%
%ADD11O,1.700000X1.700000*%
%TD*%
%TA.AperFunction,SMDPad,CuDef*%
%ADD12R,2.800000X1.100000*%
%TD*%
%TA.AperFunction,SMDPad,CuDef*%
%ADD13R,1.900000X3.200000*%
%TD*%
%TA.AperFunction,SMDPad,CuDef*%
%ADD14RoundRect,0.218750X-0.218750X-0.256250X0.218750X-0.256250X0.218750X0.256250X-0.218750X0.256250X0*%
%TD*%
%TA.AperFunction,ViaPad*%
%ADD15C,0.800000*%
%TD*%
%TA.AperFunction,Conductor*%
%ADD16C,0.750000*%
%TD*%
%TA.AperFunction,Conductor*%
%ADD17C,0.250000*%
%TD*%
%TA.AperFunction,Conductor*%
%ADD18C,0.500000*%
%TD*%
G04 APERTURE END LIST*
D10*
%TO.P,J1,1,Pin_1*%
%TO.N,/A2*%
X168579800Y-45979000D03*
D11*
%TO.P,J1,2,Pin_2*%
%TO.N,/SCL*%
X168579800Y-48519000D03*
%TO.P,J1,3,Pin_3*%
%TO.N,/SDA*%
X168579800Y-51059000D03*
%TO.P,J1,4,Pin_4*%
%TO.N,/PLUG*%
X168579800Y-53599000D03*
%TO.P,J1,5,Pin_5*%
%TO.N,/A1*%
X168579800Y-56139000D03*
%TO.P,J1,6,Pin_6*%
%TO.N,/TX*%
X168579800Y-58679000D03*
%TO.P,J1,7,Pin_7*%
%TO.N,/RST*%
X168579800Y-61219000D03*
%TO.P,J1,8,Pin_8*%
%TO.N,/RX*%
X168579800Y-63759000D03*
%TO.P,J1,9,Pin_9*%
%TO.N,/A0*%
X168579800Y-66299000D03*
%TO.P,J1,10,Pin_10*%
%TO.N,/3V3*%
X168579800Y-68839000D03*
%TD*%
D12*
%TO.P,CN1,1,1*%
%TO.N,GND*%
X152704800Y-49771800D03*
%TO.P,CN1,2,2*%
X156814800Y-49771800D03*
%TO.P,CN1,3,3*%
%TO.N,/SCL*%
X152704800Y-51771800D03*
%TO.P,CN1,4,4*%
%TO.N,/SDA*%
X156814800Y-51771800D03*
%TO.P,CN1,5,5*%
%TO.N,/A2*%
X152704800Y-53771800D03*
%TO.P,CN1,6,6*%
%TO.N,/PLUG*%
X156814800Y-53771800D03*
%TO.P,CN1,7,7*%
%TO.N,/A0*%
X152704800Y-55771800D03*
%TO.P,CN1,8,8*%
%TO.N,/A1*%
X156814800Y-55771800D03*
%TO.P,CN1,9,9*%
%TO.N,GND*%
X152704800Y-57771800D03*
%TO.P,CN1,10,10*%
X156814800Y-57771800D03*
%TO.P,CN1,11,11*%
%TO.N,/RX*%
X152704800Y-59771800D03*
%TO.P,CN1,12,12*%
%TO.N,/TX*%
X156814800Y-59771800D03*
%TO.P,CN1,13,13*%
%TO.N,GND*%
X152704800Y-61771800D03*
%TO.P,CN1,14,14*%
X156814800Y-61771800D03*
%TO.P,CN1,15,15*%
%TO.N,/3V3*%
X152704800Y-63771800D03*
%TO.P,CN1,16,16*%
%TO.N,/RST*%
X156814800Y-63771800D03*
%TO.P,CN1,17,17*%
%TO.N,unconnected-(CN1-Pad17)*%
X152704800Y-65771800D03*
%TO.P,CN1,18,18*%
%TO.N,unconnected-(CN1-Pad18)*%
X156814800Y-65771800D03*
D13*
%TO.P,CN1,19,19*%
%TO.N,GND*%
X146954800Y-69551800D03*
%TO.P,CN1,20,20*%
X146954800Y-45991800D03*
%TD*%
D12*
%TO.P,CN2,1,1*%
%TO.N,unconnected-(CN2-Pad1)*%
X184349900Y-65759600D03*
%TO.P,CN2,2,2*%
%TO.N,unconnected-(CN2-Pad2)*%
X180239900Y-65759600D03*
%TO.P,CN2,3,3*%
%TO.N,/3V3*%
X184349900Y-63759600D03*
%TO.P,CN2,4,4*%
%TO.N,/RST*%
X180239900Y-63759600D03*
%TO.P,CN2,5,5*%
%TO.N,GND*%
X184349900Y-61759600D03*
%TO.P,CN2,6,6*%
X180239900Y-61759600D03*
%TO.P,CN2,7,7*%
%TO.N,/RX*%
X184349900Y-59759600D03*
%TO.P,CN2,8,8*%
%TO.N,/TX*%
X180239900Y-59759600D03*
%TO.P,CN2,9,9*%
%TO.N,GND*%
X184349900Y-57759600D03*
%TO.P,CN2,10,10*%
X180239900Y-57759600D03*
%TO.P,CN2,11,11*%
%TO.N,/A0*%
X184349900Y-55759600D03*
%TO.P,CN2,12,12*%
%TO.N,/A1*%
X180239900Y-55759600D03*
%TO.P,CN2,13,13*%
%TO.N,/A2*%
X184349900Y-53759600D03*
%TO.P,CN2,14,14*%
%TO.N,/PLUG*%
X180239900Y-53759600D03*
%TO.P,CN2,15,15*%
%TO.N,/SCL*%
X184349900Y-51759600D03*
%TO.P,CN2,16,16*%
%TO.N,/SDA*%
X180239900Y-51759600D03*
%TO.P,CN2,17,17*%
%TO.N,GND*%
X184349900Y-49759600D03*
%TO.P,CN2,18,18*%
X180239900Y-49759600D03*
D13*
%TO.P,CN2,19,19*%
X190099900Y-45979600D03*
%TO.P,CN2,20,20*%
X190099900Y-69539600D03*
%TD*%
D14*
%TO.P,D1,1,K*%
%TO.N,GND*%
X164160100Y-70561200D03*
%TO.P,D1,2,A*%
%TO.N,/3V3*%
X165735100Y-70561200D03*
%TD*%
D15*
%TO.N,GND*%
X172212000Y-71069200D03*
%TO.N,/3V3*%
X185318400Y-63754000D03*
X151765000Y-63804800D03*
%TO.N,GND*%
X146837400Y-69443600D03*
X162814000Y-70840600D03*
X182295800Y-61759600D03*
X154736800Y-61771800D03*
X190093600Y-45974000D03*
X154762200Y-57771800D03*
X147015200Y-46126400D03*
X182295800Y-57759600D03*
X182295800Y-49759600D03*
X190119000Y-69519800D03*
X154762200Y-49771800D03*
%TD*%
D16*
%TO.N,/RST*%
X174402000Y-63759600D02*
X171861400Y-61219000D01*
X156814800Y-63771800D02*
X163380400Y-63771800D01*
X165933200Y-61219000D02*
X168579800Y-61219000D01*
X163380400Y-63771800D02*
X165933200Y-61219000D01*
D17*
X156827000Y-63759600D02*
X156814800Y-63771800D01*
D16*
X171861400Y-61219000D02*
X168579800Y-61219000D01*
X180239900Y-63759600D02*
X174402000Y-63759600D01*
%TO.N,/3V3*%
X151798000Y-63771800D02*
X151765000Y-63804800D01*
D18*
X166857600Y-70561200D02*
X168579800Y-68839000D01*
D16*
X184349900Y-63759600D02*
X185312800Y-63759600D01*
X152704800Y-63771800D02*
X151798000Y-63771800D01*
X185312800Y-63759600D02*
X185318400Y-63754000D01*
D18*
X165735100Y-70561200D02*
X166857600Y-70561200D01*
D16*
%TO.N,GND*%
X152704800Y-49771800D02*
X154762200Y-49771800D01*
X152704800Y-57771800D02*
X154762200Y-57771800D01*
X190099900Y-69539600D02*
X190099900Y-69538900D01*
X152704800Y-61771800D02*
X154736800Y-61771800D01*
X154762200Y-49771800D02*
X156814800Y-49771800D01*
X180239900Y-49759600D02*
X182295800Y-49759600D01*
X146954800Y-69551800D02*
X146945600Y-69551800D01*
X190099900Y-69538900D02*
X190119000Y-69519800D01*
D18*
X163093400Y-70561200D02*
X162814000Y-70840600D01*
D16*
X190099900Y-45979600D02*
X190099200Y-45979600D01*
X154762200Y-57771800D02*
X156814800Y-57771800D01*
D18*
X164160100Y-70561200D02*
X163093400Y-70561200D01*
D16*
X146954800Y-45991800D02*
X146954800Y-46066000D01*
X184349900Y-49759600D02*
X182295800Y-49759600D01*
X180239900Y-61759600D02*
X182295800Y-61759600D01*
X190099200Y-45979600D02*
X190093600Y-45974000D01*
X184349900Y-61759600D02*
X182295800Y-61759600D01*
X180239900Y-57759600D02*
X182295800Y-57759600D01*
X146945600Y-69551800D02*
X146837400Y-69443600D01*
X184349900Y-57759600D02*
X182295800Y-57759600D01*
X146954800Y-46066000D02*
X147015200Y-46126400D01*
X154736800Y-61771800D02*
X156814800Y-61771800D01*
%TO.N,/SCL*%
X150215600Y-51054000D02*
X150215600Y-48615600D01*
X187121800Y-48971200D02*
X186029600Y-47879000D01*
X152704800Y-51771800D02*
X150933400Y-51771800D01*
X150933400Y-51771800D02*
X150215600Y-51054000D01*
X187121800Y-51155600D02*
X187121800Y-48971200D01*
X173964600Y-47879000D02*
X173324600Y-48519000D01*
X159181800Y-47980600D02*
X159720200Y-48519000D01*
X150215600Y-48615600D02*
X150850600Y-47980600D01*
X184349900Y-51759600D02*
X186517800Y-51759600D01*
X186517800Y-51759600D02*
X187121800Y-51155600D01*
X150850600Y-47980600D02*
X159181800Y-47980600D01*
X159720200Y-48519000D02*
X168579800Y-48519000D01*
X173324600Y-48519000D02*
X168579800Y-48519000D01*
X186029600Y-47879000D02*
X173964600Y-47879000D01*
D17*
%TO.N,/SDA*%
X180227700Y-51771800D02*
X180239900Y-51759600D01*
D16*
X180239900Y-51759600D02*
X169280400Y-51759600D01*
X156814800Y-51771800D02*
X167867000Y-51771800D01*
X169280400Y-51759600D02*
X168579800Y-51059000D01*
X167867000Y-51771800D02*
X168579800Y-51059000D01*
%TO.N,/A2*%
X149021800Y-47904400D02*
X150947200Y-45979000D01*
X151104600Y-53771800D02*
X149021800Y-51689000D01*
X188188600Y-48539400D02*
X188188600Y-46812200D01*
X188976000Y-49377600D02*
X189001400Y-49352200D01*
X149021800Y-51689000D02*
X149021800Y-47904400D01*
X188976000Y-52527200D02*
X188976000Y-49377600D01*
X187743600Y-53759600D02*
X188976000Y-52527200D01*
X189001400Y-49352200D02*
X188188600Y-48539400D01*
X184349900Y-53759600D02*
X187743600Y-53759600D01*
X150947200Y-45979000D02*
X168579800Y-45979000D01*
X168579800Y-45979000D02*
X187355400Y-45979000D01*
X152704800Y-53771800D02*
X151104600Y-53771800D01*
X187355400Y-45979000D02*
X188188600Y-46812200D01*
%TO.N,/PLUG*%
X180239900Y-53759600D02*
X168740400Y-53759600D01*
X156814800Y-53771800D02*
X168407000Y-53771800D01*
D17*
X168407000Y-53771800D02*
X168579800Y-53599000D01*
X156827000Y-53759600D02*
X156814800Y-53771800D01*
X168740400Y-53759600D02*
X168579800Y-53599000D01*
D16*
%TO.N,/A0*%
X148818600Y-57708800D02*
X148818600Y-67310000D01*
X148818600Y-67310000D02*
X150495000Y-68986400D01*
X150495000Y-68986400D02*
X163093400Y-68986400D01*
X171734400Y-66299000D02*
X168579800Y-66299000D01*
X188391800Y-67030600D02*
X186944000Y-68478400D01*
X186493400Y-55759600D02*
X188391800Y-57658000D01*
X188391800Y-57658000D02*
X188391800Y-67030600D01*
X150755600Y-55771800D02*
X148818600Y-57708800D01*
X184349900Y-55759600D02*
X186493400Y-55759600D01*
X163093400Y-68986400D02*
X165780800Y-66299000D01*
X152704800Y-55771800D02*
X150755600Y-55771800D01*
X173913800Y-68478400D02*
X171734400Y-66299000D01*
X165780800Y-66299000D02*
X168579800Y-66299000D01*
X186944000Y-68478400D02*
X173913800Y-68478400D01*
%TO.N,/A1*%
X168579800Y-56139000D02*
X174112000Y-56139000D01*
X162057000Y-56139000D02*
X161689800Y-55771800D01*
X174112000Y-56139000D02*
X174491400Y-55759600D01*
D17*
X180227700Y-55771800D02*
X180239900Y-55759600D01*
D16*
X161689800Y-55771800D02*
X156814800Y-55771800D01*
X168579800Y-56139000D02*
X162057000Y-56139000D01*
X174491400Y-55759600D02*
X180239900Y-55759600D01*
%TO.N,/RX*%
X184349900Y-59759600D02*
X186277000Y-59759600D01*
X150876000Y-67487800D02*
X161874200Y-67487800D01*
X186232800Y-67360800D02*
X175514000Y-67360800D01*
X186918600Y-60401200D02*
X186918600Y-66675000D01*
X186918600Y-66675000D02*
X186232800Y-67360800D01*
X152704800Y-59771800D02*
X150667200Y-59771800D01*
X161874200Y-67487800D02*
X165603000Y-63759000D01*
X186277000Y-59759600D02*
X186918600Y-60401200D01*
X150241000Y-66852800D02*
X150876000Y-67487800D01*
X175514000Y-67360800D02*
X171912200Y-63759000D01*
X171912200Y-63759000D02*
X168579800Y-63759000D01*
X150667200Y-59771800D02*
X150241000Y-60198000D01*
X150241000Y-60198000D02*
X150241000Y-66852800D01*
X165603000Y-63759000D02*
X168579800Y-63759000D01*
%TO.N,/TX*%
X180239900Y-59759600D02*
X174999400Y-59759600D01*
D17*
X180227700Y-59771800D02*
X180239900Y-59759600D01*
D16*
X156814800Y-59771800D02*
X163672000Y-59771800D01*
X163672000Y-59771800D02*
X164764800Y-58679000D01*
X164764800Y-58679000D02*
X168579800Y-58679000D01*
X174999400Y-59759600D02*
X173918800Y-58679000D01*
X173918800Y-58679000D02*
X168579800Y-58679000D01*
%TD*%
%TA.AperFunction,Conductor*%
%TO.N,GND*%
G36*
X173501239Y-69945885D02*
G01*
X173546994Y-69998689D01*
X173558200Y-70050200D01*
X173558200Y-71986600D01*
X173538515Y-72053639D01*
X173485711Y-72099394D01*
X173434200Y-72110600D01*
X171091400Y-72110600D01*
X171024361Y-72090915D01*
X170978606Y-72038111D01*
X170967400Y-71986600D01*
X170967400Y-70050200D01*
X170987085Y-69983161D01*
X171039889Y-69937406D01*
X171091400Y-69926200D01*
X173434200Y-69926200D01*
X173501239Y-69945885D01*
G37*
%TD.AperFunction*%
%TD*%
M02*
