%TF.GenerationSoftware,KiCad,Pcbnew,7.0.2*%
%TF.CreationDate,2023-11-04T13:58:57-04:00*%
%TF.ProjectId,AntSniffer,416e7453-6e69-4666-9665-722e6b696361,rev?*%
%TF.SameCoordinates,Original*%
%TF.FileFunction,Paste,Top*%
%TF.FilePolarity,Positive*%
%FSLAX46Y46*%
G04 Gerber Fmt 4.6, Leading zero omitted, Abs format (unit mm)*
G04 Created by KiCad (PCBNEW 7.0.2) date 2023-11-04 13:58:57*
%MOMM*%
%LPD*%
G01*
G04 APERTURE LIST*
G04 Aperture macros list*
%AMRoundRect*
0 Rectangle with rounded corners*
0 $1 Rounding radius*
0 $2 $3 $4 $5 $6 $7 $8 $9 X,Y pos of 4 corners*
0 Add a 4 corners polygon primitive as box body*
4,1,4,$2,$3,$4,$5,$6,$7,$8,$9,$2,$3,0*
0 Add four circle primitives for the rounded corners*
1,1,$1+$1,$2,$3*
1,1,$1+$1,$4,$5*
1,1,$1+$1,$6,$7*
1,1,$1+$1,$8,$9*
0 Add four rect primitives between the rounded corners*
20,1,$1+$1,$2,$3,$4,$5,0*
20,1,$1+$1,$4,$5,$6,$7,0*
20,1,$1+$1,$6,$7,$8,$9,0*
20,1,$1+$1,$8,$9,$2,$3,0*%
G04 Aperture macros list end*
%ADD10R,2.800000X1.100000*%
%ADD11R,1.900000X3.200000*%
%ADD12RoundRect,0.218750X-0.218750X-0.256250X0.218750X-0.256250X0.218750X0.256250X-0.218750X0.256250X0*%
G04 APERTURE END LIST*
D10*
%TO.C,CN1*%
X152704800Y-49771800D03*
X156814800Y-49771800D03*
X152704800Y-51771800D03*
X156814800Y-51771800D03*
X152704800Y-53771800D03*
X156814800Y-53771800D03*
X152704800Y-55771800D03*
X156814800Y-55771800D03*
X152704800Y-57771800D03*
X156814800Y-57771800D03*
X152704800Y-59771800D03*
X156814800Y-59771800D03*
X152704800Y-61771800D03*
X156814800Y-61771800D03*
X152704800Y-63771800D03*
X156814800Y-63771800D03*
X152704800Y-65771800D03*
X156814800Y-65771800D03*
D11*
X146954800Y-69551800D03*
X146954800Y-45991800D03*
%TD*%
D10*
%TO.C,CN2*%
X184349900Y-65759600D03*
X180239900Y-65759600D03*
X184349900Y-63759600D03*
X180239900Y-63759600D03*
X184349900Y-61759600D03*
X180239900Y-61759600D03*
X184349900Y-59759600D03*
X180239900Y-59759600D03*
X184349900Y-57759600D03*
X180239900Y-57759600D03*
X184349900Y-55759600D03*
X180239900Y-55759600D03*
X184349900Y-53759600D03*
X180239900Y-53759600D03*
X184349900Y-51759600D03*
X180239900Y-51759600D03*
X184349900Y-49759600D03*
X180239900Y-49759600D03*
D11*
X190099900Y-45979600D03*
X190099900Y-69539600D03*
%TD*%
D12*
%TO.C,D1*%
X164160100Y-70561200D03*
X165735100Y-70561200D03*
%TD*%
M02*
