%TF.GenerationSoftware,KiCad,Pcbnew,7.0.2*%
%TF.CreationDate,2023-11-04T13:58:57-04:00*%
%TF.ProjectId,AntSniffer,416e7453-6e69-4666-9665-722e6b696361,rev?*%
%TF.SameCoordinates,Original*%
%TF.FileFunction,Copper,L2,Inr*%
%TF.FilePolarity,Positive*%
%FSLAX46Y46*%
G04 Gerber Fmt 4.6, Leading zero omitted, Abs format (unit mm)*
G04 Created by KiCad (PCBNEW 7.0.2) date 2023-11-04 13:58:57*
%MOMM*%
%LPD*%
G01*
G04 APERTURE LIST*
%TA.AperFunction,ComponentPad*%
%ADD10R,1.700000X1.700000*%
%TD*%
%TA.AperFunction,ComponentPad*%
%ADD11O,1.700000X1.700000*%
%TD*%
%TA.AperFunction,ViaPad*%
%ADD12C,0.800000*%
%TD*%
G04 APERTURE END LIST*
D10*
%TO.N,/A2*%
%TO.C,J1*%
X168579800Y-45979000D03*
D11*
%TO.N,/SCL*%
X168579800Y-48519000D03*
%TO.N,/SDA*%
X168579800Y-51059000D03*
%TO.N,/PLUG*%
X168579800Y-53599000D03*
%TO.N,/A1*%
X168579800Y-56139000D03*
%TO.N,/TX*%
X168579800Y-58679000D03*
%TO.N,/RST*%
X168579800Y-61219000D03*
%TO.N,/RX*%
X168579800Y-63759000D03*
%TO.N,/A0*%
X168579800Y-66299000D03*
%TO.N,/3V3*%
X168579800Y-68839000D03*
%TD*%
D12*
%TO.N,GND*%
X172212000Y-71069200D03*
%TO.N,/3V3*%
X185318400Y-63754000D03*
X151765000Y-63804800D03*
%TO.N,GND*%
X146837400Y-69443600D03*
X162814000Y-70840600D03*
X182295800Y-61759600D03*
X154736800Y-61771800D03*
X190093600Y-45974000D03*
X154762200Y-57771800D03*
X147015200Y-46126400D03*
X182295800Y-57759600D03*
X182295800Y-49759600D03*
X190119000Y-69519800D03*
X154762200Y-49771800D03*
%TD*%
%TA.AperFunction,Conductor*%
%TO.N,GND*%
G36*
X193490539Y-42565185D02*
G01*
X193536294Y-42617989D01*
X193547500Y-42669500D01*
X193547500Y-72494100D01*
X193527815Y-72561139D01*
X193475011Y-72606894D01*
X193423500Y-72618100D01*
X143609100Y-72618100D01*
X143542061Y-72598415D01*
X143496306Y-72545611D01*
X143485100Y-72494100D01*
X143485100Y-68839000D01*
X167224140Y-68839000D01*
X167244736Y-69074407D01*
X167289509Y-69241502D01*
X167305897Y-69302663D01*
X167405765Y-69516830D01*
X167541305Y-69710401D01*
X167708399Y-69877495D01*
X167901970Y-70013035D01*
X168116137Y-70112903D01*
X168344392Y-70174063D01*
X168579800Y-70194659D01*
X168815208Y-70174063D01*
X169043463Y-70112903D01*
X169257630Y-70013035D01*
X169451201Y-69877495D01*
X169618295Y-69710401D01*
X169753835Y-69516830D01*
X169853703Y-69302663D01*
X169914863Y-69074408D01*
X169935459Y-68839000D01*
X169914863Y-68603592D01*
X169853703Y-68375337D01*
X169753835Y-68161171D01*
X169618295Y-67967599D01*
X169451201Y-67800505D01*
X169265639Y-67670573D01*
X169222016Y-67615998D01*
X169214822Y-67546500D01*
X169246345Y-67484145D01*
X169265637Y-67467428D01*
X169451201Y-67337495D01*
X169618295Y-67170401D01*
X169753835Y-66976830D01*
X169853703Y-66762663D01*
X169914863Y-66534408D01*
X169935459Y-66299000D01*
X169914863Y-66063592D01*
X169853703Y-65835337D01*
X169753835Y-65621171D01*
X169618295Y-65427599D01*
X169451201Y-65260505D01*
X169265639Y-65130573D01*
X169222015Y-65075997D01*
X169214823Y-65006498D01*
X169246345Y-64944144D01*
X169265631Y-64927432D01*
X169451201Y-64797495D01*
X169618295Y-64630401D01*
X169753835Y-64436830D01*
X169853703Y-64222663D01*
X169914863Y-63994408D01*
X169935459Y-63759000D01*
X169935022Y-63754000D01*
X184412940Y-63754000D01*
X184432726Y-63942257D01*
X184491220Y-64122284D01*
X184585866Y-64286216D01*
X184712529Y-64426889D01*
X184865669Y-64538151D01*
X185038597Y-64615144D01*
X185223752Y-64654500D01*
X185223754Y-64654500D01*
X185413048Y-64654500D01*
X185536484Y-64628262D01*
X185598203Y-64615144D01*
X185771130Y-64538151D01*
X185924271Y-64426888D01*
X186050933Y-64286216D01*
X186145579Y-64122284D01*
X186204074Y-63942256D01*
X186223860Y-63754000D01*
X186204074Y-63565744D01*
X186145579Y-63385716D01*
X186145579Y-63385715D01*
X186050933Y-63221783D01*
X185924270Y-63081110D01*
X185771130Y-62969848D01*
X185598202Y-62892855D01*
X185413048Y-62853500D01*
X185413046Y-62853500D01*
X185223754Y-62853500D01*
X185223752Y-62853500D01*
X185038597Y-62892855D01*
X184865669Y-62969848D01*
X184712529Y-63081110D01*
X184585866Y-63221783D01*
X184491220Y-63385715D01*
X184432726Y-63565742D01*
X184412940Y-63754000D01*
X169935022Y-63754000D01*
X169914863Y-63523592D01*
X169853703Y-63295337D01*
X169753835Y-63081171D01*
X169618295Y-62887599D01*
X169451201Y-62720505D01*
X169265639Y-62590573D01*
X169222017Y-62535998D01*
X169214824Y-62466499D01*
X169246346Y-62404145D01*
X169265637Y-62387428D01*
X169451201Y-62257495D01*
X169618295Y-62090401D01*
X169753835Y-61896830D01*
X169853703Y-61682663D01*
X169914863Y-61454408D01*
X169935459Y-61219000D01*
X169914863Y-60983592D01*
X169853703Y-60755337D01*
X169753835Y-60541171D01*
X169618295Y-60347599D01*
X169451201Y-60180505D01*
X169265639Y-60050573D01*
X169222015Y-59995997D01*
X169214823Y-59926498D01*
X169246345Y-59864144D01*
X169265631Y-59847432D01*
X169451201Y-59717495D01*
X169618295Y-59550401D01*
X169753835Y-59356830D01*
X169853703Y-59142663D01*
X169914863Y-58914408D01*
X169935459Y-58679000D01*
X169914863Y-58443592D01*
X169853703Y-58215337D01*
X169753835Y-58001171D01*
X169618295Y-57807599D01*
X169451201Y-57640505D01*
X169265639Y-57510573D01*
X169222016Y-57455998D01*
X169214822Y-57386500D01*
X169246345Y-57324145D01*
X169265637Y-57307428D01*
X169451201Y-57177495D01*
X169618295Y-57010401D01*
X169753835Y-56816830D01*
X169853703Y-56602663D01*
X169914863Y-56374408D01*
X169935459Y-56139000D01*
X169914863Y-55903592D01*
X169853703Y-55675337D01*
X169753835Y-55461171D01*
X169618295Y-55267599D01*
X169451201Y-55100505D01*
X169265639Y-54970573D01*
X169222015Y-54915997D01*
X169214823Y-54846498D01*
X169246345Y-54784144D01*
X169265631Y-54767432D01*
X169451201Y-54637495D01*
X169618295Y-54470401D01*
X169753835Y-54276830D01*
X169853703Y-54062663D01*
X169914863Y-53834408D01*
X169935459Y-53599000D01*
X169914863Y-53363592D01*
X169853703Y-53135337D01*
X169753835Y-52921171D01*
X169618295Y-52727599D01*
X169451201Y-52560505D01*
X169265639Y-52430573D01*
X169222016Y-52375998D01*
X169214822Y-52306500D01*
X169246345Y-52244145D01*
X169265637Y-52227428D01*
X169451201Y-52097495D01*
X169618295Y-51930401D01*
X169753835Y-51736830D01*
X169853703Y-51522663D01*
X169914863Y-51294408D01*
X169935459Y-51059000D01*
X169914863Y-50823592D01*
X169853703Y-50595337D01*
X169753835Y-50381171D01*
X169618295Y-50187599D01*
X169451201Y-50020505D01*
X169265639Y-49890573D01*
X169222015Y-49835997D01*
X169214823Y-49766498D01*
X169246345Y-49704144D01*
X169265631Y-49687432D01*
X169451201Y-49557495D01*
X169618295Y-49390401D01*
X169753835Y-49196830D01*
X169853703Y-48982663D01*
X169914863Y-48754408D01*
X169935459Y-48519000D01*
X169914863Y-48283592D01*
X169853703Y-48055337D01*
X169753835Y-47841171D01*
X169618295Y-47647599D01*
X169496369Y-47525672D01*
X169462884Y-47464350D01*
X169467868Y-47394658D01*
X169509740Y-47338725D01*
X169540715Y-47321810D01*
X169672131Y-47272796D01*
X169787346Y-47186546D01*
X169873596Y-47071331D01*
X169923891Y-46936483D01*
X169930300Y-46876873D01*
X169930299Y-45081128D01*
X169923891Y-45021517D01*
X169873596Y-44886669D01*
X169787346Y-44771454D01*
X169672131Y-44685204D01*
X169537283Y-44634909D01*
X169477673Y-44628500D01*
X169474350Y-44628500D01*
X167685239Y-44628500D01*
X167685220Y-44628500D01*
X167681928Y-44628501D01*
X167678648Y-44628853D01*
X167678640Y-44628854D01*
X167622315Y-44634909D01*
X167487469Y-44685204D01*
X167372254Y-44771454D01*
X167286004Y-44886668D01*
X167235710Y-45021515D01*
X167235709Y-45021517D01*
X167229300Y-45081127D01*
X167229300Y-45084448D01*
X167229300Y-45084449D01*
X167229300Y-46873560D01*
X167229300Y-46873578D01*
X167229301Y-46876872D01*
X167235709Y-46936483D01*
X167286004Y-47071331D01*
X167372254Y-47186546D01*
X167487469Y-47272796D01*
X167599707Y-47314658D01*
X167618882Y-47321810D01*
X167674816Y-47363681D01*
X167699233Y-47429146D01*
X167684381Y-47497419D01*
X167663231Y-47525673D01*
X167541303Y-47647601D01*
X167405765Y-47841170D01*
X167305897Y-48055336D01*
X167244736Y-48283592D01*
X167224140Y-48518999D01*
X167244736Y-48754407D01*
X167289509Y-48921502D01*
X167305897Y-48982663D01*
X167405765Y-49196830D01*
X167541305Y-49390401D01*
X167708399Y-49557495D01*
X167893960Y-49687426D01*
X167937583Y-49742002D01*
X167944776Y-49811501D01*
X167913254Y-49873855D01*
X167893959Y-49890575D01*
X167708395Y-50020508D01*
X167541305Y-50187598D01*
X167405765Y-50381170D01*
X167305897Y-50595336D01*
X167244736Y-50823592D01*
X167224140Y-51059000D01*
X167244736Y-51294407D01*
X167289509Y-51461501D01*
X167305897Y-51522663D01*
X167405765Y-51736830D01*
X167541305Y-51930401D01*
X167708399Y-52097495D01*
X167893960Y-52227426D01*
X167937583Y-52282002D01*
X167944776Y-52351501D01*
X167913254Y-52413855D01*
X167893959Y-52430575D01*
X167708395Y-52560508D01*
X167541305Y-52727598D01*
X167405765Y-52921170D01*
X167305897Y-53135336D01*
X167244736Y-53363592D01*
X167224140Y-53599000D01*
X167244736Y-53834407D01*
X167289509Y-54001501D01*
X167305897Y-54062663D01*
X167405765Y-54276830D01*
X167541305Y-54470401D01*
X167708399Y-54637495D01*
X167893960Y-54767426D01*
X167937583Y-54822002D01*
X167944776Y-54891501D01*
X167913254Y-54953855D01*
X167893959Y-54970575D01*
X167708395Y-55100508D01*
X167541305Y-55267598D01*
X167405765Y-55461170D01*
X167305897Y-55675336D01*
X167244736Y-55903592D01*
X167224140Y-56139000D01*
X167244736Y-56374407D01*
X167289509Y-56541502D01*
X167305897Y-56602663D01*
X167405765Y-56816830D01*
X167541305Y-57010401D01*
X167708399Y-57177495D01*
X167893960Y-57307426D01*
X167937583Y-57362002D01*
X167944776Y-57431501D01*
X167913254Y-57493855D01*
X167893959Y-57510575D01*
X167708395Y-57640508D01*
X167541305Y-57807598D01*
X167405765Y-58001170D01*
X167305897Y-58215336D01*
X167244736Y-58443592D01*
X167224140Y-58678999D01*
X167244736Y-58914407D01*
X167289509Y-59081502D01*
X167305897Y-59142663D01*
X167405765Y-59356830D01*
X167541305Y-59550401D01*
X167708399Y-59717495D01*
X167893960Y-59847426D01*
X167937583Y-59902002D01*
X167944776Y-59971501D01*
X167913254Y-60033855D01*
X167893959Y-60050575D01*
X167708395Y-60180508D01*
X167541305Y-60347598D01*
X167405765Y-60541170D01*
X167305897Y-60755336D01*
X167244736Y-60983592D01*
X167224140Y-61218999D01*
X167244736Y-61454407D01*
X167289509Y-61621502D01*
X167305897Y-61682663D01*
X167405765Y-61896830D01*
X167541305Y-62090401D01*
X167708399Y-62257495D01*
X167893960Y-62387426D01*
X167937583Y-62442002D01*
X167944776Y-62511501D01*
X167913254Y-62573855D01*
X167893959Y-62590575D01*
X167708395Y-62720508D01*
X167541305Y-62887598D01*
X167405765Y-63081170D01*
X167305897Y-63295336D01*
X167244736Y-63523592D01*
X167224140Y-63759000D01*
X167244736Y-63994407D01*
X167279001Y-64122284D01*
X167305897Y-64222663D01*
X167405765Y-64436830D01*
X167541305Y-64630401D01*
X167708399Y-64797495D01*
X167893960Y-64927426D01*
X167937583Y-64982002D01*
X167944776Y-65051501D01*
X167913254Y-65113855D01*
X167893959Y-65130575D01*
X167708395Y-65260508D01*
X167541305Y-65427598D01*
X167405765Y-65621170D01*
X167305897Y-65835336D01*
X167244736Y-66063592D01*
X167224140Y-66299000D01*
X167244736Y-66534407D01*
X167289509Y-66701501D01*
X167305897Y-66762663D01*
X167405765Y-66976830D01*
X167541305Y-67170401D01*
X167708399Y-67337495D01*
X167893960Y-67467426D01*
X167937583Y-67522002D01*
X167944776Y-67591501D01*
X167913254Y-67653855D01*
X167893959Y-67670575D01*
X167708395Y-67800508D01*
X167541305Y-67967598D01*
X167405765Y-68161170D01*
X167305897Y-68375336D01*
X167244736Y-68603592D01*
X167224140Y-68839000D01*
X143485100Y-68839000D01*
X143485100Y-63804800D01*
X150859540Y-63804800D01*
X150879326Y-63993057D01*
X150937820Y-64173084D01*
X151032466Y-64337016D01*
X151159129Y-64477689D01*
X151312269Y-64588951D01*
X151485197Y-64665944D01*
X151670352Y-64705300D01*
X151670354Y-64705300D01*
X151859648Y-64705300D01*
X151983084Y-64679062D01*
X152044803Y-64665944D01*
X152217730Y-64588951D01*
X152217729Y-64588951D01*
X152370870Y-64477689D01*
X152407663Y-64436827D01*
X152497533Y-64337016D01*
X152592179Y-64173084D01*
X152650674Y-63993056D01*
X152670460Y-63804800D01*
X152650674Y-63616544D01*
X152592179Y-63436516D01*
X152592179Y-63436515D01*
X152497533Y-63272583D01*
X152370870Y-63131910D01*
X152217730Y-63020648D01*
X152044802Y-62943655D01*
X151859648Y-62904300D01*
X151859646Y-62904300D01*
X151670354Y-62904300D01*
X151670352Y-62904300D01*
X151485197Y-62943655D01*
X151312269Y-63020648D01*
X151159129Y-63131910D01*
X151032466Y-63272583D01*
X150937820Y-63436515D01*
X150879326Y-63616542D01*
X150859540Y-63804800D01*
X143485100Y-63804800D01*
X143485100Y-42669500D01*
X143504785Y-42602461D01*
X143557589Y-42556706D01*
X143609100Y-42545500D01*
X193423500Y-42545500D01*
X193490539Y-42565185D01*
G37*
%TD.AperFunction*%
%TD*%
M02*
