%TF.GenerationSoftware,KiCad,Pcbnew,8.0.0*%
%TF.CreationDate,2024-03-20T17:10:03-04:00*%
%TF.ProjectId,AntEater,416e7445-6174-4657-922e-6b696361645f,rev?*%
%TF.SameCoordinates,Original*%
%TF.FileFunction,Copper,L2,Inr*%
%TF.FilePolarity,Positive*%
%FSLAX46Y46*%
G04 Gerber Fmt 4.6, Leading zero omitted, Abs format (unit mm)*
G04 Created by KiCad (PCBNEW 8.0.0) date 2024-03-20 17:10:03*
%MOMM*%
%LPD*%
G01*
G04 APERTURE LIST*
%TA.AperFunction,ComponentPad*%
%ADD10O,1.000000X1.800000*%
%TD*%
%TA.AperFunction,ComponentPad*%
%ADD11O,1.000000X2.100000*%
%TD*%
%TA.AperFunction,ComponentPad*%
%ADD12O,1.700000X1.700000*%
%TD*%
%TA.AperFunction,ComponentPad*%
%ADD13R,1.700000X1.700000*%
%TD*%
%TA.AperFunction,ViaPad*%
%ADD14C,0.800000*%
%TD*%
%TA.AperFunction,ViaPad*%
%ADD15C,1.200000*%
%TD*%
G04 APERTURE END LIST*
D10*
%TO.N,/GND*%
%TO.C,J2*%
X144310000Y-118370000D03*
D11*
X144310000Y-114190000D03*
D10*
X135670000Y-118370000D03*
D11*
X135670000Y-114190000D03*
%TD*%
D12*
%TO.N,/GND*%
%TO.C,J3*%
X141410000Y-88570000D03*
X138870000Y-88570000D03*
%TO.N,/A0*%
X141410000Y-86030000D03*
%TO.N,/RX*%
X138870000Y-86030000D03*
%TO.N,VCCIO*%
X141410000Y-83490000D03*
%TO.N,/RST*%
X138870000Y-83490000D03*
%TO.N,/TX*%
X141410000Y-80950000D03*
%TO.N,/A1*%
X138870000Y-80950000D03*
%TO.N,/PLUG*%
X141410000Y-78410000D03*
%TO.N,/SDA*%
X138870000Y-78410000D03*
%TO.N,/SCL*%
X141410000Y-75870000D03*
D13*
%TO.N,/A2*%
X138870000Y-75870000D03*
%TD*%
D14*
%TO.N,/GND*%
X158300000Y-116590000D03*
X151170000Y-116420000D03*
X154660000Y-114150000D03*
%TO.N,VCCIO*%
X157040000Y-112420000D03*
%TO.N,/5V*%
X152260000Y-112400000D03*
%TO.N,/A0*%
X146860000Y-86310000D03*
%TO.N,/5V*%
X142410000Y-112340000D03*
X137580000Y-112340000D03*
%TO.N,VCCIO*%
X124640000Y-99340000D03*
%TO.N,/GND*%
X118447400Y-99093600D03*
X136745474Y-94327349D03*
X140986417Y-105670000D03*
X130390000Y-117570000D03*
X153837950Y-91430000D03*
X141427974Y-98477349D03*
X126346800Y-91421800D03*
X130950000Y-106980000D03*
X138427974Y-101407349D03*
X135025474Y-108527349D03*
X122260000Y-105840000D03*
X139975474Y-99982349D03*
X148785474Y-108567349D03*
X141477974Y-101427349D03*
X144430000Y-105685000D03*
X149800000Y-117600000D03*
X145695474Y-100382349D03*
X149220474Y-95047349D03*
X142568065Y-106215000D03*
X161703600Y-75624000D03*
X135447821Y-105189696D03*
X138507974Y-98477349D03*
X126372200Y-87421800D03*
X122110000Y-103350000D03*
X142990474Y-94347349D03*
X150285474Y-102317349D03*
X124200000Y-111030000D03*
X144245474Y-107967349D03*
X132775474Y-108927349D03*
X134296411Y-97886411D03*
X130547974Y-95627349D03*
X131867974Y-101457349D03*
X118625200Y-75776400D03*
X153905800Y-87409600D03*
X126657500Y-114910000D03*
X153905800Y-79409600D03*
X161729000Y-99169800D03*
X126372200Y-79421800D03*
X137915474Y-106347349D03*
%TO.N,VCORE*%
X134345474Y-104257349D03*
X141650000Y-106650000D03*
X134755474Y-95457349D03*
X142505474Y-93167349D03*
%TO.N,/SCL*%
X161670000Y-81340000D03*
X158127800Y-81409600D03*
%TO.N,/SDA*%
X160940000Y-82370000D03*
X149580000Y-81409600D03*
%TO.N,/PLUG*%
X131660000Y-83370000D03*
X149480000Y-83390000D03*
%TO.N,/A0*%
X121780000Y-85450000D03*
%TO.N,/RX*%
X150175474Y-99617349D03*
X140335474Y-94137349D03*
X147214600Y-92134600D03*
X135635000Y-89535000D03*
X158580000Y-89440000D03*
X121838200Y-89421800D03*
%TO.N,/TX*%
X149449600Y-89409600D03*
X142677974Y-90817349D03*
X133920000Y-84330000D03*
%TO.N,Net-(U2-VPHY)*%
X145905474Y-108647349D03*
X136595474Y-110147349D03*
%TO.N,VCCIO*%
X123235474Y-106897349D03*
X145695474Y-102257349D03*
X148955474Y-110447349D03*
D15*
X121890000Y-93410000D03*
D14*
X132230000Y-98160000D03*
X138830000Y-93820000D03*
X120900000Y-101780000D03*
X149797974Y-106147349D03*
X130970000Y-98140000D03*
D15*
X158580000Y-93450000D03*
D14*
X122125474Y-104637349D03*
X134523118Y-100906579D03*
X145727974Y-96732349D03*
%TO.N,Net-(U2-REF)*%
X127937500Y-108930000D03*
X138520474Y-111440000D03*
%TD*%
%TA.AperFunction,Conductor*%
%TO.N,/GND*%
G36*
X140944075Y-88377007D02*
G01*
X140910000Y-88504174D01*
X140910000Y-88635826D01*
X140944075Y-88762993D01*
X140976988Y-88820000D01*
X139303012Y-88820000D01*
X139335925Y-88762993D01*
X139370000Y-88635826D01*
X139370000Y-88504174D01*
X139335925Y-88377007D01*
X139303012Y-88320000D01*
X140976988Y-88320000D01*
X140944075Y-88377007D01*
G37*
%TD.AperFunction*%
%TA.AperFunction,Conductor*%
G36*
X164041509Y-72380037D02*
G01*
X164047232Y-72380177D01*
X164127583Y-72382145D01*
X164148728Y-72384490D01*
X164319013Y-72418362D01*
X164342261Y-72425413D01*
X164501257Y-72491272D01*
X164522692Y-72502730D01*
X164665775Y-72598335D01*
X164684565Y-72613756D01*
X164806243Y-72735434D01*
X164821664Y-72754224D01*
X164917269Y-72897307D01*
X164928728Y-72918745D01*
X164994583Y-73077731D01*
X165001639Y-73100993D01*
X165035508Y-73271266D01*
X165037854Y-73292419D01*
X165039963Y-73378488D01*
X165040000Y-73381526D01*
X165040000Y-119958473D01*
X165039963Y-119961511D01*
X165037854Y-120047580D01*
X165035508Y-120068733D01*
X165001639Y-120239006D01*
X164994583Y-120262268D01*
X164928728Y-120421254D01*
X164917269Y-120442692D01*
X164821664Y-120585775D01*
X164806243Y-120604565D01*
X164684565Y-120726243D01*
X164665775Y-120741664D01*
X164522692Y-120837269D01*
X164501254Y-120848728D01*
X164342268Y-120914583D01*
X164319006Y-120921639D01*
X164148733Y-120955508D01*
X164127580Y-120957854D01*
X164044250Y-120959895D01*
X164041509Y-120959963D01*
X164038473Y-120960000D01*
X116271527Y-120960000D01*
X116268490Y-120959963D01*
X116182420Y-120957854D01*
X116161266Y-120955508D01*
X115990993Y-120921639D01*
X115967731Y-120914583D01*
X115808745Y-120848728D01*
X115787307Y-120837269D01*
X115644224Y-120741664D01*
X115625434Y-120726243D01*
X115503756Y-120604565D01*
X115488335Y-120585775D01*
X115392730Y-120442692D01*
X115381271Y-120421254D01*
X115315413Y-120262261D01*
X115308362Y-120239013D01*
X115274490Y-120068728D01*
X115272145Y-120047583D01*
X115270037Y-119961509D01*
X115270000Y-119958473D01*
X115270000Y-118868495D01*
X134670000Y-118868495D01*
X134708427Y-119061681D01*
X134708430Y-119061693D01*
X134783807Y-119243671D01*
X134783814Y-119243684D01*
X134893248Y-119407462D01*
X134893251Y-119407466D01*
X135032533Y-119546748D01*
X135032537Y-119546751D01*
X135196315Y-119656185D01*
X135196328Y-119656192D01*
X135378308Y-119731569D01*
X135420000Y-119739862D01*
X135420000Y-118936988D01*
X135429940Y-118954205D01*
X135485795Y-119010060D01*
X135554204Y-119049556D01*
X135630504Y-119070000D01*
X135709496Y-119070000D01*
X135785796Y-119049556D01*
X135854205Y-119010060D01*
X135910060Y-118954205D01*
X135920000Y-118936988D01*
X135920000Y-119739862D01*
X135961690Y-119731569D01*
X135961692Y-119731569D01*
X136143671Y-119656192D01*
X136143684Y-119656185D01*
X136307462Y-119546751D01*
X136307466Y-119546748D01*
X136446748Y-119407466D01*
X136446751Y-119407462D01*
X136556185Y-119243684D01*
X136556192Y-119243671D01*
X136631569Y-119061693D01*
X136631572Y-119061681D01*
X136669999Y-118868495D01*
X143310000Y-118868495D01*
X143348427Y-119061681D01*
X143348430Y-119061693D01*
X143423807Y-119243671D01*
X143423814Y-119243684D01*
X143533248Y-119407462D01*
X143533251Y-119407466D01*
X143672533Y-119546748D01*
X143672537Y-119546751D01*
X143836315Y-119656185D01*
X143836328Y-119656192D01*
X144018308Y-119731569D01*
X144060000Y-119739862D01*
X144060000Y-118936988D01*
X144069940Y-118954205D01*
X144125795Y-119010060D01*
X144194204Y-119049556D01*
X144270504Y-119070000D01*
X144349496Y-119070000D01*
X144425796Y-119049556D01*
X144494205Y-119010060D01*
X144550060Y-118954205D01*
X144560000Y-118936988D01*
X144560000Y-119739862D01*
X144601690Y-119731569D01*
X144601692Y-119731569D01*
X144783671Y-119656192D01*
X144783684Y-119656185D01*
X144947462Y-119546751D01*
X144947466Y-119546748D01*
X145086748Y-119407466D01*
X145086751Y-119407462D01*
X145196185Y-119243684D01*
X145196192Y-119243671D01*
X145271569Y-119061693D01*
X145271572Y-119061681D01*
X145309999Y-118868495D01*
X145310000Y-118868492D01*
X145310000Y-118620000D01*
X144610000Y-118620000D01*
X144610000Y-118120000D01*
X145310000Y-118120000D01*
X145310000Y-117871508D01*
X145309999Y-117871504D01*
X145271572Y-117678318D01*
X145271569Y-117678306D01*
X145196192Y-117496328D01*
X145196185Y-117496315D01*
X145086751Y-117332537D01*
X145086748Y-117332533D01*
X144947466Y-117193251D01*
X144947462Y-117193248D01*
X144783684Y-117083814D01*
X144783671Y-117083807D01*
X144601691Y-117008429D01*
X144601683Y-117008427D01*
X144560000Y-117000135D01*
X144560000Y-117803011D01*
X144550060Y-117785795D01*
X144494205Y-117729940D01*
X144425796Y-117690444D01*
X144349496Y-117670000D01*
X144270504Y-117670000D01*
X144194204Y-117690444D01*
X144125795Y-117729940D01*
X144069940Y-117785795D01*
X144060000Y-117803011D01*
X144060000Y-117000136D01*
X144059999Y-117000135D01*
X144018316Y-117008427D01*
X144018308Y-117008429D01*
X143836328Y-117083807D01*
X143836315Y-117083814D01*
X143672537Y-117193248D01*
X143672533Y-117193251D01*
X143533251Y-117332533D01*
X143533248Y-117332537D01*
X143423814Y-117496315D01*
X143423807Y-117496328D01*
X143348430Y-117678306D01*
X143348427Y-117678318D01*
X143310000Y-117871504D01*
X143310000Y-118120000D01*
X144010000Y-118120000D01*
X144010000Y-118620000D01*
X143310000Y-118620000D01*
X143310000Y-118868495D01*
X136669999Y-118868495D01*
X136670000Y-118868492D01*
X136670000Y-118620000D01*
X135970000Y-118620000D01*
X135970000Y-118120000D01*
X136670000Y-118120000D01*
X136670000Y-117871508D01*
X136669999Y-117871504D01*
X136631572Y-117678318D01*
X136631569Y-117678306D01*
X136556192Y-117496328D01*
X136556185Y-117496315D01*
X136446751Y-117332537D01*
X136446748Y-117332533D01*
X136307466Y-117193251D01*
X136307462Y-117193248D01*
X136143684Y-117083814D01*
X136143671Y-117083807D01*
X135961691Y-117008429D01*
X135961683Y-117008427D01*
X135920000Y-117000135D01*
X135920000Y-117803011D01*
X135910060Y-117785795D01*
X135854205Y-117729940D01*
X135785796Y-117690444D01*
X135709496Y-117670000D01*
X135630504Y-117670000D01*
X135554204Y-117690444D01*
X135485795Y-117729940D01*
X135429940Y-117785795D01*
X135420000Y-117803011D01*
X135420000Y-117000136D01*
X135419999Y-117000135D01*
X135378316Y-117008427D01*
X135378308Y-117008429D01*
X135196328Y-117083807D01*
X135196315Y-117083814D01*
X135032537Y-117193248D01*
X135032533Y-117193251D01*
X134893251Y-117332533D01*
X134893248Y-117332537D01*
X134783814Y-117496315D01*
X134783807Y-117496328D01*
X134708430Y-117678306D01*
X134708427Y-117678318D01*
X134670000Y-117871504D01*
X134670000Y-118120000D01*
X135370000Y-118120000D01*
X135370000Y-118620000D01*
X134670000Y-118620000D01*
X134670000Y-118868495D01*
X115270000Y-118868495D01*
X115270000Y-114838495D01*
X134670000Y-114838495D01*
X134708427Y-115031681D01*
X134708430Y-115031693D01*
X134783807Y-115213671D01*
X134783814Y-115213684D01*
X134893248Y-115377462D01*
X134893251Y-115377466D01*
X135032533Y-115516748D01*
X135032537Y-115516751D01*
X135196315Y-115626185D01*
X135196328Y-115626192D01*
X135378308Y-115701569D01*
X135420000Y-115709862D01*
X135420000Y-114906988D01*
X135429940Y-114924205D01*
X135485795Y-114980060D01*
X135554204Y-115019556D01*
X135630504Y-115040000D01*
X135709496Y-115040000D01*
X135785796Y-115019556D01*
X135854205Y-114980060D01*
X135910060Y-114924205D01*
X135920000Y-114906988D01*
X135920000Y-115709862D01*
X135961690Y-115701569D01*
X135961692Y-115701569D01*
X136143671Y-115626192D01*
X136143684Y-115626185D01*
X136307462Y-115516751D01*
X136307466Y-115516748D01*
X136446748Y-115377466D01*
X136446751Y-115377462D01*
X136556185Y-115213684D01*
X136556186Y-115213682D01*
X136560129Y-115204163D01*
X136603968Y-115149757D01*
X136670261Y-115127689D01*
X136737961Y-115144965D01*
X136743400Y-115148647D01*
X136746634Y-115150514D01*
X136746635Y-115150515D01*
X136877865Y-115226281D01*
X137024234Y-115265500D01*
X137024236Y-115265500D01*
X137175764Y-115265500D01*
X137175766Y-115265500D01*
X137322135Y-115226281D01*
X137453365Y-115150515D01*
X137560515Y-115043365D01*
X137636281Y-114912135D01*
X137675500Y-114765766D01*
X137675500Y-114765765D01*
X142304500Y-114765765D01*
X142343719Y-114912136D01*
X142381602Y-114977750D01*
X142419485Y-115043365D01*
X142526635Y-115150515D01*
X142657865Y-115226281D01*
X142804234Y-115265500D01*
X142804236Y-115265500D01*
X142955764Y-115265500D01*
X142955766Y-115265500D01*
X143102135Y-115226281D01*
X143233365Y-115150515D01*
X143233366Y-115150513D01*
X143240403Y-115146451D01*
X143241676Y-115148656D01*
X143294956Y-115128043D01*
X143363405Y-115142063D01*
X143413407Y-115190864D01*
X143419867Y-115204157D01*
X143423809Y-115213674D01*
X143423814Y-115213684D01*
X143533248Y-115377462D01*
X143533251Y-115377466D01*
X143672533Y-115516748D01*
X143672537Y-115516751D01*
X143836315Y-115626185D01*
X143836328Y-115626192D01*
X144018308Y-115701569D01*
X144060000Y-115709862D01*
X144060000Y-114906988D01*
X144069940Y-114924205D01*
X144125795Y-114980060D01*
X144194204Y-115019556D01*
X144270504Y-115040000D01*
X144349496Y-115040000D01*
X144425796Y-115019556D01*
X144494205Y-114980060D01*
X144550060Y-114924205D01*
X144560000Y-114906988D01*
X144560000Y-115709862D01*
X144601690Y-115701569D01*
X144601692Y-115701569D01*
X144783671Y-115626192D01*
X144783684Y-115626185D01*
X144947462Y-115516751D01*
X144947466Y-115516748D01*
X145086748Y-115377466D01*
X145086751Y-115377462D01*
X145196185Y-115213684D01*
X145196192Y-115213671D01*
X145271569Y-115031693D01*
X145271572Y-115031681D01*
X145309999Y-114838495D01*
X145310000Y-114838492D01*
X145310000Y-114440000D01*
X144610000Y-114440000D01*
X144610000Y-113940000D01*
X145310000Y-113940000D01*
X145310000Y-113541508D01*
X145309999Y-113541504D01*
X145271572Y-113348318D01*
X145271569Y-113348306D01*
X145196192Y-113166328D01*
X145196185Y-113166315D01*
X145086751Y-113002537D01*
X145086748Y-113002533D01*
X144947466Y-112863251D01*
X144947462Y-112863248D01*
X144783684Y-112753814D01*
X144783671Y-112753807D01*
X144601691Y-112678429D01*
X144601683Y-112678427D01*
X144560000Y-112670135D01*
X144560000Y-113473011D01*
X144550060Y-113455795D01*
X144494205Y-113399940D01*
X144425796Y-113360444D01*
X144349496Y-113340000D01*
X144270504Y-113340000D01*
X144194204Y-113360444D01*
X144125795Y-113399940D01*
X144069940Y-113455795D01*
X144060000Y-113473011D01*
X144060000Y-112670136D01*
X144059999Y-112670135D01*
X144018316Y-112678427D01*
X144018308Y-112678429D01*
X143836328Y-112753807D01*
X143836315Y-112753814D01*
X143672537Y-112863248D01*
X143672533Y-112863251D01*
X143533251Y-113002533D01*
X143533248Y-113002537D01*
X143423814Y-113166315D01*
X143423807Y-113166328D01*
X143348430Y-113348306D01*
X143348427Y-113348318D01*
X143310000Y-113541504D01*
X143310000Y-114058955D01*
X143290315Y-114125994D01*
X143237511Y-114171749D01*
X143168353Y-114181693D01*
X143124000Y-114166342D01*
X143102138Y-114153720D01*
X143102135Y-114153719D01*
X142955766Y-114114500D01*
X142804234Y-114114500D01*
X142657863Y-114153719D01*
X142526635Y-114229485D01*
X142526632Y-114229487D01*
X142419487Y-114336632D01*
X142419485Y-114336635D01*
X142343719Y-114467863D01*
X142304500Y-114614234D01*
X142304500Y-114765765D01*
X137675500Y-114765765D01*
X137675500Y-114614234D01*
X137636281Y-114467865D01*
X137560515Y-114336635D01*
X137453365Y-114229485D01*
X137343999Y-114166342D01*
X137322136Y-114153719D01*
X137248950Y-114134109D01*
X137175766Y-114114500D01*
X137024234Y-114114500D01*
X136877865Y-114153719D01*
X136877864Y-114153719D01*
X136877862Y-114153720D01*
X136877861Y-114153720D01*
X136856000Y-114166342D01*
X136788099Y-114182815D01*
X136722073Y-114159962D01*
X136678882Y-114105041D01*
X136670000Y-114058955D01*
X136670000Y-113541508D01*
X136669999Y-113541504D01*
X136631572Y-113348318D01*
X136631569Y-113348306D01*
X136556192Y-113166328D01*
X136556185Y-113166315D01*
X136446751Y-113002537D01*
X136446748Y-113002533D01*
X136307466Y-112863251D01*
X136307462Y-112863248D01*
X136143684Y-112753814D01*
X136143671Y-112753807D01*
X135961691Y-112678429D01*
X135961683Y-112678427D01*
X135920000Y-112670135D01*
X135920000Y-113473011D01*
X135910060Y-113455795D01*
X135854205Y-113399940D01*
X135785796Y-113360444D01*
X135709496Y-113340000D01*
X135630504Y-113340000D01*
X135554204Y-113360444D01*
X135485795Y-113399940D01*
X135429940Y-113455795D01*
X135420000Y-113473011D01*
X135420000Y-112670136D01*
X135419999Y-112670135D01*
X135378316Y-112678427D01*
X135378308Y-112678429D01*
X135196328Y-112753807D01*
X135196315Y-112753814D01*
X135032537Y-112863248D01*
X135032533Y-112863251D01*
X134893251Y-113002533D01*
X134893248Y-113002537D01*
X134783814Y-113166315D01*
X134783807Y-113166328D01*
X134708430Y-113348306D01*
X134708427Y-113348318D01*
X134670000Y-113541504D01*
X134670000Y-113940000D01*
X135370000Y-113940000D01*
X135370000Y-114440000D01*
X134670000Y-114440000D01*
X134670000Y-114838495D01*
X115270000Y-114838495D01*
X115270000Y-112340000D01*
X136674540Y-112340000D01*
X136694326Y-112528256D01*
X136694327Y-112528259D01*
X136752818Y-112708277D01*
X136752821Y-112708284D01*
X136847467Y-112872216D01*
X136919498Y-112952214D01*
X136974129Y-113012888D01*
X137127265Y-113124148D01*
X137127270Y-113124151D01*
X137300192Y-113201142D01*
X137300197Y-113201144D01*
X137485354Y-113240500D01*
X137485355Y-113240500D01*
X137674644Y-113240500D01*
X137674646Y-113240500D01*
X137859803Y-113201144D01*
X138032730Y-113124151D01*
X138185871Y-113012888D01*
X138312533Y-112872216D01*
X138407179Y-112708284D01*
X138465674Y-112528256D01*
X138473737Y-112451539D01*
X138500321Y-112386925D01*
X138557618Y-112346939D01*
X138597058Y-112340500D01*
X138615118Y-112340500D01*
X138615120Y-112340500D01*
X138617472Y-112340000D01*
X141504540Y-112340000D01*
X141524326Y-112528256D01*
X141524327Y-112528259D01*
X141582818Y-112708277D01*
X141582821Y-112708284D01*
X141677467Y-112872216D01*
X141749498Y-112952214D01*
X141804129Y-113012888D01*
X141957265Y-113124148D01*
X141957270Y-113124151D01*
X142130192Y-113201142D01*
X142130197Y-113201144D01*
X142315354Y-113240500D01*
X142315355Y-113240500D01*
X142504644Y-113240500D01*
X142504646Y-113240500D01*
X142689803Y-113201144D01*
X142862730Y-113124151D01*
X143015871Y-113012888D01*
X143142533Y-112872216D01*
X143237179Y-112708284D01*
X143295674Y-112528256D01*
X143309154Y-112400000D01*
X151354540Y-112400000D01*
X151374326Y-112588256D01*
X151374327Y-112588259D01*
X151432818Y-112768277D01*
X151432821Y-112768284D01*
X151527467Y-112932216D01*
X151600105Y-113012888D01*
X151654129Y-113072888D01*
X151807265Y-113184148D01*
X151807270Y-113184151D01*
X151980192Y-113261142D01*
X151980197Y-113261144D01*
X152165354Y-113300500D01*
X152165355Y-113300500D01*
X152354644Y-113300500D01*
X152354646Y-113300500D01*
X152539803Y-113261144D01*
X152712730Y-113184151D01*
X152865871Y-113072888D01*
X152992533Y-112932216D01*
X153087179Y-112768284D01*
X153145674Y-112588256D01*
X153163358Y-112420000D01*
X156134540Y-112420000D01*
X156154326Y-112608256D01*
X156154327Y-112608259D01*
X156212818Y-112788277D01*
X156212821Y-112788284D01*
X156307467Y-112952216D01*
X156416121Y-113072888D01*
X156434129Y-113092888D01*
X156587265Y-113204148D01*
X156587270Y-113204151D01*
X156760192Y-113281142D01*
X156760197Y-113281144D01*
X156945354Y-113320500D01*
X156945355Y-113320500D01*
X157134644Y-113320500D01*
X157134646Y-113320500D01*
X157319803Y-113281144D01*
X157492730Y-113204151D01*
X157645871Y-113092888D01*
X157772533Y-112952216D01*
X157867179Y-112788284D01*
X157925674Y-112608256D01*
X157945460Y-112420000D01*
X157925674Y-112231744D01*
X157867179Y-112051716D01*
X157772533Y-111887784D01*
X157645871Y-111747112D01*
X157645870Y-111747111D01*
X157492734Y-111635851D01*
X157492729Y-111635848D01*
X157319807Y-111558857D01*
X157319802Y-111558855D01*
X157174001Y-111527865D01*
X157134646Y-111519500D01*
X156945354Y-111519500D01*
X156912897Y-111526398D01*
X156760197Y-111558855D01*
X156760192Y-111558857D01*
X156587270Y-111635848D01*
X156587265Y-111635851D01*
X156434129Y-111747111D01*
X156307466Y-111887785D01*
X156212821Y-112051715D01*
X156212818Y-112051722D01*
X156160824Y-112211744D01*
X156154326Y-112231744D01*
X156134540Y-112420000D01*
X153163358Y-112420000D01*
X153165460Y-112400000D01*
X153145674Y-112211744D01*
X153087179Y-112031716D01*
X152992533Y-111867784D01*
X152865871Y-111727112D01*
X152865870Y-111727111D01*
X152712734Y-111615851D01*
X152712729Y-111615848D01*
X152539807Y-111538857D01*
X152539802Y-111538855D01*
X152394001Y-111507865D01*
X152354646Y-111499500D01*
X152165354Y-111499500D01*
X152132897Y-111506398D01*
X151980197Y-111538855D01*
X151980192Y-111538857D01*
X151807270Y-111615848D01*
X151807265Y-111615851D01*
X151654129Y-111727111D01*
X151527466Y-111867785D01*
X151432821Y-112031715D01*
X151432818Y-112031722D01*
X151393821Y-112151744D01*
X151374326Y-112211744D01*
X151354540Y-112400000D01*
X143309154Y-112400000D01*
X143315460Y-112340000D01*
X143295674Y-112151744D01*
X143241112Y-111983823D01*
X143237181Y-111971722D01*
X143237180Y-111971721D01*
X143237179Y-111971716D01*
X143142533Y-111807784D01*
X143015871Y-111667112D01*
X142972844Y-111635851D01*
X142862734Y-111555851D01*
X142862729Y-111555848D01*
X142689807Y-111478857D01*
X142689802Y-111478855D01*
X142544001Y-111447865D01*
X142504646Y-111439500D01*
X142315354Y-111439500D01*
X142282897Y-111446398D01*
X142130197Y-111478855D01*
X142130192Y-111478857D01*
X141957270Y-111555848D01*
X141957265Y-111555851D01*
X141804129Y-111667111D01*
X141677466Y-111807785D01*
X141582821Y-111971715D01*
X141582818Y-111971722D01*
X141556827Y-112051716D01*
X141524326Y-112151744D01*
X141504540Y-112340000D01*
X138617472Y-112340000D01*
X138800277Y-112301144D01*
X138973204Y-112224151D01*
X139126345Y-112112888D01*
X139253007Y-111972216D01*
X139347653Y-111808284D01*
X139406148Y-111628256D01*
X139425934Y-111440000D01*
X139406148Y-111251744D01*
X139347653Y-111071716D01*
X139253007Y-110907784D01*
X139126345Y-110767112D01*
X139126344Y-110767111D01*
X138973208Y-110655851D01*
X138973203Y-110655848D01*
X138800281Y-110578857D01*
X138800276Y-110578855D01*
X138654475Y-110547865D01*
X138615120Y-110539500D01*
X138425828Y-110539500D01*
X138393371Y-110546398D01*
X138240671Y-110578855D01*
X138240666Y-110578857D01*
X138067744Y-110655848D01*
X138067739Y-110655851D01*
X137914603Y-110767111D01*
X137787940Y-110907785D01*
X137693295Y-111071715D01*
X137693292Y-111071722D01*
X137634799Y-111251745D01*
X137626737Y-111328461D01*
X137600153Y-111393075D01*
X137542856Y-111433061D01*
X137503416Y-111439500D01*
X137485354Y-111439500D01*
X137452897Y-111446398D01*
X137300197Y-111478855D01*
X137300192Y-111478857D01*
X137127270Y-111555848D01*
X137127265Y-111555851D01*
X136974129Y-111667111D01*
X136847466Y-111807785D01*
X136752821Y-111971715D01*
X136752818Y-111971722D01*
X136726827Y-112051716D01*
X136694326Y-112151744D01*
X136674540Y-112340000D01*
X115270000Y-112340000D01*
X115270000Y-110147349D01*
X135690014Y-110147349D01*
X135709800Y-110335605D01*
X135709801Y-110335608D01*
X135768292Y-110515626D01*
X135768295Y-110515633D01*
X135862941Y-110679565D01*
X135941768Y-110767111D01*
X135989603Y-110820237D01*
X136142739Y-110931497D01*
X136142744Y-110931500D01*
X136315666Y-111008491D01*
X136315671Y-111008493D01*
X136500828Y-111047849D01*
X136500829Y-111047849D01*
X136690118Y-111047849D01*
X136690120Y-111047849D01*
X136875277Y-111008493D01*
X137048204Y-110931500D01*
X137201345Y-110820237D01*
X137328007Y-110679565D01*
X137422653Y-110515633D01*
X137444840Y-110447349D01*
X148050014Y-110447349D01*
X148069800Y-110635605D01*
X148069801Y-110635608D01*
X148128292Y-110815626D01*
X148128295Y-110815633D01*
X148222941Y-110979565D01*
X148305920Y-111071722D01*
X148349603Y-111120237D01*
X148502739Y-111231497D01*
X148502744Y-111231500D01*
X148675666Y-111308491D01*
X148675671Y-111308493D01*
X148860828Y-111347849D01*
X148860829Y-111347849D01*
X149050118Y-111347849D01*
X149050120Y-111347849D01*
X149235277Y-111308493D01*
X149408204Y-111231500D01*
X149561345Y-111120237D01*
X149688007Y-110979565D01*
X149782653Y-110815633D01*
X149841148Y-110635605D01*
X149860934Y-110447349D01*
X149841148Y-110259093D01*
X149782653Y-110079065D01*
X149688007Y-109915133D01*
X149561345Y-109774461D01*
X149561344Y-109774460D01*
X149408208Y-109663200D01*
X149408203Y-109663197D01*
X149235281Y-109586206D01*
X149235276Y-109586204D01*
X149089475Y-109555214D01*
X149050120Y-109546849D01*
X148860828Y-109546849D01*
X148828371Y-109553747D01*
X148675671Y-109586204D01*
X148675666Y-109586206D01*
X148502744Y-109663197D01*
X148502739Y-109663200D01*
X148349603Y-109774460D01*
X148222940Y-109915134D01*
X148128295Y-110079064D01*
X148128292Y-110079071D01*
X148069801Y-110259089D01*
X148069800Y-110259093D01*
X148050014Y-110447349D01*
X137444840Y-110447349D01*
X137481148Y-110335605D01*
X137500934Y-110147349D01*
X137481148Y-109959093D01*
X137422653Y-109779065D01*
X137328007Y-109615133D01*
X137201345Y-109474461D01*
X137201344Y-109474460D01*
X137048208Y-109363200D01*
X137048203Y-109363197D01*
X136875281Y-109286206D01*
X136875276Y-109286204D01*
X136729475Y-109255214D01*
X136690120Y-109246849D01*
X136500828Y-109246849D01*
X136468371Y-109253747D01*
X136315671Y-109286204D01*
X136315666Y-109286206D01*
X136142744Y-109363197D01*
X136142739Y-109363200D01*
X135989603Y-109474460D01*
X135862940Y-109615134D01*
X135768295Y-109779064D01*
X135768292Y-109779071D01*
X135724083Y-109915134D01*
X135709800Y-109959093D01*
X135690014Y-110147349D01*
X115270000Y-110147349D01*
X115270000Y-108930000D01*
X127032040Y-108930000D01*
X127051826Y-109118256D01*
X127051827Y-109118259D01*
X127110318Y-109298277D01*
X127110321Y-109298284D01*
X127204967Y-109462216D01*
X127331629Y-109602888D01*
X127484765Y-109714148D01*
X127484770Y-109714151D01*
X127657692Y-109791142D01*
X127657697Y-109791144D01*
X127842854Y-109830500D01*
X127842855Y-109830500D01*
X128032144Y-109830500D01*
X128032146Y-109830500D01*
X128217303Y-109791144D01*
X128390230Y-109714151D01*
X128543371Y-109602888D01*
X128670033Y-109462216D01*
X128764679Y-109298284D01*
X128823174Y-109118256D01*
X128842960Y-108930000D01*
X128823174Y-108741744D01*
X128792503Y-108647349D01*
X145000014Y-108647349D01*
X145019800Y-108835605D01*
X145019801Y-108835608D01*
X145078292Y-109015626D01*
X145078295Y-109015633D01*
X145172941Y-109179565D01*
X145268961Y-109286206D01*
X145299603Y-109320237D01*
X145452739Y-109431497D01*
X145452744Y-109431500D01*
X145625666Y-109508491D01*
X145625671Y-109508493D01*
X145810828Y-109547849D01*
X145810829Y-109547849D01*
X146000118Y-109547849D01*
X146000120Y-109547849D01*
X146185277Y-109508493D01*
X146358204Y-109431500D01*
X146511345Y-109320237D01*
X146638007Y-109179565D01*
X146732653Y-109015633D01*
X146791148Y-108835605D01*
X146810934Y-108647349D01*
X146791148Y-108459093D01*
X146732653Y-108279065D01*
X146638007Y-108115133D01*
X146511345Y-107974461D01*
X146511344Y-107974460D01*
X146358208Y-107863200D01*
X146358203Y-107863197D01*
X146185281Y-107786206D01*
X146185276Y-107786204D01*
X146039475Y-107755214D01*
X146000120Y-107746849D01*
X145810828Y-107746849D01*
X145778371Y-107753747D01*
X145625671Y-107786204D01*
X145625666Y-107786206D01*
X145452744Y-107863197D01*
X145452739Y-107863200D01*
X145299603Y-107974460D01*
X145172940Y-108115134D01*
X145078295Y-108279064D01*
X145078292Y-108279071D01*
X145039720Y-108397785D01*
X145019800Y-108459093D01*
X145000014Y-108647349D01*
X128792503Y-108647349D01*
X128764679Y-108561716D01*
X128670033Y-108397784D01*
X128543371Y-108257112D01*
X128543370Y-108257111D01*
X128390234Y-108145851D01*
X128390229Y-108145848D01*
X128217307Y-108068857D01*
X128217302Y-108068855D01*
X128071501Y-108037865D01*
X128032146Y-108029500D01*
X127842854Y-108029500D01*
X127810397Y-108036398D01*
X127657697Y-108068855D01*
X127657692Y-108068857D01*
X127484770Y-108145848D01*
X127484765Y-108145851D01*
X127331629Y-108257111D01*
X127204966Y-108397785D01*
X127110321Y-108561715D01*
X127110318Y-108561722D01*
X127051827Y-108741740D01*
X127051826Y-108741744D01*
X127032040Y-108930000D01*
X115270000Y-108930000D01*
X115270000Y-106897349D01*
X122330014Y-106897349D01*
X122349800Y-107085605D01*
X122349801Y-107085608D01*
X122408292Y-107265626D01*
X122408295Y-107265633D01*
X122502941Y-107429565D01*
X122611832Y-107550500D01*
X122629603Y-107570237D01*
X122782739Y-107681497D01*
X122782744Y-107681500D01*
X122955666Y-107758491D01*
X122955671Y-107758493D01*
X123140828Y-107797849D01*
X123140829Y-107797849D01*
X123330118Y-107797849D01*
X123330120Y-107797849D01*
X123515277Y-107758493D01*
X123688204Y-107681500D01*
X123841345Y-107570237D01*
X123968007Y-107429565D01*
X124062653Y-107265633D01*
X124121148Y-107085605D01*
X124140934Y-106897349D01*
X124121148Y-106709093D01*
X124101947Y-106650000D01*
X140744540Y-106650000D01*
X140764326Y-106838256D01*
X140764327Y-106838259D01*
X140822818Y-107018277D01*
X140822821Y-107018284D01*
X140917467Y-107182216D01*
X141044129Y-107322888D01*
X141197265Y-107434148D01*
X141197270Y-107434151D01*
X141370192Y-107511142D01*
X141370197Y-107511144D01*
X141555354Y-107550500D01*
X141555355Y-107550500D01*
X141744644Y-107550500D01*
X141744646Y-107550500D01*
X141929803Y-107511144D01*
X142102730Y-107434151D01*
X142255871Y-107322888D01*
X142382533Y-107182216D01*
X142477179Y-107018284D01*
X142535674Y-106838256D01*
X142555460Y-106650000D01*
X142535674Y-106461744D01*
X142477179Y-106281716D01*
X142399602Y-106147349D01*
X148892514Y-106147349D01*
X148912300Y-106335605D01*
X148912301Y-106335608D01*
X148970792Y-106515626D01*
X148970795Y-106515633D01*
X149065441Y-106679565D01*
X149192103Y-106820237D01*
X149345239Y-106931497D01*
X149345244Y-106931500D01*
X149518166Y-107008491D01*
X149518171Y-107008493D01*
X149703328Y-107047849D01*
X149703329Y-107047849D01*
X149892618Y-107047849D01*
X149892620Y-107047849D01*
X150077777Y-107008493D01*
X150250704Y-106931500D01*
X150403845Y-106820237D01*
X150530507Y-106679565D01*
X150625153Y-106515633D01*
X150683648Y-106335605D01*
X150703434Y-106147349D01*
X150683648Y-105959093D01*
X150625153Y-105779065D01*
X150530507Y-105615133D01*
X150403845Y-105474461D01*
X150403844Y-105474460D01*
X150250708Y-105363200D01*
X150250703Y-105363197D01*
X150077781Y-105286206D01*
X150077776Y-105286204D01*
X149931975Y-105255214D01*
X149892620Y-105246849D01*
X149703328Y-105246849D01*
X149670871Y-105253747D01*
X149518171Y-105286204D01*
X149518166Y-105286206D01*
X149345244Y-105363197D01*
X149345239Y-105363200D01*
X149192103Y-105474460D01*
X149065440Y-105615134D01*
X148970795Y-105779064D01*
X148970792Y-105779071D01*
X148942596Y-105865851D01*
X148912300Y-105959093D01*
X148892514Y-106147349D01*
X142399602Y-106147349D01*
X142382533Y-106117784D01*
X142255871Y-105977112D01*
X142231070Y-105959093D01*
X142102734Y-105865851D01*
X142102729Y-105865848D01*
X141929807Y-105788857D01*
X141929802Y-105788855D01*
X141784001Y-105757865D01*
X141744646Y-105749500D01*
X141555354Y-105749500D01*
X141522897Y-105756398D01*
X141370197Y-105788855D01*
X141370192Y-105788857D01*
X141197270Y-105865848D01*
X141197265Y-105865851D01*
X141044129Y-105977111D01*
X140917466Y-106117785D01*
X140822821Y-106281715D01*
X140822818Y-106281722D01*
X140764327Y-106461740D01*
X140764326Y-106461744D01*
X140744540Y-106650000D01*
X124101947Y-106650000D01*
X124062653Y-106529065D01*
X123968007Y-106365133D01*
X123841345Y-106224461D01*
X123841344Y-106224460D01*
X123688208Y-106113200D01*
X123688203Y-106113197D01*
X123515281Y-106036206D01*
X123515276Y-106036204D01*
X123369475Y-106005214D01*
X123330120Y-105996849D01*
X123140828Y-105996849D01*
X123108371Y-106003747D01*
X122955671Y-106036204D01*
X122955666Y-106036206D01*
X122782744Y-106113197D01*
X122782739Y-106113200D01*
X122629603Y-106224460D01*
X122502940Y-106365134D01*
X122408295Y-106529064D01*
X122408292Y-106529071D01*
X122359395Y-106679563D01*
X122349800Y-106709093D01*
X122330014Y-106897349D01*
X115270000Y-106897349D01*
X115270000Y-104637349D01*
X121220014Y-104637349D01*
X121239800Y-104825605D01*
X121239801Y-104825608D01*
X121298292Y-105005626D01*
X121298295Y-105005633D01*
X121392941Y-105169565D01*
X121497965Y-105286206D01*
X121519603Y-105310237D01*
X121672739Y-105421497D01*
X121672744Y-105421500D01*
X121845666Y-105498491D01*
X121845671Y-105498493D01*
X122030828Y-105537849D01*
X122030829Y-105537849D01*
X122220118Y-105537849D01*
X122220120Y-105537849D01*
X122405277Y-105498493D01*
X122578204Y-105421500D01*
X122731345Y-105310237D01*
X122858007Y-105169565D01*
X122952653Y-105005633D01*
X123011148Y-104825605D01*
X123030934Y-104637349D01*
X123011148Y-104449093D01*
X122952653Y-104269065D01*
X122945889Y-104257349D01*
X133440014Y-104257349D01*
X133459800Y-104445605D01*
X133459801Y-104445608D01*
X133518292Y-104625626D01*
X133518295Y-104625633D01*
X133612941Y-104789565D01*
X133739603Y-104930237D01*
X133892739Y-105041497D01*
X133892744Y-105041500D01*
X134065666Y-105118491D01*
X134065671Y-105118493D01*
X134250828Y-105157849D01*
X134250829Y-105157849D01*
X134440118Y-105157849D01*
X134440120Y-105157849D01*
X134625277Y-105118493D01*
X134798204Y-105041500D01*
X134951345Y-104930237D01*
X135078007Y-104789565D01*
X135172653Y-104625633D01*
X135231148Y-104445605D01*
X135250934Y-104257349D01*
X135231148Y-104069093D01*
X135172653Y-103889065D01*
X135078007Y-103725133D01*
X134951345Y-103584461D01*
X134951344Y-103584460D01*
X134798208Y-103473200D01*
X134798203Y-103473197D01*
X134625281Y-103396206D01*
X134625276Y-103396204D01*
X134479475Y-103365214D01*
X134440120Y-103356849D01*
X134250828Y-103356849D01*
X134218371Y-103363747D01*
X134065671Y-103396204D01*
X134065666Y-103396206D01*
X133892744Y-103473197D01*
X133892739Y-103473200D01*
X133739603Y-103584460D01*
X133612940Y-103725134D01*
X133518295Y-103889064D01*
X133518292Y-103889071D01*
X133459801Y-104069089D01*
X133459800Y-104069093D01*
X133440014Y-104257349D01*
X122945889Y-104257349D01*
X122858007Y-104105133D01*
X122731345Y-103964461D01*
X122731344Y-103964460D01*
X122578208Y-103853200D01*
X122578203Y-103853197D01*
X122405281Y-103776206D01*
X122405276Y-103776204D01*
X122259475Y-103745214D01*
X122220120Y-103736849D01*
X122030828Y-103736849D01*
X121998371Y-103743747D01*
X121845671Y-103776204D01*
X121845666Y-103776206D01*
X121672744Y-103853197D01*
X121672739Y-103853200D01*
X121519603Y-103964460D01*
X121392940Y-104105134D01*
X121298295Y-104269064D01*
X121298292Y-104269071D01*
X121240933Y-104445605D01*
X121239800Y-104449093D01*
X121220014Y-104637349D01*
X115270000Y-104637349D01*
X115270000Y-101780000D01*
X119994540Y-101780000D01*
X120014326Y-101968256D01*
X120014327Y-101968259D01*
X120072818Y-102148277D01*
X120072821Y-102148284D01*
X120167467Y-102312216D01*
X120287571Y-102445605D01*
X120294129Y-102452888D01*
X120447265Y-102564148D01*
X120447270Y-102564151D01*
X120620192Y-102641142D01*
X120620197Y-102641144D01*
X120805354Y-102680500D01*
X120805355Y-102680500D01*
X120994644Y-102680500D01*
X120994646Y-102680500D01*
X121179803Y-102641144D01*
X121352730Y-102564151D01*
X121505871Y-102452888D01*
X121632533Y-102312216D01*
X121664210Y-102257349D01*
X144790014Y-102257349D01*
X144809800Y-102445605D01*
X144809801Y-102445608D01*
X144868292Y-102625626D01*
X144868295Y-102625633D01*
X144962941Y-102789565D01*
X145089603Y-102930237D01*
X145242739Y-103041497D01*
X145242744Y-103041500D01*
X145415666Y-103118491D01*
X145415671Y-103118493D01*
X145600828Y-103157849D01*
X145600829Y-103157849D01*
X145790118Y-103157849D01*
X145790120Y-103157849D01*
X145975277Y-103118493D01*
X146148204Y-103041500D01*
X146301345Y-102930237D01*
X146428007Y-102789565D01*
X146522653Y-102625633D01*
X146581148Y-102445605D01*
X146600934Y-102257349D01*
X146581148Y-102069093D01*
X146522653Y-101889065D01*
X146428007Y-101725133D01*
X146301345Y-101584461D01*
X146301344Y-101584460D01*
X146148208Y-101473200D01*
X146148203Y-101473197D01*
X145975281Y-101396206D01*
X145975276Y-101396204D01*
X145829475Y-101365214D01*
X145790120Y-101356849D01*
X145600828Y-101356849D01*
X145568371Y-101363747D01*
X145415671Y-101396204D01*
X145415666Y-101396206D01*
X145242744Y-101473197D01*
X145242739Y-101473200D01*
X145089603Y-101584460D01*
X144962940Y-101725134D01*
X144868295Y-101889064D01*
X144868292Y-101889071D01*
X144809801Y-102069089D01*
X144809800Y-102069093D01*
X144790014Y-102257349D01*
X121664210Y-102257349D01*
X121727179Y-102148284D01*
X121785674Y-101968256D01*
X121805460Y-101780000D01*
X121785674Y-101591744D01*
X121727179Y-101411716D01*
X121632533Y-101247784D01*
X121505871Y-101107112D01*
X121505870Y-101107111D01*
X121352734Y-100995851D01*
X121352729Y-100995848D01*
X121179807Y-100918857D01*
X121179802Y-100918855D01*
X121122046Y-100906579D01*
X133617658Y-100906579D01*
X133637444Y-101094835D01*
X133637445Y-101094838D01*
X133695936Y-101274856D01*
X133695939Y-101274863D01*
X133790585Y-101438795D01*
X133917247Y-101579467D01*
X134070383Y-101690727D01*
X134070388Y-101690730D01*
X134243310Y-101767721D01*
X134243315Y-101767723D01*
X134428472Y-101807079D01*
X134428473Y-101807079D01*
X134617762Y-101807079D01*
X134617764Y-101807079D01*
X134802921Y-101767723D01*
X134975848Y-101690730D01*
X135128989Y-101579467D01*
X135255651Y-101438795D01*
X135350297Y-101274863D01*
X135408792Y-101094835D01*
X135428578Y-100906579D01*
X135408792Y-100718323D01*
X135350297Y-100538295D01*
X135255651Y-100374363D01*
X135128989Y-100233691D01*
X135084192Y-100201144D01*
X134975852Y-100122430D01*
X134975847Y-100122427D01*
X134802925Y-100045436D01*
X134802920Y-100045434D01*
X134649798Y-100012888D01*
X134617764Y-100006079D01*
X134428472Y-100006079D01*
X134396438Y-100012888D01*
X134243315Y-100045434D01*
X134243310Y-100045436D01*
X134070388Y-100122427D01*
X134070383Y-100122430D01*
X133917247Y-100233690D01*
X133790584Y-100374364D01*
X133695939Y-100538294D01*
X133695936Y-100538301D01*
X133637445Y-100718319D01*
X133637444Y-100718323D01*
X133617658Y-100906579D01*
X121122046Y-100906579D01*
X121034001Y-100887865D01*
X120994646Y-100879500D01*
X120805354Y-100879500D01*
X120772897Y-100886398D01*
X120620197Y-100918855D01*
X120620192Y-100918857D01*
X120447270Y-100995848D01*
X120447265Y-100995851D01*
X120294129Y-101107111D01*
X120167466Y-101247785D01*
X120072821Y-101411715D01*
X120072818Y-101411722D01*
X120016692Y-101584461D01*
X120014326Y-101591744D01*
X119994540Y-101780000D01*
X115270000Y-101780000D01*
X115270000Y-99340000D01*
X123734540Y-99340000D01*
X123754326Y-99528256D01*
X123754327Y-99528259D01*
X123812818Y-99708277D01*
X123812821Y-99708284D01*
X123907467Y-99872216D01*
X124027998Y-100006079D01*
X124034129Y-100012888D01*
X124187265Y-100124148D01*
X124187270Y-100124151D01*
X124360192Y-100201142D01*
X124360197Y-100201144D01*
X124545354Y-100240500D01*
X124545355Y-100240500D01*
X124734644Y-100240500D01*
X124734646Y-100240500D01*
X124919803Y-100201144D01*
X125092730Y-100124151D01*
X125245871Y-100012888D01*
X125372533Y-99872216D01*
X125467179Y-99708284D01*
X125496726Y-99617349D01*
X149270014Y-99617349D01*
X149289800Y-99805605D01*
X149289801Y-99805608D01*
X149348292Y-99985626D01*
X149348295Y-99985633D01*
X149442941Y-100149565D01*
X149569603Y-100290237D01*
X149722739Y-100401497D01*
X149722744Y-100401500D01*
X149895666Y-100478491D01*
X149895671Y-100478493D01*
X150080828Y-100517849D01*
X150080829Y-100517849D01*
X150270118Y-100517849D01*
X150270120Y-100517849D01*
X150455277Y-100478493D01*
X150628204Y-100401500D01*
X150781345Y-100290237D01*
X150908007Y-100149565D01*
X151002653Y-99985633D01*
X151061148Y-99805605D01*
X151080934Y-99617349D01*
X151061148Y-99429093D01*
X151002653Y-99249065D01*
X150908007Y-99085133D01*
X150781345Y-98944461D01*
X150781344Y-98944460D01*
X150628208Y-98833200D01*
X150628203Y-98833197D01*
X150455281Y-98756206D01*
X150455276Y-98756204D01*
X150309475Y-98725214D01*
X150270120Y-98716849D01*
X150080828Y-98716849D01*
X150048371Y-98723747D01*
X149895671Y-98756204D01*
X149895666Y-98756206D01*
X149722744Y-98833197D01*
X149722739Y-98833200D01*
X149569603Y-98944460D01*
X149442940Y-99085134D01*
X149348295Y-99249064D01*
X149348292Y-99249071D01*
X149318748Y-99340000D01*
X149289800Y-99429093D01*
X149270014Y-99617349D01*
X125496726Y-99617349D01*
X125525674Y-99528256D01*
X125545460Y-99340000D01*
X125525674Y-99151744D01*
X125467179Y-98971716D01*
X125372533Y-98807784D01*
X125245871Y-98667112D01*
X125245870Y-98667111D01*
X125092734Y-98555851D01*
X125092729Y-98555848D01*
X124919807Y-98478857D01*
X124919802Y-98478855D01*
X124774001Y-98447865D01*
X124734646Y-98439500D01*
X124545354Y-98439500D01*
X124512897Y-98446398D01*
X124360197Y-98478855D01*
X124360192Y-98478857D01*
X124187270Y-98555848D01*
X124187265Y-98555851D01*
X124034129Y-98667111D01*
X123907466Y-98807785D01*
X123812821Y-98971715D01*
X123812818Y-98971722D01*
X123754327Y-99151740D01*
X123754326Y-99151744D01*
X123734540Y-99340000D01*
X115270000Y-99340000D01*
X115270000Y-98140000D01*
X130064540Y-98140000D01*
X130084326Y-98328256D01*
X130084327Y-98328259D01*
X130142818Y-98508277D01*
X130142821Y-98508284D01*
X130237467Y-98672216D01*
X130313092Y-98756206D01*
X130364129Y-98812888D01*
X130517265Y-98924148D01*
X130517270Y-98924151D01*
X130690192Y-99001142D01*
X130690197Y-99001144D01*
X130875354Y-99040500D01*
X130875355Y-99040500D01*
X131064644Y-99040500D01*
X131064646Y-99040500D01*
X131249803Y-99001144D01*
X131422730Y-98924151D01*
X131513352Y-98858310D01*
X131579157Y-98834831D01*
X131647210Y-98850656D01*
X131659112Y-98858304D01*
X131777266Y-98944148D01*
X131777270Y-98944151D01*
X131950192Y-99021142D01*
X131950197Y-99021144D01*
X132135354Y-99060500D01*
X132135355Y-99060500D01*
X132324644Y-99060500D01*
X132324646Y-99060500D01*
X132509803Y-99021144D01*
X132682730Y-98944151D01*
X132835871Y-98832888D01*
X132962533Y-98692216D01*
X133057179Y-98528284D01*
X133115674Y-98348256D01*
X133135460Y-98160000D01*
X133115674Y-97971744D01*
X133057179Y-97791716D01*
X132962533Y-97627784D01*
X132835871Y-97487112D01*
X132835870Y-97487111D01*
X132682734Y-97375851D01*
X132682729Y-97375848D01*
X132509807Y-97298857D01*
X132509802Y-97298855D01*
X132348475Y-97264565D01*
X132324646Y-97259500D01*
X132135354Y-97259500D01*
X132111525Y-97264565D01*
X131950197Y-97298855D01*
X131950192Y-97298857D01*
X131777271Y-97375848D01*
X131686648Y-97441689D01*
X131620841Y-97465168D01*
X131552787Y-97449342D01*
X131540878Y-97441688D01*
X131422734Y-97355851D01*
X131422729Y-97355848D01*
X131249807Y-97278857D01*
X131249802Y-97278855D01*
X131104001Y-97247865D01*
X131064646Y-97239500D01*
X130875354Y-97239500D01*
X130842897Y-97246398D01*
X130690197Y-97278855D01*
X130690192Y-97278857D01*
X130517270Y-97355848D01*
X130517265Y-97355851D01*
X130364129Y-97467111D01*
X130237466Y-97607785D01*
X130142821Y-97771715D01*
X130142818Y-97771722D01*
X130084327Y-97951740D01*
X130084326Y-97951744D01*
X130064540Y-98140000D01*
X115270000Y-98140000D01*
X115270000Y-96732349D01*
X144822514Y-96732349D01*
X144842300Y-96920605D01*
X144842301Y-96920608D01*
X144900792Y-97100626D01*
X144900795Y-97100633D01*
X144995441Y-97264565D01*
X145026317Y-97298856D01*
X145122103Y-97405237D01*
X145275239Y-97516497D01*
X145275244Y-97516500D01*
X145448166Y-97593491D01*
X145448171Y-97593493D01*
X145633328Y-97632849D01*
X145633329Y-97632849D01*
X145822618Y-97632849D01*
X145822620Y-97632849D01*
X146007777Y-97593493D01*
X146180704Y-97516500D01*
X146333845Y-97405237D01*
X146460507Y-97264565D01*
X146555153Y-97100633D01*
X146613648Y-96920605D01*
X146633434Y-96732349D01*
X146613648Y-96544093D01*
X146555153Y-96364065D01*
X146460507Y-96200133D01*
X146333845Y-96059461D01*
X146333844Y-96059460D01*
X146180708Y-95948200D01*
X146180703Y-95948197D01*
X146007781Y-95871206D01*
X146007776Y-95871204D01*
X145861975Y-95840214D01*
X145822620Y-95831849D01*
X145633328Y-95831849D01*
X145600871Y-95838747D01*
X145448171Y-95871204D01*
X145448166Y-95871206D01*
X145275244Y-95948197D01*
X145275239Y-95948200D01*
X145122103Y-96059460D01*
X144995440Y-96200134D01*
X144900795Y-96364064D01*
X144900792Y-96364071D01*
X144842301Y-96544089D01*
X144842300Y-96544093D01*
X144822514Y-96732349D01*
X115270000Y-96732349D01*
X115270000Y-95457349D01*
X133850014Y-95457349D01*
X133869800Y-95645605D01*
X133869801Y-95645608D01*
X133928292Y-95825626D01*
X133928295Y-95825633D01*
X134022941Y-95989565D01*
X134085875Y-96059460D01*
X134149603Y-96130237D01*
X134302739Y-96241497D01*
X134302744Y-96241500D01*
X134475666Y-96318491D01*
X134475671Y-96318493D01*
X134660828Y-96357849D01*
X134660829Y-96357849D01*
X134850118Y-96357849D01*
X134850120Y-96357849D01*
X135035277Y-96318493D01*
X135208204Y-96241500D01*
X135361345Y-96130237D01*
X135488007Y-95989565D01*
X135582653Y-95825633D01*
X135641148Y-95645605D01*
X135660934Y-95457349D01*
X135641148Y-95269093D01*
X135582653Y-95089065D01*
X135488007Y-94925133D01*
X135361345Y-94784461D01*
X135361344Y-94784460D01*
X135208208Y-94673200D01*
X135208203Y-94673197D01*
X135035281Y-94596206D01*
X135035276Y-94596204D01*
X134889475Y-94565214D01*
X134850120Y-94556849D01*
X134660828Y-94556849D01*
X134628371Y-94563747D01*
X134475671Y-94596204D01*
X134475666Y-94596206D01*
X134302744Y-94673197D01*
X134302739Y-94673200D01*
X134149603Y-94784460D01*
X134022940Y-94925134D01*
X133928295Y-95089064D01*
X133928292Y-95089071D01*
X133869801Y-95269089D01*
X133869800Y-95269093D01*
X133850014Y-95457349D01*
X115270000Y-95457349D01*
X115270000Y-93410000D01*
X120784785Y-93410000D01*
X120803602Y-93613082D01*
X120859417Y-93809247D01*
X120859422Y-93809260D01*
X120950327Y-93991821D01*
X121073237Y-94154581D01*
X121223958Y-94291980D01*
X121223960Y-94291982D01*
X121288560Y-94331980D01*
X121397363Y-94399348D01*
X121587544Y-94473024D01*
X121788024Y-94510500D01*
X121788026Y-94510500D01*
X121991974Y-94510500D01*
X121991976Y-94510500D01*
X122192456Y-94473024D01*
X122382637Y-94399348D01*
X122556041Y-94291981D01*
X122706764Y-94154579D01*
X122829673Y-93991821D01*
X122915229Y-93820000D01*
X137924540Y-93820000D01*
X137944326Y-94008256D01*
X137944327Y-94008259D01*
X138002818Y-94188277D01*
X138002821Y-94188284D01*
X138097467Y-94352216D01*
X138206242Y-94473022D01*
X138224129Y-94492888D01*
X138377265Y-94604148D01*
X138377270Y-94604151D01*
X138550192Y-94681142D01*
X138550197Y-94681144D01*
X138735354Y-94720500D01*
X138735355Y-94720500D01*
X138924644Y-94720500D01*
X138924646Y-94720500D01*
X139109803Y-94681144D01*
X139282730Y-94604151D01*
X139370295Y-94540531D01*
X139436099Y-94517052D01*
X139504153Y-94532877D01*
X139550566Y-94578850D01*
X139602940Y-94669563D01*
X139602939Y-94669563D01*
X139729603Y-94810237D01*
X139882739Y-94921497D01*
X139882744Y-94921500D01*
X140055666Y-94998491D01*
X140055671Y-94998493D01*
X140240828Y-95037849D01*
X140240829Y-95037849D01*
X140430118Y-95037849D01*
X140430120Y-95037849D01*
X140615277Y-94998493D01*
X140788204Y-94921500D01*
X140941345Y-94810237D01*
X141068007Y-94669565D01*
X141162653Y-94505633D01*
X141221148Y-94325605D01*
X141240934Y-94137349D01*
X141221148Y-93949093D01*
X141162653Y-93769065D01*
X141068007Y-93605133D01*
X140941345Y-93464461D01*
X140941344Y-93464460D01*
X140788208Y-93353200D01*
X140788203Y-93353197D01*
X140615281Y-93276206D01*
X140615276Y-93276204D01*
X140469475Y-93245214D01*
X140430120Y-93236849D01*
X140240828Y-93236849D01*
X140208371Y-93243747D01*
X140055671Y-93276204D01*
X140055666Y-93276206D01*
X139882745Y-93353197D01*
X139795179Y-93416817D01*
X139729372Y-93440296D01*
X139661318Y-93424470D01*
X139614907Y-93378498D01*
X139562534Y-93287785D01*
X139489720Y-93206917D01*
X139454093Y-93167349D01*
X141600014Y-93167349D01*
X141619800Y-93355605D01*
X141619801Y-93355608D01*
X141678292Y-93535626D01*
X141678295Y-93535633D01*
X141772941Y-93699565D01*
X141899603Y-93840237D01*
X142052739Y-93951497D01*
X142052744Y-93951500D01*
X142225666Y-94028491D01*
X142225671Y-94028493D01*
X142410828Y-94067849D01*
X142410829Y-94067849D01*
X142600118Y-94067849D01*
X142600120Y-94067849D01*
X142785277Y-94028493D01*
X142958204Y-93951500D01*
X143111345Y-93840237D01*
X143238007Y-93699565D01*
X143332653Y-93535633D01*
X143360477Y-93450000D01*
X157474785Y-93450000D01*
X157493602Y-93653082D01*
X157549417Y-93849247D01*
X157549422Y-93849260D01*
X157640327Y-94031821D01*
X157763237Y-94194581D01*
X157913958Y-94331980D01*
X157913960Y-94331982D01*
X158013141Y-94393392D01*
X158087363Y-94439348D01*
X158277544Y-94513024D01*
X158478024Y-94550500D01*
X158478026Y-94550500D01*
X158681974Y-94550500D01*
X158681976Y-94550500D01*
X158882456Y-94513024D01*
X159072637Y-94439348D01*
X159246041Y-94331981D01*
X159396764Y-94194579D01*
X159519673Y-94031821D01*
X159610582Y-93849250D01*
X159666397Y-93653083D01*
X159685215Y-93450000D01*
X159681508Y-93409999D01*
X159666397Y-93246917D01*
X159655016Y-93206917D01*
X159610582Y-93050750D01*
X159603163Y-93035851D01*
X159564825Y-92958857D01*
X159519673Y-92868179D01*
X159396764Y-92705421D01*
X159396762Y-92705418D01*
X159246041Y-92568019D01*
X159246039Y-92568017D01*
X159072642Y-92460655D01*
X159072635Y-92460651D01*
X158969382Y-92420651D01*
X158882456Y-92386976D01*
X158681976Y-92349500D01*
X158478024Y-92349500D01*
X158277544Y-92386976D01*
X158277541Y-92386976D01*
X158277541Y-92386977D01*
X158087364Y-92460651D01*
X158087357Y-92460655D01*
X157913960Y-92568017D01*
X157913958Y-92568019D01*
X157763237Y-92705418D01*
X157640327Y-92868178D01*
X157549422Y-93050739D01*
X157549417Y-93050752D01*
X157493602Y-93246917D01*
X157474785Y-93449999D01*
X157474785Y-93450000D01*
X143360477Y-93450000D01*
X143391148Y-93355605D01*
X143410934Y-93167349D01*
X143391148Y-92979093D01*
X143332653Y-92799065D01*
X143238007Y-92635133D01*
X143111345Y-92494461D01*
X143064811Y-92460652D01*
X142958208Y-92383200D01*
X142958203Y-92383197D01*
X142785281Y-92306206D01*
X142785276Y-92306204D01*
X142639475Y-92275214D01*
X142600120Y-92266849D01*
X142410828Y-92266849D01*
X142378371Y-92273747D01*
X142225671Y-92306204D01*
X142225666Y-92306206D01*
X142052744Y-92383197D01*
X142052739Y-92383200D01*
X141899603Y-92494460D01*
X141772940Y-92635134D01*
X141678295Y-92799064D01*
X141678292Y-92799071D01*
X141626375Y-92958856D01*
X141619800Y-92979093D01*
X141600014Y-93167349D01*
X139454093Y-93167349D01*
X139435871Y-93147112D01*
X139435870Y-93147111D01*
X139282734Y-93035851D01*
X139282729Y-93035848D01*
X139109807Y-92958857D01*
X139109802Y-92958855D01*
X138964001Y-92927865D01*
X138924646Y-92919500D01*
X138735354Y-92919500D01*
X138702897Y-92926398D01*
X138550197Y-92958855D01*
X138550192Y-92958857D01*
X138377270Y-93035848D01*
X138377265Y-93035851D01*
X138224129Y-93147111D01*
X138097466Y-93287785D01*
X138002821Y-93451715D01*
X138002818Y-93451722D01*
X137950389Y-93613083D01*
X137944326Y-93631744D01*
X137924540Y-93820000D01*
X122915229Y-93820000D01*
X122920582Y-93809250D01*
X122976397Y-93613083D01*
X122995215Y-93410000D01*
X122976397Y-93206917D01*
X122920582Y-93010750D01*
X122829673Y-92828179D01*
X122736968Y-92705418D01*
X122706762Y-92665418D01*
X122556041Y-92528019D01*
X122556039Y-92528017D01*
X122382642Y-92420655D01*
X122382635Y-92420651D01*
X122198971Y-92349500D01*
X122192456Y-92346976D01*
X121991976Y-92309500D01*
X121788024Y-92309500D01*
X121587544Y-92346976D01*
X121587541Y-92346976D01*
X121587541Y-92346977D01*
X121397364Y-92420651D01*
X121397357Y-92420655D01*
X121223960Y-92528017D01*
X121223958Y-92528019D01*
X121073237Y-92665418D01*
X120950327Y-92828178D01*
X120859422Y-93010739D01*
X120859417Y-93010752D01*
X120803602Y-93206917D01*
X120784785Y-93409999D01*
X120784785Y-93410000D01*
X115270000Y-93410000D01*
X115270000Y-92134600D01*
X146309140Y-92134600D01*
X146328926Y-92322856D01*
X146328927Y-92322859D01*
X146387418Y-92502877D01*
X146387421Y-92502884D01*
X146482067Y-92666816D01*
X146601144Y-92799064D01*
X146608729Y-92807488D01*
X146761865Y-92918748D01*
X146761870Y-92918751D01*
X146934792Y-92995742D01*
X146934797Y-92995744D01*
X147119954Y-93035100D01*
X147119955Y-93035100D01*
X147309244Y-93035100D01*
X147309246Y-93035100D01*
X147494403Y-92995744D01*
X147667330Y-92918751D01*
X147820471Y-92807488D01*
X147947133Y-92666816D01*
X148041779Y-92502884D01*
X148100274Y-92322856D01*
X148120060Y-92134600D01*
X148100274Y-91946344D01*
X148041779Y-91766316D01*
X147947133Y-91602384D01*
X147820471Y-91461712D01*
X147820470Y-91461711D01*
X147667334Y-91350451D01*
X147667329Y-91350448D01*
X147494407Y-91273457D01*
X147494402Y-91273455D01*
X147348601Y-91242465D01*
X147309246Y-91234100D01*
X147119954Y-91234100D01*
X147087497Y-91240998D01*
X146934797Y-91273455D01*
X146934792Y-91273457D01*
X146761870Y-91350448D01*
X146761865Y-91350451D01*
X146608729Y-91461711D01*
X146482066Y-91602385D01*
X146387421Y-91766315D01*
X146387418Y-91766322D01*
X146328927Y-91946340D01*
X146328926Y-91946344D01*
X146309140Y-92134600D01*
X115270000Y-92134600D01*
X115270000Y-90817349D01*
X141772514Y-90817349D01*
X141792300Y-91005605D01*
X141792301Y-91005608D01*
X141850792Y-91185626D01*
X141850795Y-91185633D01*
X141945441Y-91349565D01*
X142046418Y-91461711D01*
X142072103Y-91490237D01*
X142225239Y-91601497D01*
X142225244Y-91601500D01*
X142398166Y-91678491D01*
X142398171Y-91678493D01*
X142583328Y-91717849D01*
X142583329Y-91717849D01*
X142772618Y-91717849D01*
X142772620Y-91717849D01*
X142957777Y-91678493D01*
X143130704Y-91601500D01*
X143283845Y-91490237D01*
X143410507Y-91349565D01*
X143505153Y-91185633D01*
X143563648Y-91005605D01*
X143583434Y-90817349D01*
X143563648Y-90629093D01*
X143505153Y-90449065D01*
X143410507Y-90285133D01*
X143283845Y-90144461D01*
X143283844Y-90144460D01*
X143130708Y-90033200D01*
X143130703Y-90033197D01*
X142957781Y-89956206D01*
X142957776Y-89956204D01*
X142811975Y-89925214D01*
X142772620Y-89916849D01*
X142583328Y-89916849D01*
X142550871Y-89923747D01*
X142398171Y-89956204D01*
X142398166Y-89956206D01*
X142225244Y-90033197D01*
X142225239Y-90033200D01*
X142072103Y-90144460D01*
X141945440Y-90285134D01*
X141850795Y-90449064D01*
X141850792Y-90449071D01*
X141792301Y-90629089D01*
X141792300Y-90629093D01*
X141772514Y-90817349D01*
X115270000Y-90817349D01*
X115270000Y-89421800D01*
X120932740Y-89421800D01*
X120952526Y-89610056D01*
X120952527Y-89610059D01*
X121011018Y-89790077D01*
X121011021Y-89790084D01*
X121105667Y-89954016D01*
X121176962Y-90033197D01*
X121232329Y-90094688D01*
X121385465Y-90205948D01*
X121385470Y-90205951D01*
X121558392Y-90282942D01*
X121558397Y-90282944D01*
X121743554Y-90322300D01*
X121743555Y-90322300D01*
X121932844Y-90322300D01*
X121932846Y-90322300D01*
X122118003Y-90282944D01*
X122290930Y-90205951D01*
X122444071Y-90094688D01*
X122570733Y-89954016D01*
X122665379Y-89790084D01*
X122723874Y-89610056D01*
X122731763Y-89535000D01*
X134729540Y-89535000D01*
X134749326Y-89723256D01*
X134749327Y-89723259D01*
X134807818Y-89903277D01*
X134807821Y-89903284D01*
X134902467Y-90067216D01*
X134972018Y-90144460D01*
X135029129Y-90207888D01*
X135182265Y-90319148D01*
X135182270Y-90319151D01*
X135355192Y-90396142D01*
X135355197Y-90396144D01*
X135540354Y-90435500D01*
X135540355Y-90435500D01*
X135729644Y-90435500D01*
X135729646Y-90435500D01*
X135914803Y-90396144D01*
X136087730Y-90319151D01*
X136240871Y-90207888D01*
X136367533Y-90067216D01*
X136462179Y-89903284D01*
X136520674Y-89723256D01*
X136540460Y-89535000D01*
X136520674Y-89346744D01*
X136462179Y-89166716D01*
X136367533Y-89002784D01*
X136240871Y-88862112D01*
X136182909Y-88820000D01*
X136087734Y-88750851D01*
X136087729Y-88750848D01*
X135914807Y-88673857D01*
X135914802Y-88673855D01*
X135744470Y-88637651D01*
X135729646Y-88634500D01*
X135540354Y-88634500D01*
X135525530Y-88637651D01*
X135355197Y-88673855D01*
X135355192Y-88673857D01*
X135182270Y-88750848D01*
X135182265Y-88750851D01*
X135029129Y-88862111D01*
X134902466Y-89002785D01*
X134807821Y-89166715D01*
X134807818Y-89166722D01*
X134749327Y-89346740D01*
X134749326Y-89346744D01*
X134729540Y-89535000D01*
X122731763Y-89535000D01*
X122743660Y-89421800D01*
X122723874Y-89233544D01*
X122665379Y-89053516D01*
X122570733Y-88889584D01*
X122444071Y-88748912D01*
X122444070Y-88748911D01*
X122290934Y-88637651D01*
X122290929Y-88637648D01*
X122118007Y-88560657D01*
X122118002Y-88560655D01*
X121972201Y-88529665D01*
X121932846Y-88521300D01*
X121743554Y-88521300D01*
X121711097Y-88528198D01*
X121558397Y-88560655D01*
X121558392Y-88560657D01*
X121385470Y-88637648D01*
X121385465Y-88637651D01*
X121232329Y-88748911D01*
X121105666Y-88889585D01*
X121011021Y-89053515D01*
X121011018Y-89053522D01*
X120962076Y-89204151D01*
X120952526Y-89233544D01*
X120932740Y-89421800D01*
X115270000Y-89421800D01*
X115270000Y-85450000D01*
X120874540Y-85450000D01*
X120894326Y-85638256D01*
X120894327Y-85638259D01*
X120952818Y-85818277D01*
X120952821Y-85818284D01*
X121047467Y-85982216D01*
X121173095Y-86121740D01*
X121174129Y-86122888D01*
X121327265Y-86234148D01*
X121327270Y-86234151D01*
X121500192Y-86311142D01*
X121500197Y-86311144D01*
X121685354Y-86350500D01*
X121685355Y-86350500D01*
X121874644Y-86350500D01*
X121874646Y-86350500D01*
X122059803Y-86311144D01*
X122232730Y-86234151D01*
X122385871Y-86122888D01*
X122469508Y-86030000D01*
X137514341Y-86030000D01*
X137534936Y-86265403D01*
X137534938Y-86265413D01*
X137596094Y-86493655D01*
X137596096Y-86493659D01*
X137596097Y-86493663D01*
X137690703Y-86696546D01*
X137695965Y-86707830D01*
X137695967Y-86707834D01*
X137790062Y-86842214D01*
X137831501Y-86901396D01*
X137831506Y-86901402D01*
X137998597Y-87068493D01*
X137998603Y-87068498D01*
X138184594Y-87198730D01*
X138228219Y-87253307D01*
X138235413Y-87322805D01*
X138203890Y-87385160D01*
X138184595Y-87401880D01*
X137998922Y-87531890D01*
X137998920Y-87531891D01*
X137831891Y-87698920D01*
X137831886Y-87698926D01*
X137696400Y-87892420D01*
X137696399Y-87892422D01*
X137596570Y-88106507D01*
X137596567Y-88106513D01*
X137539364Y-88319999D01*
X137539364Y-88320000D01*
X138436988Y-88320000D01*
X138404075Y-88377007D01*
X138370000Y-88504174D01*
X138370000Y-88635826D01*
X138404075Y-88762993D01*
X138436988Y-88820000D01*
X137539364Y-88820000D01*
X137596567Y-89033486D01*
X137596570Y-89033492D01*
X137696399Y-89247578D01*
X137831894Y-89441082D01*
X137998917Y-89608105D01*
X138192421Y-89743600D01*
X138406507Y-89843429D01*
X138406516Y-89843433D01*
X138620000Y-89900634D01*
X138620000Y-89003012D01*
X138677007Y-89035925D01*
X138804174Y-89070000D01*
X138935826Y-89070000D01*
X139062993Y-89035925D01*
X139120000Y-89003012D01*
X139120000Y-89900633D01*
X139333483Y-89843433D01*
X139333492Y-89843429D01*
X139547578Y-89743600D01*
X139741082Y-89608105D01*
X139908105Y-89441082D01*
X140038425Y-89254968D01*
X140093002Y-89211344D01*
X140162501Y-89204151D01*
X140224855Y-89235673D01*
X140241575Y-89254968D01*
X140371894Y-89441082D01*
X140538917Y-89608105D01*
X140732421Y-89743600D01*
X140946507Y-89843429D01*
X140946516Y-89843433D01*
X141160000Y-89900634D01*
X141160000Y-89003012D01*
X141217007Y-89035925D01*
X141344174Y-89070000D01*
X141475826Y-89070000D01*
X141602993Y-89035925D01*
X141660000Y-89003012D01*
X141660000Y-89900633D01*
X141873483Y-89843433D01*
X141873492Y-89843429D01*
X142087578Y-89743600D01*
X142281082Y-89608105D01*
X142448105Y-89441082D01*
X142470149Y-89409600D01*
X148544140Y-89409600D01*
X148563926Y-89597856D01*
X148563927Y-89597859D01*
X148622418Y-89777877D01*
X148622421Y-89777884D01*
X148717067Y-89941816D01*
X148799347Y-90033197D01*
X148843729Y-90082488D01*
X148996865Y-90193748D01*
X148996870Y-90193751D01*
X149169792Y-90270742D01*
X149169797Y-90270744D01*
X149354954Y-90310100D01*
X149354955Y-90310100D01*
X149544244Y-90310100D01*
X149544246Y-90310100D01*
X149729403Y-90270744D01*
X149902330Y-90193751D01*
X150055471Y-90082488D01*
X150182133Y-89941816D01*
X150276779Y-89777884D01*
X150335274Y-89597856D01*
X150351865Y-89440000D01*
X157674540Y-89440000D01*
X157694326Y-89628256D01*
X157694327Y-89628259D01*
X157752818Y-89808277D01*
X157752821Y-89808284D01*
X157847467Y-89972216D01*
X157933004Y-90067214D01*
X157974129Y-90112888D01*
X158127265Y-90224148D01*
X158127270Y-90224151D01*
X158300192Y-90301142D01*
X158300197Y-90301144D01*
X158485354Y-90340500D01*
X158485355Y-90340500D01*
X158674644Y-90340500D01*
X158674646Y-90340500D01*
X158859803Y-90301144D01*
X159032730Y-90224151D01*
X159185871Y-90112888D01*
X159312533Y-89972216D01*
X159407179Y-89808284D01*
X159465674Y-89628256D01*
X159485460Y-89440000D01*
X159465674Y-89251744D01*
X159407179Y-89071716D01*
X159312533Y-88907784D01*
X159185871Y-88767112D01*
X159163487Y-88750849D01*
X159032734Y-88655851D01*
X159032729Y-88655848D01*
X158859807Y-88578857D01*
X158859802Y-88578855D01*
X158714001Y-88547865D01*
X158674646Y-88539500D01*
X158485354Y-88539500D01*
X158452897Y-88546398D01*
X158300197Y-88578855D01*
X158300192Y-88578857D01*
X158127270Y-88655848D01*
X158127265Y-88655851D01*
X157974129Y-88767111D01*
X157847466Y-88907785D01*
X157752821Y-89071715D01*
X157752818Y-89071722D01*
X157694327Y-89251740D01*
X157694326Y-89251744D01*
X157674540Y-89440000D01*
X150351865Y-89440000D01*
X150355060Y-89409600D01*
X150335274Y-89221344D01*
X150276779Y-89041316D01*
X150182133Y-88877384D01*
X150055471Y-88736712D01*
X150055470Y-88736711D01*
X149902334Y-88625451D01*
X149902329Y-88625448D01*
X149729407Y-88548457D01*
X149729402Y-88548455D01*
X149583601Y-88517465D01*
X149544246Y-88509100D01*
X149354954Y-88509100D01*
X149322497Y-88515998D01*
X149169797Y-88548455D01*
X149169792Y-88548457D01*
X148996870Y-88625448D01*
X148996865Y-88625451D01*
X148843729Y-88736711D01*
X148717066Y-88877385D01*
X148622421Y-89041315D01*
X148622418Y-89041322D01*
X148569512Y-89204151D01*
X148563926Y-89221344D01*
X148544140Y-89409600D01*
X142470149Y-89409600D01*
X142583600Y-89247578D01*
X142683429Y-89033492D01*
X142683432Y-89033486D01*
X142740636Y-88820000D01*
X141843012Y-88820000D01*
X141875925Y-88762993D01*
X141910000Y-88635826D01*
X141910000Y-88504174D01*
X141875925Y-88377007D01*
X141843012Y-88320000D01*
X142740636Y-88320000D01*
X142740635Y-88319999D01*
X142683432Y-88106513D01*
X142683429Y-88106507D01*
X142583600Y-87892422D01*
X142583599Y-87892420D01*
X142448113Y-87698926D01*
X142448108Y-87698920D01*
X142281078Y-87531890D01*
X142095405Y-87401879D01*
X142051780Y-87347302D01*
X142044588Y-87277804D01*
X142076110Y-87215449D01*
X142095406Y-87198730D01*
X142244760Y-87094151D01*
X142281401Y-87068495D01*
X142448495Y-86901401D01*
X142584035Y-86707830D01*
X142683903Y-86493663D01*
X142733115Y-86310000D01*
X145954540Y-86310000D01*
X145974326Y-86498256D01*
X145974327Y-86498259D01*
X146032818Y-86678277D01*
X146032821Y-86678284D01*
X146127467Y-86842216D01*
X146254129Y-86982888D01*
X146407265Y-87094148D01*
X146407270Y-87094151D01*
X146580192Y-87171142D01*
X146580197Y-87171144D01*
X146765354Y-87210500D01*
X146765355Y-87210500D01*
X146954644Y-87210500D01*
X146954646Y-87210500D01*
X147139803Y-87171144D01*
X147312730Y-87094151D01*
X147465871Y-86982888D01*
X147592533Y-86842216D01*
X147687179Y-86678284D01*
X147745674Y-86498256D01*
X147765460Y-86310000D01*
X147745674Y-86121744D01*
X147687179Y-85941716D01*
X147592533Y-85777784D01*
X147465871Y-85637112D01*
X147465870Y-85637111D01*
X147312734Y-85525851D01*
X147312729Y-85525848D01*
X147139807Y-85448857D01*
X147139802Y-85448855D01*
X146994001Y-85417865D01*
X146954646Y-85409500D01*
X146765354Y-85409500D01*
X146732897Y-85416398D01*
X146580197Y-85448855D01*
X146580192Y-85448857D01*
X146407270Y-85525848D01*
X146407265Y-85525851D01*
X146254129Y-85637111D01*
X146127466Y-85777785D01*
X146032821Y-85941715D01*
X146032818Y-85941722D01*
X145974327Y-86121740D01*
X145974326Y-86121744D01*
X145954540Y-86310000D01*
X142733115Y-86310000D01*
X142745063Y-86265408D01*
X142765659Y-86030000D01*
X142745063Y-85794592D01*
X142683903Y-85566337D01*
X142584035Y-85352171D01*
X142578425Y-85344158D01*
X142448494Y-85158597D01*
X142281402Y-84991506D01*
X142281396Y-84991501D01*
X142095842Y-84861575D01*
X142052217Y-84806998D01*
X142045023Y-84737500D01*
X142076546Y-84675145D01*
X142095842Y-84658425D01*
X142195195Y-84588857D01*
X142281401Y-84528495D01*
X142448495Y-84361401D01*
X142584035Y-84167830D01*
X142683903Y-83953663D01*
X142745063Y-83725408D01*
X142765659Y-83490000D01*
X142756910Y-83390000D01*
X148574540Y-83390000D01*
X148594326Y-83578256D01*
X148594327Y-83578259D01*
X148652818Y-83758277D01*
X148652821Y-83758284D01*
X148747467Y-83922216D01*
X148783318Y-83962032D01*
X148874129Y-84062888D01*
X149027265Y-84174148D01*
X149027270Y-84174151D01*
X149200192Y-84251142D01*
X149200197Y-84251144D01*
X149385354Y-84290500D01*
X149385355Y-84290500D01*
X149574644Y-84290500D01*
X149574646Y-84290500D01*
X149759803Y-84251144D01*
X149932730Y-84174151D01*
X150085871Y-84062888D01*
X150212533Y-83922216D01*
X150307179Y-83758284D01*
X150365674Y-83578256D01*
X150385460Y-83390000D01*
X150365674Y-83201744D01*
X150307179Y-83021716D01*
X150212533Y-82857784D01*
X150085871Y-82717112D01*
X150085870Y-82717111D01*
X149932734Y-82605851D01*
X149932729Y-82605848D01*
X149759807Y-82528857D01*
X149759243Y-82528674D01*
X149758958Y-82528479D01*
X149753866Y-82526212D01*
X149754280Y-82525280D01*
X149701568Y-82489236D01*
X149674370Y-82424877D01*
X149683867Y-82370000D01*
X160034540Y-82370000D01*
X160054326Y-82558256D01*
X160054327Y-82558259D01*
X160112818Y-82738277D01*
X160112821Y-82738284D01*
X160207467Y-82902216D01*
X160297063Y-83001722D01*
X160334129Y-83042888D01*
X160487265Y-83154148D01*
X160487270Y-83154151D01*
X160660192Y-83231142D01*
X160660197Y-83231144D01*
X160845354Y-83270500D01*
X160845355Y-83270500D01*
X161034644Y-83270500D01*
X161034646Y-83270500D01*
X161219803Y-83231144D01*
X161392730Y-83154151D01*
X161545871Y-83042888D01*
X161672533Y-82902216D01*
X161767179Y-82738284D01*
X161825674Y-82558256D01*
X161845460Y-82370000D01*
X161842051Y-82337567D01*
X161854618Y-82268838D01*
X161902349Y-82217813D01*
X161939587Y-82203315D01*
X161949803Y-82201144D01*
X161957988Y-82197500D01*
X162098037Y-82135145D01*
X162122730Y-82124151D01*
X162275871Y-82012888D01*
X162402533Y-81872216D01*
X162497179Y-81708284D01*
X162555674Y-81528256D01*
X162575460Y-81340000D01*
X162555674Y-81151744D01*
X162497179Y-80971716D01*
X162402533Y-80807784D01*
X162275871Y-80667112D01*
X162275870Y-80667111D01*
X162122734Y-80555851D01*
X162122729Y-80555848D01*
X161949807Y-80478857D01*
X161949802Y-80478855D01*
X161804001Y-80447865D01*
X161764646Y-80439500D01*
X161575354Y-80439500D01*
X161542897Y-80446398D01*
X161390197Y-80478855D01*
X161390192Y-80478857D01*
X161217270Y-80555848D01*
X161217265Y-80555851D01*
X161064129Y-80667111D01*
X160937466Y-80807785D01*
X160842821Y-80971715D01*
X160842818Y-80971722D01*
X160784327Y-81151740D01*
X160784326Y-81151744D01*
X160777011Y-81221344D01*
X160764540Y-81340000D01*
X160767949Y-81372434D01*
X160755379Y-81441164D01*
X160707647Y-81492187D01*
X160670410Y-81506685D01*
X160660196Y-81508856D01*
X160660192Y-81508857D01*
X160487270Y-81585848D01*
X160487265Y-81585851D01*
X160334129Y-81697111D01*
X160207466Y-81837785D01*
X160112821Y-82001715D01*
X160112818Y-82001722D01*
X160073040Y-82124148D01*
X160054326Y-82181744D01*
X160034540Y-82370000D01*
X149683867Y-82370000D01*
X149686285Y-82356031D01*
X149733529Y-82304555D01*
X149771774Y-82289454D01*
X149859803Y-82270744D01*
X149859807Y-82270742D01*
X149859808Y-82270742D01*
X149923239Y-82242500D01*
X150032730Y-82193751D01*
X150185871Y-82082488D01*
X150312533Y-81941816D01*
X150407179Y-81777884D01*
X150465674Y-81597856D01*
X150485460Y-81409600D01*
X157222340Y-81409600D01*
X157242126Y-81597856D01*
X157242127Y-81597859D01*
X157300618Y-81777877D01*
X157300621Y-81777884D01*
X157395267Y-81941816D01*
X157449207Y-82001722D01*
X157521929Y-82082488D01*
X157675065Y-82193748D01*
X157675070Y-82193751D01*
X157847992Y-82270742D01*
X157847997Y-82270744D01*
X158033154Y-82310100D01*
X158033155Y-82310100D01*
X158222444Y-82310100D01*
X158222446Y-82310100D01*
X158407603Y-82270744D01*
X158580530Y-82193751D01*
X158733671Y-82082488D01*
X158860333Y-81941816D01*
X158954979Y-81777884D01*
X159013474Y-81597856D01*
X159033260Y-81409600D01*
X159013474Y-81221344D01*
X158954979Y-81041316D01*
X158860333Y-80877384D01*
X158733671Y-80736712D01*
X158703231Y-80714596D01*
X158580534Y-80625451D01*
X158580529Y-80625448D01*
X158407607Y-80548457D01*
X158407602Y-80548455D01*
X158261801Y-80517465D01*
X158222446Y-80509100D01*
X158033154Y-80509100D01*
X158000697Y-80515998D01*
X157847997Y-80548455D01*
X157847992Y-80548457D01*
X157675070Y-80625448D01*
X157675065Y-80625451D01*
X157521929Y-80736711D01*
X157395266Y-80877385D01*
X157300621Y-81041315D01*
X157300618Y-81041322D01*
X157242127Y-81221340D01*
X157242126Y-81221344D01*
X157222340Y-81409600D01*
X150485460Y-81409600D01*
X150465674Y-81221344D01*
X150407179Y-81041316D01*
X150312533Y-80877384D01*
X150185871Y-80736712D01*
X150155431Y-80714596D01*
X150032734Y-80625451D01*
X150032729Y-80625448D01*
X149859807Y-80548457D01*
X149859802Y-80548455D01*
X149714001Y-80517465D01*
X149674646Y-80509100D01*
X149485354Y-80509100D01*
X149452897Y-80515998D01*
X149300197Y-80548455D01*
X149300192Y-80548457D01*
X149127270Y-80625448D01*
X149127265Y-80625451D01*
X148974129Y-80736711D01*
X148847466Y-80877385D01*
X148752821Y-81041315D01*
X148752818Y-81041322D01*
X148694327Y-81221340D01*
X148694326Y-81221344D01*
X148674540Y-81409600D01*
X148694326Y-81597856D01*
X148694327Y-81597859D01*
X148752818Y-81777877D01*
X148752821Y-81777884D01*
X148847467Y-81941816D01*
X148901407Y-82001722D01*
X148974129Y-82082488D01*
X149127265Y-82193748D01*
X149127270Y-82193751D01*
X149300191Y-82270742D01*
X149300745Y-82270922D01*
X149301024Y-82271113D01*
X149306134Y-82273388D01*
X149305718Y-82274321D01*
X149358424Y-82310354D01*
X149385628Y-82374711D01*
X149373719Y-82443558D01*
X149326479Y-82495038D01*
X149288218Y-82510146D01*
X149200197Y-82528855D01*
X149200192Y-82528857D01*
X149027270Y-82605848D01*
X149027265Y-82605851D01*
X148874129Y-82717111D01*
X148747466Y-82857785D01*
X148652821Y-83021715D01*
X148652818Y-83021722D01*
X148600824Y-83181744D01*
X148594326Y-83201744D01*
X148574540Y-83390000D01*
X142756910Y-83390000D01*
X142745063Y-83254592D01*
X142683903Y-83026337D01*
X142584035Y-82812171D01*
X142578425Y-82804158D01*
X142448494Y-82618597D01*
X142281402Y-82451506D01*
X142281396Y-82451501D01*
X142095842Y-82321575D01*
X142052217Y-82266998D01*
X142045023Y-82197500D01*
X142076546Y-82135145D01*
X142095842Y-82118425D01*
X142246564Y-82012888D01*
X142281401Y-81988495D01*
X142448495Y-81821401D01*
X142584035Y-81627830D01*
X142683903Y-81413663D01*
X142745063Y-81185408D01*
X142765659Y-80950000D01*
X142745063Y-80714592D01*
X142683903Y-80486337D01*
X142584035Y-80272171D01*
X142578425Y-80264158D01*
X142448494Y-80078597D01*
X142281402Y-79911506D01*
X142281396Y-79911501D01*
X142095842Y-79781575D01*
X142052217Y-79726998D01*
X142045023Y-79657500D01*
X142076546Y-79595145D01*
X142095842Y-79578425D01*
X142118026Y-79562891D01*
X142281401Y-79448495D01*
X142448495Y-79281401D01*
X142584035Y-79087830D01*
X142683903Y-78873663D01*
X142745063Y-78645408D01*
X142765659Y-78410000D01*
X142745063Y-78174592D01*
X142683903Y-77946337D01*
X142584035Y-77732171D01*
X142578425Y-77724158D01*
X142448494Y-77538597D01*
X142281402Y-77371506D01*
X142281396Y-77371501D01*
X142095842Y-77241575D01*
X142052217Y-77186998D01*
X142045023Y-77117500D01*
X142076546Y-77055145D01*
X142095842Y-77038425D01*
X142118026Y-77022891D01*
X142281401Y-76908495D01*
X142448495Y-76741401D01*
X142584035Y-76547830D01*
X142683903Y-76333663D01*
X142745063Y-76105408D01*
X142765659Y-75870000D01*
X142745063Y-75634592D01*
X142683903Y-75406337D01*
X142584035Y-75192171D01*
X142448495Y-74998599D01*
X142448494Y-74998597D01*
X142281402Y-74831506D01*
X142281395Y-74831501D01*
X142087834Y-74695967D01*
X142087830Y-74695965D01*
X142087828Y-74695964D01*
X141873663Y-74596097D01*
X141873659Y-74596096D01*
X141873655Y-74596094D01*
X141645413Y-74534938D01*
X141645403Y-74534936D01*
X141410001Y-74514341D01*
X141409999Y-74514341D01*
X141174596Y-74534936D01*
X141174586Y-74534938D01*
X140946344Y-74596094D01*
X140946335Y-74596098D01*
X140732171Y-74695964D01*
X140732169Y-74695965D01*
X140538600Y-74831503D01*
X140416673Y-74953430D01*
X140355350Y-74986914D01*
X140285658Y-74981930D01*
X140229725Y-74940058D01*
X140212810Y-74909081D01*
X140163797Y-74777671D01*
X140163793Y-74777664D01*
X140077547Y-74662455D01*
X140077544Y-74662452D01*
X139962335Y-74576206D01*
X139962328Y-74576202D01*
X139827482Y-74525908D01*
X139827483Y-74525908D01*
X139767883Y-74519501D01*
X139767881Y-74519500D01*
X139767873Y-74519500D01*
X139767864Y-74519500D01*
X137972129Y-74519500D01*
X137972123Y-74519501D01*
X137912516Y-74525908D01*
X137777671Y-74576202D01*
X137777664Y-74576206D01*
X137662455Y-74662452D01*
X137662452Y-74662455D01*
X137576206Y-74777664D01*
X137576202Y-74777671D01*
X137525908Y-74912517D01*
X137519501Y-74972116D01*
X137519500Y-74972135D01*
X137519500Y-76767870D01*
X137519501Y-76767876D01*
X137525908Y-76827483D01*
X137576202Y-76962328D01*
X137576206Y-76962335D01*
X137662452Y-77077544D01*
X137662455Y-77077547D01*
X137777664Y-77163793D01*
X137777671Y-77163797D01*
X137909081Y-77212810D01*
X137965015Y-77254681D01*
X137989432Y-77320145D01*
X137974580Y-77388418D01*
X137953430Y-77416673D01*
X137831503Y-77538600D01*
X137695965Y-77732169D01*
X137695964Y-77732171D01*
X137596098Y-77946335D01*
X137596094Y-77946344D01*
X137534938Y-78174586D01*
X137534936Y-78174596D01*
X137514341Y-78409999D01*
X137514341Y-78410000D01*
X137534936Y-78645403D01*
X137534938Y-78645413D01*
X137596094Y-78873655D01*
X137596096Y-78873659D01*
X137596097Y-78873663D01*
X137600000Y-78882032D01*
X137695965Y-79087830D01*
X137695967Y-79087834D01*
X137804281Y-79242521D01*
X137831501Y-79281396D01*
X137831506Y-79281402D01*
X137998597Y-79448493D01*
X137998603Y-79448498D01*
X138184158Y-79578425D01*
X138227783Y-79633002D01*
X138234977Y-79702500D01*
X138203454Y-79764855D01*
X138184158Y-79781575D01*
X137998597Y-79911505D01*
X137831505Y-80078597D01*
X137695965Y-80272169D01*
X137695964Y-80272171D01*
X137602401Y-80472816D01*
X137599586Y-80478856D01*
X137596098Y-80486335D01*
X137596094Y-80486344D01*
X137534938Y-80714586D01*
X137534936Y-80714596D01*
X137514341Y-80949999D01*
X137514341Y-80950000D01*
X137534936Y-81185403D01*
X137534938Y-81185413D01*
X137596094Y-81413655D01*
X137596096Y-81413659D01*
X137596097Y-81413663D01*
X137676389Y-81585849D01*
X137695965Y-81627830D01*
X137695967Y-81627834D01*
X137801029Y-81777877D01*
X137831501Y-81821396D01*
X137831506Y-81821402D01*
X137998597Y-81988493D01*
X137998603Y-81988498D01*
X138184158Y-82118425D01*
X138227783Y-82173002D01*
X138234977Y-82242500D01*
X138203454Y-82304855D01*
X138184158Y-82321575D01*
X137998597Y-82451505D01*
X137831505Y-82618597D01*
X137695965Y-82812169D01*
X137695964Y-82812171D01*
X137596098Y-83026335D01*
X137596094Y-83026344D01*
X137534938Y-83254586D01*
X137534936Y-83254596D01*
X137514341Y-83489999D01*
X137514341Y-83490000D01*
X137534936Y-83725403D01*
X137534938Y-83725413D01*
X137596094Y-83953655D01*
X137596096Y-83953659D01*
X137596097Y-83953663D01*
X137647030Y-84062888D01*
X137695965Y-84167830D01*
X137695967Y-84167834D01*
X137804281Y-84322521D01*
X137831501Y-84361396D01*
X137831506Y-84361402D01*
X137998597Y-84528493D01*
X137998603Y-84528498D01*
X138184158Y-84658425D01*
X138227783Y-84713002D01*
X138234977Y-84782500D01*
X138203454Y-84844855D01*
X138184158Y-84861575D01*
X137998597Y-84991505D01*
X137831505Y-85158597D01*
X137695965Y-85352169D01*
X137695964Y-85352171D01*
X137596098Y-85566335D01*
X137596094Y-85566344D01*
X137534938Y-85794586D01*
X137534936Y-85794596D01*
X137514341Y-86029999D01*
X137514341Y-86030000D01*
X122469508Y-86030000D01*
X122512533Y-85982216D01*
X122607179Y-85818284D01*
X122665674Y-85638256D01*
X122685460Y-85450000D01*
X122665674Y-85261744D01*
X122607179Y-85081716D01*
X122512533Y-84917784D01*
X122385871Y-84777112D01*
X122385870Y-84777111D01*
X122232734Y-84665851D01*
X122232729Y-84665848D01*
X122059807Y-84588857D01*
X122059802Y-84588855D01*
X121914001Y-84557865D01*
X121874646Y-84549500D01*
X121685354Y-84549500D01*
X121652897Y-84556398D01*
X121500197Y-84588855D01*
X121500192Y-84588857D01*
X121327270Y-84665848D01*
X121327265Y-84665851D01*
X121174129Y-84777111D01*
X121047466Y-84917785D01*
X120952821Y-85081715D01*
X120952818Y-85081722D01*
X120894327Y-85261740D01*
X120894326Y-85261744D01*
X120874540Y-85450000D01*
X115270000Y-85450000D01*
X115270000Y-84330000D01*
X133014540Y-84330000D01*
X133034326Y-84518256D01*
X133034327Y-84518259D01*
X133092818Y-84698277D01*
X133092821Y-84698284D01*
X133187467Y-84862216D01*
X133237501Y-84917784D01*
X133314129Y-85002888D01*
X133467265Y-85114148D01*
X133467270Y-85114151D01*
X133640192Y-85191142D01*
X133640197Y-85191144D01*
X133825354Y-85230500D01*
X133825355Y-85230500D01*
X134014644Y-85230500D01*
X134014646Y-85230500D01*
X134199803Y-85191144D01*
X134372730Y-85114151D01*
X134525871Y-85002888D01*
X134652533Y-84862216D01*
X134747179Y-84698284D01*
X134805674Y-84518256D01*
X134825460Y-84330000D01*
X134805674Y-84141744D01*
X134747179Y-83961716D01*
X134652533Y-83797784D01*
X134525871Y-83657112D01*
X134525870Y-83657111D01*
X134372734Y-83545851D01*
X134372729Y-83545848D01*
X134199807Y-83468857D01*
X134199802Y-83468855D01*
X134054001Y-83437865D01*
X134014646Y-83429500D01*
X133825354Y-83429500D01*
X133792897Y-83436398D01*
X133640197Y-83468855D01*
X133640192Y-83468857D01*
X133467270Y-83545848D01*
X133467265Y-83545851D01*
X133314129Y-83657111D01*
X133187466Y-83797785D01*
X133092821Y-83961715D01*
X133092818Y-83961722D01*
X133034327Y-84141740D01*
X133034326Y-84141744D01*
X133014540Y-84330000D01*
X115270000Y-84330000D01*
X115270000Y-83370000D01*
X130754540Y-83370000D01*
X130774326Y-83558256D01*
X130774327Y-83558259D01*
X130832818Y-83738277D01*
X130832821Y-83738284D01*
X130927467Y-83902216D01*
X130981047Y-83961722D01*
X131054129Y-84042888D01*
X131207265Y-84154148D01*
X131207270Y-84154151D01*
X131380192Y-84231142D01*
X131380197Y-84231144D01*
X131565354Y-84270500D01*
X131565355Y-84270500D01*
X131754644Y-84270500D01*
X131754646Y-84270500D01*
X131939803Y-84231144D01*
X132112730Y-84154151D01*
X132265871Y-84042888D01*
X132392533Y-83902216D01*
X132487179Y-83738284D01*
X132545674Y-83558256D01*
X132565460Y-83370000D01*
X132545674Y-83181744D01*
X132487179Y-83001716D01*
X132392533Y-82837784D01*
X132265871Y-82697112D01*
X132265870Y-82697111D01*
X132112734Y-82585851D01*
X132112729Y-82585848D01*
X131939807Y-82508857D01*
X131939802Y-82508855D01*
X131794001Y-82477865D01*
X131754646Y-82469500D01*
X131565354Y-82469500D01*
X131532897Y-82476398D01*
X131380197Y-82508855D01*
X131380192Y-82508857D01*
X131207270Y-82585848D01*
X131207265Y-82585851D01*
X131054129Y-82697111D01*
X130927466Y-82837785D01*
X130832821Y-83001715D01*
X130832818Y-83001722D01*
X130774327Y-83181740D01*
X130774326Y-83181744D01*
X130754540Y-83370000D01*
X115270000Y-83370000D01*
X115270000Y-73381526D01*
X115270037Y-73378490D01*
X115272145Y-73292421D01*
X115272146Y-73292419D01*
X115272145Y-73292415D01*
X115274490Y-73271272D01*
X115308362Y-73100983D01*
X115315412Y-73077741D01*
X115381274Y-72918738D01*
X115392726Y-72897314D01*
X115488338Y-72754219D01*
X115503751Y-72735439D01*
X115625439Y-72613751D01*
X115644219Y-72598338D01*
X115787314Y-72502726D01*
X115808738Y-72491274D01*
X115967741Y-72425412D01*
X115990983Y-72418362D01*
X116161272Y-72384490D01*
X116182415Y-72382145D01*
X116263037Y-72380170D01*
X116268491Y-72380037D01*
X116271527Y-72380000D01*
X164038473Y-72380000D01*
X164041509Y-72380037D01*
G37*
%TD.AperFunction*%
%TD*%
M02*
