M48
; DRILL file {KiCad 8.0.0} date 2024-03-20T17:10:05-0400
; FORMAT={-:-/ absolute / inch / decimal}
; #@! TF.CreationDate,2024-03-20T17:10:05-04:00
; #@! TF.GenerationSoftware,Kicad,Pcbnew,8.0.0
; #@! TF.FileFunction,Plated,1,4,PTH
FMAT,2
INCH
; #@! TA.AperFunction,Plated,PTH,ViaDrill
T1C0.0157
; #@! TA.AperFunction,Plated,PTH,ComponentDrill
T2C0.0236
; #@! TA.AperFunction,Plated,PTH,ViaDrill
T3C0.0315
; #@! TA.AperFunction,Plated,PTH,ComponentDrill
T4C0.0394
%
G90
G05
T1
X4.6633Y-3.9013
X4.6703Y-2.9833
X4.7598Y-4.0071
X4.7945Y-3.3642
X4.7968Y-3.5205
X4.8075Y-4.0689
X4.8081Y-4.1196
X4.8134Y-4.1669
X4.8518Y-4.2086
X4.8898Y-4.3713
X4.9071Y-3.911
X4.9743Y-3.5993
X4.9753Y-3.1268
X4.9753Y-3.4418
X4.9865Y-4.524
X5.0369Y-4.2886
X5.1335Y-4.6287
X5.1397Y-3.7649
X5.1555Y-4.2118
X5.1563Y-3.8638
X5.1835Y-3.2823
X5.1917Y-3.9944
X5.2059Y-3.8646
X5.2274Y-4.2885
X5.2724Y-3.3201
X5.2873Y-3.8538
X5.2892Y-4.1046
X5.2962Y-3.9727
X5.3053Y-3.7582
X5.316Y-4.2727
X5.3326Y-4.1413
X5.34Y-3.525
X5.3778Y-4.3365
X5.3837Y-3.7137
X5.4165Y-4.4228
X5.4297Y-4.1869
X5.4499Y-3.9924
X5.4531Y-3.8771
X5.4536Y-4.3874
X5.4657Y-3.6937
X5.5108Y-3.9363
X5.525Y-3.7062
X5.5506Y-4.1602
X5.568Y-3.8771
X5.57Y-3.9932
X5.5768Y-4.1988
X5.6067Y-4.4228
X5.6105Y-3.668
X5.6129Y-4.1817
X5.6172Y-3.5755
X5.6295Y-3.7145
X5.679Y-4.2507
X5.6862Y-4.1608
X5.736Y-3.9521
X5.736Y-4.0259
X5.7373Y-3.8084
X5.7443Y-4.2775
X5.7819Y-3.398
X5.7959Y-3.6273
X5.8577Y-4.2743
X5.8644Y-4.3483
X5.8748Y-3.742
X5.8838Y-3.5201
X5.885Y-3.2831
X5.889Y-3.2051
X5.8976Y-4.179
X5.8976Y-4.6299
X5.9124Y-3.9219
X5.9168Y-4.0282
X5.9516Y-4.5835
X5.9945Y-4.4252
X6.0566Y-3.5996
X6.0593Y-3.1264
X6.0593Y-3.4413
X6.089Y-4.4941
X6.1827Y-4.426
X6.2255Y-3.2051
X6.2323Y-4.5902
X6.2433Y-3.5213
X6.3362Y-3.2429
X6.365Y-3.2024
X6.3663Y-2.9773
X6.3673Y-3.9043
T3
X4.7988Y-3.6776
X6.2433Y-3.6791
T4
X5.4673Y-2.987
X5.4673Y-3.087
X5.4673Y-3.187
X5.4673Y-3.287
X5.4673Y-3.387
X5.4673Y-3.487
X5.5673Y-2.987
X5.5673Y-3.087
X5.5673Y-3.187
X5.5673Y-3.287
X5.5673Y-3.387
X5.5673Y-3.487
T2
G00X5.3413Y-4.474
M15
G01X5.3413Y-4.5173
M16
G05
G00X5.3413Y-4.6445
M15
G01X5.3413Y-4.676
M16
G05
G00X5.6815Y-4.474
M15
G01X5.6815Y-4.5173
M16
G05
G00X5.6815Y-4.6445
M15
G01X5.6815Y-4.676
M16
G05
M30
