%TF.GenerationSoftware,KiCad,Pcbnew,8.0.0*%
%TF.CreationDate,2024-03-20T17:10:03-04:00*%
%TF.ProjectId,AntEater,416e7445-6174-4657-922e-6b696361645f,rev?*%
%TF.SameCoordinates,Original*%
%TF.FileFunction,Copper,L1,Top*%
%TF.FilePolarity,Positive*%
%FSLAX46Y46*%
G04 Gerber Fmt 4.6, Leading zero omitted, Abs format (unit mm)*
G04 Created by KiCad (PCBNEW 8.0.0) date 2024-03-20 17:10:03*
%MOMM*%
%LPD*%
G01*
G04 APERTURE LIST*
G04 Aperture macros list*
%AMRoundRect*
0 Rectangle with rounded corners*
0 $1 Rounding radius*
0 $2 $3 $4 $5 $6 $7 $8 $9 X,Y pos of 4 corners*
0 Add a 4 corners polygon primitive as box body*
4,1,4,$2,$3,$4,$5,$6,$7,$8,$9,$2,$3,0*
0 Add four circle primitives for the rounded corners*
1,1,$1+$1,$2,$3*
1,1,$1+$1,$4,$5*
1,1,$1+$1,$6,$7*
1,1,$1+$1,$8,$9*
0 Add four rect primitives between the rounded corners*
20,1,$1+$1,$2,$3,$4,$5,0*
20,1,$1+$1,$4,$5,$6,$7,0*
20,1,$1+$1,$6,$7,$8,$9,0*
20,1,$1+$1,$8,$9,$2,$3,0*%
%AMFreePoly0*
4,1,19,0.000000,0.744911,0.071157,0.744911,0.207708,0.704816,0.327430,0.627875,0.420627,0.520320,0.479746,0.390866,0.500000,0.250000,0.500000,-0.250000,0.479746,-0.390866,0.420627,-0.520320,0.327430,-0.627875,0.207708,-0.704816,0.071157,-0.744911,0.000000,-0.744911,0.000000,-0.750000,-0.500000,-0.750000,-0.500000,0.750000,0.000000,0.750000,0.000000,0.744911,0.000000,0.744911,
$1*%
%AMFreePoly1*
4,1,19,0.500000,-0.750000,0.000000,-0.750000,0.000000,-0.744911,-0.071157,-0.744911,-0.207708,-0.704816,-0.327430,-0.627875,-0.420627,-0.520320,-0.479746,-0.390866,-0.500000,-0.250000,-0.500000,0.250000,-0.479746,0.390866,-0.420627,0.520320,-0.327430,0.627875,-0.207708,0.704816,-0.071157,0.744911,0.000000,0.744911,0.000000,0.750000,0.500000,0.750000,0.500000,-0.750000,0.500000,-0.750000,
$1*%
G04 Aperture macros list end*
%TA.AperFunction,ComponentPad*%
%ADD10O,1.000000X1.800000*%
%TD*%
%TA.AperFunction,ComponentPad*%
%ADD11O,1.000000X2.100000*%
%TD*%
%TA.AperFunction,SMDPad,CuDef*%
%ADD12RoundRect,0.075000X-0.075000X-0.500000X0.075000X-0.500000X0.075000X0.500000X-0.075000X0.500000X0*%
%TD*%
%TA.AperFunction,SMDPad,CuDef*%
%ADD13RoundRect,0.150000X-0.150000X-0.425000X0.150000X-0.425000X0.150000X0.425000X-0.150000X0.425000X0*%
%TD*%
%TA.AperFunction,SMDPad,CuDef*%
%ADD14RoundRect,0.250000X0.262500X0.450000X-0.262500X0.450000X-0.262500X-0.450000X0.262500X-0.450000X0*%
%TD*%
%TA.AperFunction,ComponentPad*%
%ADD15O,1.700000X1.700000*%
%TD*%
%TA.AperFunction,ComponentPad*%
%ADD16R,1.700000X1.700000*%
%TD*%
%TA.AperFunction,SMDPad,CuDef*%
%ADD17RoundRect,0.250000X0.250000X0.475000X-0.250000X0.475000X-0.250000X-0.475000X0.250000X-0.475000X0*%
%TD*%
%TA.AperFunction,SMDPad,CuDef*%
%ADD18RoundRect,0.250000X-0.250000X-0.475000X0.250000X-0.475000X0.250000X0.475000X-0.250000X0.475000X0*%
%TD*%
%TA.AperFunction,SMDPad,CuDef*%
%ADD19R,1.473200X0.355600*%
%TD*%
%TA.AperFunction,SMDPad,CuDef*%
%ADD20RoundRect,0.250000X-0.159099X0.512652X-0.512652X0.159099X0.159099X-0.512652X0.512652X-0.159099X0*%
%TD*%
%TA.AperFunction,SMDPad,CuDef*%
%ADD21RoundRect,0.200000X0.200000X0.275000X-0.200000X0.275000X-0.200000X-0.275000X0.200000X-0.275000X0*%
%TD*%
%TA.AperFunction,SMDPad,CuDef*%
%ADD22RoundRect,0.250000X-0.475000X0.250000X-0.475000X-0.250000X0.475000X-0.250000X0.475000X0.250000X0*%
%TD*%
%TA.AperFunction,SMDPad,CuDef*%
%ADD23R,1.900000X3.200000*%
%TD*%
%TA.AperFunction,SMDPad,CuDef*%
%ADD24R,2.800000X1.100000*%
%TD*%
%TA.AperFunction,SMDPad,CuDef*%
%ADD25C,1.500000*%
%TD*%
%TA.AperFunction,SMDPad,CuDef*%
%ADD26R,0.952500X0.558800*%
%TD*%
%TA.AperFunction,SMDPad,CuDef*%
%ADD27RoundRect,0.250000X-0.262500X-0.450000X0.262500X-0.450000X0.262500X0.450000X-0.262500X0.450000X0*%
%TD*%
%TA.AperFunction,SMDPad,CuDef*%
%ADD28RoundRect,0.250000X0.450000X-0.262500X0.450000X0.262500X-0.450000X0.262500X-0.450000X-0.262500X0*%
%TD*%
%TA.AperFunction,SMDPad,CuDef*%
%ADD29RoundRect,0.250000X-0.325000X-0.650000X0.325000X-0.650000X0.325000X0.650000X-0.325000X0.650000X0*%
%TD*%
%TA.AperFunction,SMDPad,CuDef*%
%ADD30R,4.350000X4.350000*%
%TD*%
%TA.AperFunction,SMDPad,CuDef*%
%ADD31RoundRect,0.018900X-0.391100X-0.116100X0.391100X-0.116100X0.391100X0.116100X-0.391100X0.116100X0*%
%TD*%
%TA.AperFunction,SMDPad,CuDef*%
%ADD32RoundRect,0.018900X-0.116100X0.391100X-0.116100X-0.391100X0.116100X-0.391100X0.116100X0.391100X0*%
%TD*%
%TA.AperFunction,SMDPad,CuDef*%
%ADD33RoundRect,0.018900X0.391100X0.116100X-0.391100X0.116100X-0.391100X-0.116100X0.391100X-0.116100X0*%
%TD*%
%TA.AperFunction,SMDPad,CuDef*%
%ADD34RoundRect,0.018900X0.116100X-0.391100X0.116100X0.391100X-0.116100X0.391100X-0.116100X-0.391100X0*%
%TD*%
%TA.AperFunction,SMDPad,CuDef*%
%ADD35FreePoly0,90.000000*%
%TD*%
%TA.AperFunction,SMDPad,CuDef*%
%ADD36FreePoly1,90.000000*%
%TD*%
%TA.AperFunction,SMDPad,CuDef*%
%ADD37FreePoly0,0.000000*%
%TD*%
%TA.AperFunction,SMDPad,CuDef*%
%ADD38FreePoly1,0.000000*%
%TD*%
%TA.AperFunction,SMDPad,CuDef*%
%ADD39RoundRect,0.250000X0.325000X0.650000X-0.325000X0.650000X-0.325000X-0.650000X0.325000X-0.650000X0*%
%TD*%
%TA.AperFunction,SMDPad,CuDef*%
%ADD40R,1.200000X1.800000*%
%TD*%
%TA.AperFunction,SMDPad,CuDef*%
%ADD41RoundRect,0.250000X0.475000X-0.250000X0.475000X0.250000X-0.475000X0.250000X-0.475000X-0.250000X0*%
%TD*%
%TA.AperFunction,ViaPad*%
%ADD42C,0.800000*%
%TD*%
%TA.AperFunction,ViaPad*%
%ADD43C,1.200000*%
%TD*%
%TA.AperFunction,Conductor*%
%ADD44C,0.250000*%
%TD*%
%TA.AperFunction,Conductor*%
%ADD45C,0.500000*%
%TD*%
%TA.AperFunction,Conductor*%
%ADD46C,0.750000*%
%TD*%
G04 APERTURE END LIST*
D10*
%TO.P,J2,S1,SHIELD*%
%TO.N,/GND*%
X144310000Y-118370000D03*
D11*
X144310000Y-114190000D03*
D10*
X135670000Y-118370000D03*
D11*
X135670000Y-114190000D03*
D12*
%TO.P,J2,B8,SBU2*%
%TO.N,unconnected-(J2-SBU2-PadB8)*%
X138240000Y-113615000D03*
%TO.P,J2,B7,D-*%
%TO.N,Net-(U2-DM)*%
X139240000Y-113615000D03*
%TO.P,J2,B6,D+*%
%TO.N,Net-(U2-DP)*%
X140740000Y-113615000D03*
%TO.P,J2,B5,CC2*%
%TO.N,Net-(J2-CC2)*%
X141740000Y-113615000D03*
D13*
%TO.P,J2,B4A9,VBUS*%
%TO.N,/5V*%
X142390000Y-113615000D03*
%TO.P,J2,B1A12,GND*%
%TO.N,/GND*%
X143190000Y-113615000D03*
D12*
%TO.P,J2,A8,SBU1*%
%TO.N,unconnected-(J2-SBU1-PadA8)*%
X141240000Y-113615000D03*
%TO.P,J2,A7,D-*%
%TO.N,Net-(U2-DM)*%
X140240000Y-113615000D03*
%TO.P,J2,A6,D+*%
%TO.N,Net-(U2-DP)*%
X139740000Y-113615000D03*
%TO.P,J2,A5,CC1*%
%TO.N,Net-(J2-CC1)*%
X138740000Y-113615000D03*
D13*
%TO.P,J2,A4B9,VBUS*%
%TO.N,/5V*%
X137590000Y-113615000D03*
%TO.P,J2,A1B12,GND*%
%TO.N,/GND*%
X136790000Y-113615000D03*
%TD*%
D14*
%TO.P,R5,2*%
%TO.N,Net-(J2-CC2)*%
X146565000Y-117580000D03*
%TO.P,R5,1*%
%TO.N,/GND*%
X148390000Y-117580000D03*
%TD*%
D15*
%TO.P,J3,12,Pin_12*%
%TO.N,/GND*%
X141410000Y-88570000D03*
%TO.P,J3,11,Pin_11*%
X138870000Y-88570000D03*
%TO.P,J3,10,Pin_10*%
%TO.N,/A0*%
X141410000Y-86030000D03*
%TO.P,J3,9,Pin_9*%
%TO.N,/RX*%
X138870000Y-86030000D03*
%TO.P,J3,8,Pin_8*%
%TO.N,VCCIO*%
X141410000Y-83490000D03*
%TO.P,J3,7,Pin_7*%
%TO.N,/RST*%
X138870000Y-83490000D03*
%TO.P,J3,6,Pin_6*%
%TO.N,/TX*%
X141410000Y-80950000D03*
%TO.P,J3,5,Pin_5*%
%TO.N,/A1*%
X138870000Y-80950000D03*
%TO.P,J3,4,Pin_4*%
%TO.N,/PLUG*%
X141410000Y-78410000D03*
%TO.P,J3,3,Pin_3*%
%TO.N,/SDA*%
X138870000Y-78410000D03*
%TO.P,J3,2,Pin_2*%
%TO.N,/SCL*%
X141410000Y-75870000D03*
D16*
%TO.P,J3,1,Pin_1*%
%TO.N,/A2*%
X138870000Y-75870000D03*
%TD*%
D17*
%TO.P,C12,2*%
%TO.N,/GND*%
X135975474Y-107787349D03*
%TO.P,C12,1*%
%TO.N,Net-(U2-VPHY)*%
X137875474Y-107787349D03*
%TD*%
%TO.P,C10,2*%
%TO.N,/GND*%
X131795474Y-94557349D03*
%TO.P,C10,1*%
%TO.N,VCORE*%
X133695474Y-94557349D03*
%TD*%
D18*
%TO.P,C11,2*%
%TO.N,/GND*%
X148935474Y-102277349D03*
%TO.P,C11,1*%
%TO.N,VCCIO*%
X147035474Y-102277349D03*
%TD*%
D19*
%TO.P,U1,8,VCC*%
%TO.N,VCCIO*%
X124079074Y-105770000D03*
%TO.P,U1,7,DU*%
%TO.N,/GND*%
X124079074Y-105120002D03*
%TO.P,U1,6,ORG*%
%TO.N,VCCIO*%
X124079074Y-104470000D03*
%TO.P,U1,5,VSS*%
%TO.N,/GND*%
X124079074Y-103820002D03*
%TO.P,U1,4,Q*%
%TO.N,Net-(U1-Q)*%
X129971874Y-103820002D03*
%TO.P,U1,3,D*%
%TO.N,Net-(U1-D)*%
X129971874Y-104470000D03*
%TO.P,U1,2,CLK*%
%TO.N,Net-(U1-CLK)*%
X129971874Y-105120002D03*
%TO.P,U1,1,CS*%
%TO.N,Net-(U1-CS)*%
X129971874Y-105770000D03*
%TD*%
D20*
%TO.P,C1,2*%
%TO.N,/GND*%
X132326223Y-106659101D03*
%TO.P,C1,1*%
%TO.N,VCORE*%
X133669725Y-105315597D03*
%TD*%
D21*
%TO.P,FB2,2*%
%TO.N,Net-(U2-VPLL)*%
X146220474Y-111297349D03*
%TO.P,FB2,1*%
%TO.N,VCCIO*%
X147870474Y-111297349D03*
%TD*%
D14*
%TO.P,R3,2*%
%TO.N,VCCIO*%
X122307500Y-100940000D03*
%TO.P,R3,1*%
%TO.N,Net-(U1-CS)*%
X124132500Y-100940000D03*
%TD*%
D22*
%TO.P,C15,2*%
%TO.N,/GND*%
X151150000Y-115140000D03*
%TO.P,C15,1*%
%TO.N,/5V*%
X151150000Y-113240000D03*
%TD*%
D23*
%TO.P,CN1,20,20*%
%TO.N,/GND*%
X118564800Y-75641800D03*
%TO.P,CN1,19,19*%
X118564800Y-99201800D03*
D24*
%TO.P,CN1,18,18*%
%TO.N,unconnected-(CN1-Pad18)*%
X128424800Y-95421800D03*
%TO.P,CN1,17,17*%
%TO.N,unconnected-(CN1-Pad17)*%
X124314800Y-95421800D03*
%TO.P,CN1,16,16*%
%TO.N,/RST*%
X128424800Y-93421800D03*
%TO.P,CN1,15,15*%
%TO.N,VCCIO*%
X124314800Y-93421800D03*
%TO.P,CN1,14,14*%
%TO.N,/GND*%
X128424800Y-91421800D03*
%TO.P,CN1,13,13*%
X124314800Y-91421800D03*
%TO.P,CN1,12,12*%
%TO.N,/TX*%
X128424800Y-89421800D03*
%TO.P,CN1,11,11*%
%TO.N,/RX*%
X124314800Y-89421800D03*
%TO.P,CN1,10,10*%
%TO.N,/GND*%
X128424800Y-87421800D03*
%TO.P,CN1,9,9*%
X124314800Y-87421800D03*
%TO.P,CN1,8,8*%
%TO.N,/A1*%
X128424800Y-85421800D03*
%TO.P,CN1,7,7*%
%TO.N,/A0*%
X124314800Y-85421800D03*
%TO.P,CN1,6,6*%
%TO.N,/PLUG*%
X128424800Y-83421800D03*
%TO.P,CN1,5,5*%
%TO.N,/A2*%
X124314800Y-83421800D03*
%TO.P,CN1,4,4*%
%TO.N,/SDA*%
X128424800Y-81421800D03*
%TO.P,CN1,3,3*%
%TO.N,/SCL*%
X124314800Y-81421800D03*
%TO.P,CN1,2,2*%
%TO.N,/GND*%
X128424800Y-79421800D03*
%TO.P,CN1,1,1*%
X124314800Y-79421800D03*
%TD*%
D21*
%TO.P,FB1,1*%
%TO.N,VCCIO*%
X147880474Y-109687349D03*
%TO.P,FB1,2*%
%TO.N,Net-(U2-VPHY)*%
X146230474Y-109687349D03*
%TD*%
D25*
%TO.P,TP2,1,1*%
%TO.N,VCCIO*%
X157060000Y-110310000D03*
%TD*%
D18*
%TO.P,C3,2*%
%TO.N,/GND*%
X148555474Y-107137349D03*
%TO.P,C3,1*%
%TO.N,VCORE*%
X146655474Y-107137349D03*
%TD*%
D26*
%TO.P,U3,5,VOUT*%
%TO.N,VCCIO*%
X156087950Y-113230200D03*
%TO.P,U3,4,NC*%
%TO.N,unconnected-(U3-NC-Pad4)*%
X156087950Y-115109800D03*
%TO.P,U3,3,EN*%
%TO.N,/5V*%
X153332050Y-115109800D03*
%TO.P,U3,2,GND*%
%TO.N,/GND*%
X153332050Y-114170000D03*
%TO.P,U3,1,VIN*%
%TO.N,/5V*%
X153332050Y-113230200D03*
%TD*%
D14*
%TO.P,R8,2*%
%TO.N,Net-(U2-RESET#)*%
X146642974Y-105197349D03*
%TO.P,R8,1*%
%TO.N,VCCIO*%
X148467974Y-105197349D03*
%TD*%
D22*
%TO.P,C2,2*%
%TO.N,/GND*%
X126447500Y-113510000D03*
%TO.P,C2,1*%
%TO.N,Net-(U2-OSCI)*%
X126447500Y-111610000D03*
%TD*%
D18*
%TO.P,C5,2*%
%TO.N,/GND*%
X147965474Y-94337349D03*
%TO.P,C5,1*%
%TO.N,VCORE*%
X146065474Y-94337349D03*
%TD*%
D27*
%TO.P,R6,2*%
%TO.N,Net-(U2-REF)*%
X126680000Y-109540000D03*
%TO.P,R6,1*%
%TO.N,/GND*%
X124855000Y-109540000D03*
%TD*%
D28*
%TO.P,R1,2*%
%TO.N,Net-(U1-Q)*%
X128125474Y-99384849D03*
%TO.P,R1,1*%
%TO.N,Net-(U1-D)*%
X128125474Y-101209849D03*
%TD*%
D29*
%TO.P,C6,2*%
%TO.N,/GND*%
X144545000Y-110320000D03*
%TO.P,C6,1*%
%TO.N,Net-(U2-VPLL)*%
X141595000Y-110320000D03*
%TD*%
D18*
%TO.P,C8,2*%
%TO.N,/GND*%
X148940000Y-96730000D03*
%TO.P,C8,1*%
%TO.N,VCCIO*%
X147040000Y-96730000D03*
%TD*%
D30*
%TO.P,U2,65,EPAD*%
%TO.N,/GND*%
X139975474Y-99982349D03*
D31*
%TO.P,U2,64,VCORE*%
%TO.N,VCORE*%
X135530474Y-103732349D03*
%TO.P,U2,63,EECS*%
%TO.N,Net-(U1-CS)*%
X135530474Y-103232349D03*
%TO.P,U2,62,EECLK*%
%TO.N,Net-(U1-CLK)*%
X135530474Y-102732349D03*
%TO.P,U2,61,EEDATA*%
%TO.N,Net-(U1-D)*%
X135530474Y-102232349D03*
%TO.P,U2,60,PWREN#*%
%TO.N,unconnected-(U2-PWREN#-Pad60)*%
X135530474Y-101732349D03*
%TO.P,U2,59,DDBUS7*%
%TO.N,unconnected-(U2-DDBUS7-Pad59)*%
X135530474Y-101232349D03*
%TO.P,U2,58,DDBUS6*%
%TO.N,unconnected-(U2-DDBUS6-Pad58)*%
X135530474Y-100732349D03*
%TO.P,U2,57,DDBUS5*%
%TO.N,unconnected-(U2-DDBUS5-Pad57)*%
X135530474Y-100232349D03*
%TO.P,U2,56,VCCIO*%
%TO.N,VCCIO*%
X135530474Y-99732349D03*
%TO.P,U2,55,DDBUS4*%
%TO.N,unconnected-(U2-DDBUS4-Pad55)*%
X135530474Y-99232349D03*
%TO.P,U2,54,DDBUS3*%
%TO.N,unconnected-(U2-DDBUS3-Pad54)*%
X135530474Y-98732349D03*
%TO.P,U2,53,DDBUS2*%
%TO.N,unconnected-(U2-DDBUS2-Pad53)*%
X135530474Y-98232349D03*
%TO.P,U2,52,DDBUS1*%
%TO.N,unconnected-(U2-DDBUS1-Pad52)*%
X135530474Y-97732349D03*
%TO.P,U2,51,GND*%
%TO.N,/GND*%
X135530474Y-97232349D03*
%TO.P,U2,50,VREGIN*%
%TO.N,VCCIO*%
X135530474Y-96732349D03*
%TO.P,U2,49,VREGOUT*%
%TO.N,VCORE*%
X135530474Y-96232349D03*
D32*
%TO.P,U2,48,DDBUS0*%
%TO.N,unconnected-(U2-DDBUS0-Pad48)*%
X136225474Y-95537349D03*
%TO.P,U2,47,GND*%
%TO.N,/GND*%
X136725474Y-95537349D03*
%TO.P,U2,46,CDBUS7*%
%TO.N,unconnected-(U2-CDBUS7-Pad46)*%
X137225474Y-95537349D03*
%TO.P,U2,45,CDBUS6*%
%TO.N,unconnected-(U2-CDBUS6-Pad45)*%
X137725474Y-95537349D03*
%TO.P,U2,44,CDBUS5*%
%TO.N,unconnected-(U2-CDBUS5-Pad44)*%
X138225474Y-95537349D03*
%TO.P,U2,43,CDBUS4*%
%TO.N,unconnected-(U2-CDBUS4-Pad43)*%
X138725474Y-95537349D03*
%TO.P,U2,42,VCCIO*%
%TO.N,VCCIO*%
X139225474Y-95537349D03*
%TO.P,U2,41,CDBUS3*%
%TO.N,unconnected-(U2-CDBUS3-Pad41)*%
X139725474Y-95537349D03*
%TO.P,U2,40,CDBUS2*%
%TO.N,unconnected-(U2-CDBUS2-Pad40)*%
X140225474Y-95537349D03*
%TO.P,U2,39,CDBUS1*%
%TO.N,/RX*%
X140725474Y-95537349D03*
%TO.P,U2,38,CDBUS0*%
%TO.N,Net-(JP1-A)*%
X141225474Y-95537349D03*
%TO.P,U2,37,VCORE*%
%TO.N,VCORE*%
X141725474Y-95537349D03*
%TO.P,U2,36,SUSPEND_#*%
%TO.N,unconnected-(U2-SUSPEND_#-Pad36)*%
X142225474Y-95537349D03*
%TO.P,U2,35,GND*%
%TO.N,/GND*%
X142725474Y-95537349D03*
%TO.P,U2,34,BDBUS7*%
%TO.N,unconnected-(U2-BDBUS7-Pad34)*%
X143225474Y-95537349D03*
%TO.P,U2,33,BDBUS6*%
%TO.N,unconnected-(U2-BDBUS6-Pad33)*%
X143725474Y-95537349D03*
D33*
%TO.P,U2,32,BDBUS5*%
%TO.N,unconnected-(U2-BDBUS5-Pad32)*%
X144420474Y-96232349D03*
%TO.P,U2,31,VCCIO*%
%TO.N,VCCIO*%
X144420474Y-96732349D03*
%TO.P,U2,30,BDBUS4*%
%TO.N,unconnected-(U2-BDBUS4-Pad30)*%
X144420474Y-97232349D03*
%TO.P,U2,29,BDBUS3*%
%TO.N,unconnected-(U2-BDBUS3-Pad29)*%
X144420474Y-97732349D03*
%TO.P,U2,28,BDBUS2*%
%TO.N,unconnected-(U2-BDBUS2-Pad28)*%
X144420474Y-98232349D03*
%TO.P,U2,27,BDBUS1*%
%TO.N,/TX*%
X144420474Y-98732349D03*
%TO.P,U2,26,BDBUS0*%
%TO.N,Net-(JP2-A)*%
X144420474Y-99232349D03*
%TO.P,U2,25,GND*%
%TO.N,/GND*%
X144420474Y-99732349D03*
%TO.P,U2,24,ADBUS7*%
%TO.N,unconnected-(U2-ADBUS7-Pad24)*%
X144420474Y-100232349D03*
%TO.P,U2,23,ADBUS6*%
%TO.N,unconnected-(U2-ADBUS6-Pad23)*%
X144420474Y-100732349D03*
%TO.P,U2,22,ADBUS5*%
%TO.N,unconnected-(U2-ADBUS5-Pad22)*%
X144420474Y-101232349D03*
%TO.P,U2,21,ADBUS4*%
%TO.N,unconnected-(U2-ADBUS4-Pad21)*%
X144420474Y-101732349D03*
%TO.P,U2,20,VCCIO*%
%TO.N,VCCIO*%
X144420474Y-102232349D03*
%TO.P,U2,19,ADBUS3*%
%TO.N,unconnected-(U2-ADBUS3-Pad19)*%
X144420474Y-102732349D03*
%TO.P,U2,18,ADBUS2*%
%TO.N,/SDA*%
X144420474Y-103232349D03*
%TO.P,U2,17,ADBUS1*%
X144420474Y-103732349D03*
D34*
%TO.P,U2,16,ADBUS0*%
%TO.N,/SCL*%
X143725474Y-104427349D03*
%TO.P,U2,15,GND*%
%TO.N,/GND*%
X143225474Y-104427349D03*
%TO.P,U2,14,RESET#*%
%TO.N,Net-(U2-RESET#)*%
X142725474Y-104427349D03*
%TO.P,U2,13,TEST*%
%TO.N,/GND*%
X142225474Y-104427349D03*
%TO.P,U2,12,VCORE*%
%TO.N,VCORE*%
X141725474Y-104427349D03*
%TO.P,U2,11,GND*%
%TO.N,/GND*%
X141225474Y-104427349D03*
%TO.P,U2,10,AGND*%
X140725474Y-104427349D03*
%TO.P,U2,9,VPLL*%
%TO.N,Net-(U2-VPLL)*%
X140225474Y-104427349D03*
%TO.P,U2,8,DP*%
%TO.N,Net-(U2-DP)*%
X139725474Y-104427349D03*
%TO.P,U2,7,DM*%
%TO.N,Net-(U2-DM)*%
X139225474Y-104427349D03*
%TO.P,U2,6,REF*%
%TO.N,Net-(U2-REF)*%
X138725474Y-104427349D03*
%TO.P,U2,5,GND*%
%TO.N,/GND*%
X138225474Y-104427349D03*
%TO.P,U2,4,VPHY*%
%TO.N,Net-(U2-VPHY)*%
X137725474Y-104427349D03*
%TO.P,U2,3,OSCO*%
%TO.N,Net-(U2-OSCO)*%
X137225474Y-104427349D03*
%TO.P,U2,2,OSCI*%
%TO.N,Net-(U2-OSCI)*%
X136725474Y-104427349D03*
%TO.P,U2,1,GND*%
%TO.N,/GND*%
X136225474Y-104427349D03*
%TD*%
D23*
%TO.P,CN2,20,20*%
%TO.N,/GND*%
X161709900Y-99189600D03*
%TO.P,CN2,19,19*%
X161709900Y-75629600D03*
D24*
%TO.P,CN2,18,18*%
X151849900Y-79409600D03*
%TO.P,CN2,17,17*%
X155959900Y-79409600D03*
%TO.P,CN2,16,16*%
%TO.N,/SDA*%
X151849900Y-81409600D03*
%TO.P,CN2,15,15*%
%TO.N,/SCL*%
X155959900Y-81409600D03*
%TO.P,CN2,14,14*%
%TO.N,/PLUG*%
X151849900Y-83409600D03*
%TO.P,CN2,13,13*%
%TO.N,/A2*%
X155959900Y-83409600D03*
%TO.P,CN2,12,12*%
%TO.N,/A1*%
X151849900Y-85409600D03*
%TO.P,CN2,11,11*%
%TO.N,/A0*%
X155959900Y-85409600D03*
%TO.P,CN2,10,10*%
%TO.N,/GND*%
X151849900Y-87409600D03*
%TO.P,CN2,9,9*%
X155959900Y-87409600D03*
%TO.P,CN2,8,8*%
%TO.N,/TX*%
X151849900Y-89409600D03*
%TO.P,CN2,7,7*%
%TO.N,/RX*%
X155959900Y-89409600D03*
%TO.P,CN2,6,6*%
%TO.N,/GND*%
X151849900Y-91409600D03*
%TO.P,CN2,5,5*%
X155959900Y-91409600D03*
%TO.P,CN2,4,4*%
%TO.N,/RST*%
X151849900Y-93409600D03*
%TO.P,CN2,3,3*%
%TO.N,VCCIO*%
X155959900Y-93409600D03*
%TO.P,CN2,2,2*%
%TO.N,unconnected-(CN2-Pad2)*%
X151849900Y-95409600D03*
%TO.P,CN2,1,1*%
%TO.N,unconnected-(CN2-Pad1)*%
X155959900Y-95409600D03*
%TD*%
D25*
%TO.P,TP1,1,1*%
%TO.N,/5V*%
X152530000Y-110370000D03*
%TD*%
D28*
%TO.P,R4,2*%
%TO.N,VCCIO*%
X126225474Y-99384849D03*
%TO.P,R4,1*%
%TO.N,Net-(U1-CLK)*%
X126225474Y-101209849D03*
%TD*%
D35*
%TO.P,JP1,2,B*%
%TO.N,/TX*%
X140680000Y-91400000D03*
D36*
%TO.P,JP1,1,A*%
%TO.N,Net-(JP1-A)*%
X140680000Y-92700000D03*
%TD*%
D17*
%TO.P,C13,2*%
%TO.N,/GND*%
X131805474Y-99827349D03*
%TO.P,C13,1*%
%TO.N,VCCIO*%
X133705474Y-99827349D03*
%TD*%
%TO.P,C14,1*%
%TO.N,VCCIO*%
X133715474Y-96517349D03*
%TO.P,C14,2*%
%TO.N,/GND*%
X131815474Y-96517349D03*
%TD*%
D37*
%TO.P,JP2,2,B*%
%TO.N,/RX*%
X148445474Y-99657349D03*
D38*
%TO.P,JP2,1,A*%
%TO.N,Net-(JP2-A)*%
X147145474Y-99657349D03*
%TD*%
D39*
%TO.P,C4,2*%
%TO.N,/GND*%
X134820474Y-109937349D03*
%TO.P,C4,1*%
%TO.N,Net-(U2-VPHY)*%
X137770474Y-109937349D03*
%TD*%
D40*
%TO.P,Y1,4,GND__1*%
%TO.N,/GND*%
X130825000Y-110767500D03*
%TO.P,Y1,3*%
%TO.N,Net-(U2-OSCO)*%
X130825000Y-114767500D03*
%TO.P,Y1,2,GND*%
%TO.N,/GND*%
X128425000Y-114767500D03*
%TO.P,Y1,1*%
%TO.N,Net-(U2-OSCI)*%
X128425000Y-110767500D03*
%TD*%
D22*
%TO.P,C16,2*%
%TO.N,/GND*%
X158220000Y-115190000D03*
%TO.P,C16,1*%
%TO.N,VCCIO*%
X158220000Y-113290000D03*
%TD*%
D27*
%TO.P,R7,2*%
%TO.N,Net-(J2-CC1)*%
X133490000Y-117560000D03*
%TO.P,R7,1*%
%TO.N,/GND*%
X131665000Y-117560000D03*
%TD*%
D18*
%TO.P,C9,2*%
%TO.N,/GND*%
X142860000Y-108170000D03*
%TO.P,C9,1*%
%TO.N,Net-(U2-VPLL)*%
X140960000Y-108170000D03*
%TD*%
D28*
%TO.P,R2,2*%
%TO.N,VCCIO*%
X130035474Y-99384849D03*
%TO.P,R2,1*%
%TO.N,Net-(U1-Q)*%
X130035474Y-101209849D03*
%TD*%
D41*
%TO.P,C7,2*%
%TO.N,/GND*%
X132757500Y-111610000D03*
%TO.P,C7,1*%
%TO.N,Net-(U2-OSCO)*%
X132757500Y-113510000D03*
%TD*%
D42*
%TO.N,/GND*%
X158300000Y-116590000D03*
X151170000Y-116420000D03*
X154660000Y-114150000D03*
%TO.N,VCCIO*%
X157040000Y-112420000D03*
%TO.N,/5V*%
X152260000Y-112400000D03*
%TO.N,/A0*%
X146860000Y-86310000D03*
%TO.N,/5V*%
X142410000Y-112340000D03*
X137580000Y-112340000D03*
%TO.N,VCCIO*%
X124640000Y-99340000D03*
%TO.N,/GND*%
X118447400Y-99093600D03*
X136745474Y-94327349D03*
X140986417Y-105670000D03*
X130390000Y-117570000D03*
X153837950Y-91430000D03*
X141427974Y-98477349D03*
X126346800Y-91421800D03*
X130950000Y-106980000D03*
X138427974Y-101407349D03*
X135025474Y-108527349D03*
X122260000Y-105840000D03*
X139975474Y-99982349D03*
X148785474Y-108567349D03*
X141477974Y-101427349D03*
X144430000Y-105685000D03*
X149800000Y-117600000D03*
X145695474Y-100382349D03*
X149220474Y-95047349D03*
X142568065Y-106215000D03*
X161703600Y-75624000D03*
X135447821Y-105189696D03*
X138507974Y-98477349D03*
X126372200Y-87421800D03*
X122110000Y-103350000D03*
X142990474Y-94347349D03*
X150285474Y-102317349D03*
X124200000Y-111030000D03*
X144245474Y-107967349D03*
X132775474Y-108927349D03*
X134296411Y-97886411D03*
X130547974Y-95627349D03*
X131867974Y-101457349D03*
X118625200Y-75776400D03*
X153905800Y-87409600D03*
X126657500Y-114910000D03*
X153905800Y-79409600D03*
X161729000Y-99169800D03*
X126372200Y-79421800D03*
X137915474Y-106347349D03*
%TO.N,VCORE*%
X134345474Y-104257349D03*
X141650000Y-106650000D03*
X134755474Y-95457349D03*
X142505474Y-93167349D03*
%TO.N,/SCL*%
X161670000Y-81340000D03*
X158127800Y-81409600D03*
%TO.N,/SDA*%
X160940000Y-82370000D03*
X149580000Y-81409600D03*
%TO.N,/PLUG*%
X131660000Y-83370000D03*
X149480000Y-83390000D03*
%TO.N,/A0*%
X121780000Y-85450000D03*
%TO.N,/RX*%
X150175474Y-99617349D03*
X140335474Y-94137349D03*
X147214600Y-92134600D03*
X135635000Y-89535000D03*
X158580000Y-89440000D03*
X121838200Y-89421800D03*
%TO.N,/TX*%
X149449600Y-89409600D03*
X142677974Y-90817349D03*
X133920000Y-84330000D03*
%TO.N,Net-(U2-VPHY)*%
X145905474Y-108647349D03*
X136595474Y-110147349D03*
%TO.N,VCCIO*%
X123235474Y-106897349D03*
X145695474Y-102257349D03*
X148955474Y-110447349D03*
D43*
X121890000Y-93410000D03*
D42*
X132230000Y-98160000D03*
X138830000Y-93820000D03*
X120900000Y-101780000D03*
X149797974Y-106147349D03*
X130970000Y-98140000D03*
D43*
X158580000Y-93450000D03*
D42*
X122125474Y-104637349D03*
X134523118Y-100906579D03*
X145727974Y-96732349D03*
%TO.N,Net-(U2-REF)*%
X127937500Y-108930000D03*
X138520474Y-111440000D03*
%TD*%
D44*
%TO.N,/GND*%
X142568065Y-106215000D02*
X142225474Y-105872409D01*
X142225474Y-105872409D02*
X142225474Y-104427349D01*
%TO.N,Net-(U2-RESET#)*%
X142725474Y-104427349D02*
X142725474Y-105245474D01*
X143890000Y-106410000D02*
X145430323Y-106410000D01*
X145430323Y-106410000D02*
X146642974Y-105197349D01*
X142725474Y-105245474D02*
X143890000Y-106410000D01*
%TO.N,/SCL*%
X143725474Y-104427349D02*
X143725474Y-104785025D01*
X143725474Y-104785025D02*
X143890449Y-104950000D01*
X143890449Y-104950000D02*
X144950000Y-104950000D01*
X153308235Y-103937349D02*
X161670000Y-95575584D01*
X144950000Y-104950000D02*
X145717651Y-104182349D01*
X145717651Y-104182349D02*
X145989370Y-104182349D01*
X145989370Y-104182349D02*
X146234370Y-103937349D01*
X146234370Y-103937349D02*
X153308235Y-103937349D01*
X161670000Y-95575584D02*
X161670000Y-81340000D01*
%TO.N,/GND*%
X143225474Y-104921421D02*
X143225474Y-104427349D01*
X144430000Y-105685000D02*
X143989053Y-105685000D01*
X143989053Y-105685000D02*
X143225474Y-104921421D01*
X136225474Y-104427349D02*
X136225474Y-105014526D01*
X136050304Y-105189696D02*
X135447821Y-105189696D01*
X136225474Y-105014526D02*
X136050304Y-105189696D01*
%TO.N,Net-(U2-OSCI)*%
X136725474Y-104427349D02*
X136725474Y-105234526D01*
X136725474Y-105234526D02*
X136045304Y-105914696D01*
X135578127Y-105914696D02*
X133532823Y-107960000D01*
X133532823Y-107960000D02*
X130360000Y-107960000D01*
X136045304Y-105914696D02*
X135578127Y-105914696D01*
X130360000Y-107960000D02*
X128425000Y-109895000D01*
X128425000Y-109895000D02*
X128425000Y-110767500D01*
%TO.N,Net-(U2-OSCO)*%
X137225474Y-104427349D02*
X137225474Y-105374526D01*
X133885474Y-108243745D02*
X133885474Y-113164526D01*
X133540000Y-113510000D02*
X132757500Y-113510000D01*
X136235304Y-106364696D02*
X135764523Y-106364696D01*
X135764523Y-106364696D02*
X133885474Y-108243745D01*
X137225474Y-105374526D02*
X136235304Y-106364696D01*
X133885474Y-113164526D02*
X133540000Y-113510000D01*
%TO.N,VCCIO*%
X145727974Y-96732349D02*
X145730323Y-96730000D01*
X145730323Y-96730000D02*
X147040000Y-96730000D01*
%TO.N,/GND*%
X148940000Y-96730000D02*
X149220474Y-96449526D01*
X149220474Y-96449526D02*
X149220474Y-95047349D01*
%TO.N,/RST*%
X138870000Y-84710000D02*
X142700000Y-84710000D01*
X143590000Y-85600000D02*
X143590000Y-86930000D01*
X142700000Y-84710000D02*
X143590000Y-85600000D01*
X143590000Y-86930000D02*
X150069600Y-93409600D01*
X150069600Y-93409600D02*
X151849900Y-93409600D01*
%TO.N,/A0*%
X146860000Y-86310000D02*
X146960000Y-86410000D01*
X146960000Y-86410000D02*
X154959500Y-86410000D01*
X154959500Y-86410000D02*
X155959900Y-85409600D01*
%TO.N,/TX*%
X151849900Y-89409600D02*
X152859500Y-88400000D01*
X145732974Y-98732349D02*
X144420474Y-98732349D01*
X152859500Y-88400000D02*
X159150000Y-88400000D01*
X159150000Y-88400000D02*
X160140000Y-89390000D01*
X160140000Y-89390000D02*
X160140000Y-93829500D01*
X160140000Y-93829500D02*
X155812151Y-98157349D01*
X155812151Y-98157349D02*
X146307974Y-98157349D01*
X146307974Y-98157349D02*
X145732974Y-98732349D01*
%TO.N,VCCIO*%
X138830000Y-93820000D02*
X139225474Y-94215474D01*
X139225474Y-94215474D02*
X139225474Y-95537349D01*
%TO.N,VCORE*%
X134755474Y-95457349D02*
X134755474Y-94865474D01*
X134755474Y-94865474D02*
X134447349Y-94557349D01*
X134447349Y-94557349D02*
X133695474Y-94557349D01*
X135530474Y-96232349D02*
X134862349Y-96232349D01*
X134862349Y-96232349D02*
X134755474Y-96125474D01*
X134755474Y-96125474D02*
X134755474Y-95457349D01*
%TO.N,/GND*%
X134950473Y-97232349D02*
X135530474Y-97232349D01*
X134296411Y-97886411D02*
X134950473Y-97232349D01*
%TO.N,VCCIO*%
X132230000Y-98160000D02*
X132820000Y-98160000D01*
X132820000Y-98160000D02*
X133715474Y-97264526D01*
X133715474Y-97264526D02*
X133715474Y-96517349D01*
%TO.N,VCORE*%
X141940000Y-106940000D02*
X146458125Y-106940000D01*
X146458125Y-106940000D02*
X146655474Y-107137349D01*
X141711417Y-105446101D02*
X141730000Y-105427518D01*
X141730000Y-105427518D02*
X141730000Y-104431875D01*
X141730000Y-104431875D02*
X141725474Y-104427349D01*
X141711417Y-106588583D02*
X141711417Y-105446101D01*
X141650000Y-106650000D02*
X141711417Y-106588583D01*
X141650000Y-106650000D02*
X141940000Y-106940000D01*
%TO.N,/GND*%
X140986417Y-105670000D02*
X140725474Y-105409057D01*
X140725474Y-105409057D02*
X140725474Y-104427349D01*
X141225474Y-105430943D02*
X141225474Y-104427349D01*
X140986417Y-105670000D02*
X141225474Y-105430943D01*
%TO.N,Net-(U2-VPLL)*%
X140960000Y-108170000D02*
X140920000Y-108130000D01*
X140920000Y-108130000D02*
X140225474Y-108130000D01*
D45*
%TO.N,/GND*%
X142860000Y-108170000D02*
X143062651Y-107967349D01*
X143062651Y-107967349D02*
X144245474Y-107967349D01*
D44*
%TO.N,Net-(U2-VPLL)*%
X146190474Y-111307349D02*
X145882823Y-111615000D01*
X145882823Y-111615000D02*
X142125000Y-111615000D01*
X142125000Y-111615000D02*
X141585474Y-111075474D01*
X141585474Y-111075474D02*
X141585474Y-109877349D01*
%TO.N,/SDA*%
X160940000Y-82370000D02*
X160940000Y-95669188D01*
X160940000Y-95669188D02*
X153191839Y-103417349D01*
X153191839Y-103417349D02*
X146117974Y-103417349D01*
%TO.N,/RX*%
X138870000Y-87290000D02*
X137880000Y-87290000D01*
X137880000Y-87290000D02*
X135635000Y-89535000D01*
%TO.N,/TX*%
X133920000Y-84526600D02*
X129024800Y-89421800D01*
X133920000Y-84330000D02*
X133920000Y-84526600D01*
X129024800Y-89421800D02*
X128424800Y-89421800D01*
%TO.N,VCCIO*%
X157060000Y-110310000D02*
X157060000Y-112400000D01*
X157060000Y-112400000D02*
X157040000Y-112420000D01*
%TO.N,/5V*%
X152530000Y-110370000D02*
X152530000Y-112130000D01*
X152530000Y-112130000D02*
X152260000Y-112400000D01*
D45*
%TO.N,/GND*%
X158220000Y-116510000D02*
X158300000Y-116590000D01*
X158220000Y-115190000D02*
X158220000Y-116510000D01*
X151150000Y-116400000D02*
X151170000Y-116420000D01*
X151150000Y-115140000D02*
X151150000Y-116400000D01*
D44*
%TO.N,/5V*%
X153332050Y-115109800D02*
X152605800Y-115109800D01*
X152605800Y-115109800D02*
X152260000Y-114764000D01*
X152260000Y-114764000D02*
X152260000Y-112400000D01*
D45*
%TO.N,/GND*%
X154640000Y-114170000D02*
X154660000Y-114150000D01*
X153332050Y-114170000D02*
X154640000Y-114170000D01*
%TO.N,/5V*%
X152260000Y-112400000D02*
X151420000Y-113240000D01*
X152501850Y-112400000D02*
X153332050Y-113230200D01*
X151420000Y-113240000D02*
X151150000Y-113240000D01*
X152260000Y-112400000D02*
X152501850Y-112400000D01*
%TO.N,VCCIO*%
X158220000Y-113290000D02*
X157910000Y-113290000D01*
X157910000Y-113290000D02*
X157040000Y-112420000D01*
X156229800Y-113230200D02*
X157040000Y-112420000D01*
X156087950Y-113230200D02*
X156229800Y-113230200D01*
D44*
%TO.N,Net-(U2-OSCO)*%
X130825000Y-114767500D02*
X132072500Y-114767500D01*
X132757500Y-114082500D02*
X132757500Y-113510000D01*
X132072500Y-114767500D02*
X132757500Y-114082500D01*
%TO.N,/GND*%
X132775474Y-108927349D02*
X132775474Y-111592026D01*
X132775474Y-111592026D02*
X132757500Y-111610000D01*
%TO.N,Net-(J2-CC1)*%
X133490000Y-117560000D02*
X134014226Y-117560000D01*
X134014226Y-117560000D02*
X135084226Y-116490000D01*
X135084226Y-116490000D02*
X137160000Y-116490000D01*
X137160000Y-116490000D02*
X138737500Y-114912500D01*
X138737500Y-114912500D02*
X138737500Y-113615000D01*
%TO.N,Net-(J2-CC2)*%
X146565000Y-117580000D02*
X145860000Y-117580000D01*
X145860000Y-117580000D02*
X144780000Y-116500000D01*
X144780000Y-116500000D02*
X143320774Y-116500000D01*
X143320774Y-116500000D02*
X141737500Y-114916726D01*
X141737500Y-114916726D02*
X141737500Y-113615000D01*
%TO.N,/TX*%
X149449600Y-89409600D02*
X151849900Y-89409600D01*
%TO.N,Net-(U2-REF)*%
X138520474Y-111440000D02*
X138520474Y-111379526D01*
X138520474Y-111379526D02*
X138725474Y-111174526D01*
X138725474Y-111174526D02*
X138725474Y-104427349D01*
D45*
%TO.N,/5V*%
X137590000Y-112350000D02*
X137580000Y-112340000D01*
X142410000Y-112340000D02*
X142410000Y-113595000D01*
X137590000Y-113615000D02*
X137590000Y-112350000D01*
X142410000Y-113595000D02*
X142390000Y-113615000D01*
D44*
%TO.N,Net-(U2-DP)*%
X139740000Y-111272823D02*
X139740000Y-112570000D01*
X139740000Y-112570000D02*
X139740000Y-113615000D01*
X140737500Y-113615000D02*
X140737500Y-112969736D01*
X140737500Y-112969736D02*
X140337764Y-112570000D01*
X140337764Y-112570000D02*
X139740000Y-112570000D01*
X139745474Y-111267349D02*
X139740000Y-111272823D01*
X139737500Y-113615000D02*
X139727500Y-113605000D01*
%TO.N,Net-(U2-DM)*%
X139245474Y-112202349D02*
X139240000Y-112207823D01*
X139240000Y-112207823D02*
X139240000Y-113615000D01*
%TO.N,/GND*%
X124079074Y-105120002D02*
X122849998Y-105120002D01*
X122849998Y-105120002D02*
X122260000Y-105710000D01*
X122260000Y-105710000D02*
X122260000Y-105840000D01*
%TO.N,VCCIO*%
X124684849Y-99384849D02*
X124640000Y-99340000D01*
X126225474Y-99384849D02*
X124684849Y-99384849D01*
%TO.N,Net-(U1-CS)*%
X124285474Y-101727349D02*
X124285474Y-101092974D01*
X124285474Y-101092974D02*
X124132500Y-100940000D01*
%TO.N,VCCIO*%
X122307500Y-100940000D02*
X121740000Y-100940000D01*
X121740000Y-100940000D02*
X120900000Y-101780000D01*
%TO.N,/GND*%
X130842974Y-109364849D02*
X130825000Y-109382823D01*
X130825000Y-109382823D02*
X130825000Y-110767500D01*
%TO.N,/RST*%
X138400000Y-84710000D02*
X138870000Y-84710000D01*
X137130000Y-84710000D02*
X138400000Y-84710000D01*
X128424800Y-93421800D02*
X131348200Y-93421800D01*
X132280000Y-92490000D02*
X132280000Y-89560000D01*
X132280000Y-89560000D02*
X137130000Y-84710000D01*
X138870000Y-83490000D02*
X138870000Y-84710000D01*
X131366174Y-93415900D02*
X132297974Y-92484100D01*
D46*
%TO.N,/GND*%
X124314800Y-79421800D02*
X126372200Y-79421800D01*
D45*
X135855474Y-107697349D02*
X135025474Y-108527349D01*
D44*
X138225474Y-105666614D02*
X138225474Y-104427349D01*
D45*
X143187500Y-113615000D02*
X143732500Y-113615000D01*
D44*
X124855000Y-110375000D02*
X124200000Y-111030000D01*
D46*
X124314800Y-87421800D02*
X126372200Y-87421800D01*
D44*
X124855000Y-109540000D02*
X124855000Y-110375000D01*
X148390000Y-117580000D02*
X149780000Y-117580000D01*
D45*
X144535474Y-108257349D02*
X144245474Y-107967349D01*
D44*
X131795474Y-94557349D02*
X131617974Y-94557349D01*
X132337974Y-109364849D02*
X132775474Y-108927349D01*
X137915474Y-105976614D02*
X138225474Y-105666614D01*
X144420474Y-99732349D02*
X145028773Y-99732349D01*
D46*
X161709900Y-99189600D02*
X161709900Y-99188900D01*
D44*
X131437974Y-96517349D02*
X130547974Y-95627349D01*
D45*
X136787500Y-113615000D02*
X136242500Y-113615000D01*
D46*
X124314800Y-91421800D02*
X126346800Y-91421800D01*
D44*
X148555474Y-107137349D02*
X148555474Y-108337349D01*
X145678773Y-100382349D02*
X145695474Y-100382349D01*
X131805474Y-99827349D02*
X131805474Y-101394849D01*
X131617974Y-94557349D02*
X130547974Y-95627349D01*
D46*
X126372200Y-79421800D02*
X128424800Y-79421800D01*
D44*
X149780000Y-117580000D02*
X149800000Y-117600000D01*
X136725474Y-94347349D02*
X136745474Y-94327349D01*
D45*
X136242500Y-113615000D02*
X135667500Y-114190000D01*
D44*
X137915474Y-106347349D02*
X137915474Y-105976614D01*
D46*
X151849900Y-79409600D02*
X153905800Y-79409600D01*
D44*
X150245474Y-102277349D02*
X150285474Y-102317349D01*
D46*
X118564800Y-99201800D02*
X118555600Y-99201800D01*
D45*
X136165474Y-107697349D02*
X135855474Y-107697349D01*
D44*
X131665000Y-117560000D02*
X130400000Y-117560000D01*
D46*
X161709900Y-99188900D02*
X161729000Y-99169800D01*
D44*
X128425000Y-114767500D02*
X126800000Y-114767500D01*
X136725474Y-95537349D02*
X136725474Y-94347349D01*
X126800000Y-114767500D02*
X126657500Y-114910000D01*
X126447500Y-114700000D02*
X126657500Y-114910000D01*
D46*
X161709900Y-75629600D02*
X161709200Y-75629600D01*
X126372200Y-87421800D02*
X128424800Y-87421800D01*
D45*
X135135474Y-110037349D02*
X135135474Y-108637349D01*
D46*
X118564800Y-75641800D02*
X118564800Y-75716000D01*
X155959900Y-79409600D02*
X153905800Y-79409600D01*
D44*
X130400000Y-117560000D02*
X130390000Y-117570000D01*
X122536326Y-103816326D02*
X122243673Y-103523673D01*
X131815474Y-96517349D02*
X131437974Y-96517349D01*
X132219780Y-106532247D02*
X131443076Y-106532247D01*
D45*
X143732500Y-113615000D02*
X144307500Y-114190000D01*
D44*
X148935474Y-102277349D02*
X150245474Y-102277349D01*
D46*
X151782050Y-91430000D02*
X153837950Y-91430000D01*
D45*
X144535474Y-109877349D02*
X144535474Y-108257349D01*
D44*
X142725474Y-95537349D02*
X142725474Y-94612349D01*
D46*
X161709200Y-75629600D02*
X161703600Y-75624000D01*
X155959900Y-91409600D02*
X153905800Y-91409600D01*
D44*
X126447500Y-113510000D02*
X126447500Y-114700000D01*
D46*
X151849900Y-87409600D02*
X153905800Y-87409600D01*
D44*
X131805474Y-101394849D02*
X131867974Y-101457349D01*
X131443076Y-106532247D02*
X131017974Y-106957349D01*
D46*
X118555600Y-99201800D02*
X118447400Y-99093600D01*
X155959900Y-87409600D02*
X153905800Y-87409600D01*
D44*
X130842974Y-109364849D02*
X132337974Y-109364849D01*
X148555474Y-108337349D02*
X148785474Y-108567349D01*
X142725474Y-94612349D02*
X142990474Y-94347349D01*
X145028773Y-99732349D02*
X145678773Y-100382349D01*
D45*
X135135474Y-108637349D02*
X135025474Y-108527349D01*
D44*
X147965474Y-94337349D02*
X148510474Y-94337349D01*
X148510474Y-94337349D02*
X149220474Y-95047349D01*
X124079074Y-103820002D02*
X122548127Y-103820002D01*
D46*
X118564800Y-75716000D02*
X118625200Y-75776400D01*
X126346800Y-91421800D02*
X128424800Y-91421800D01*
D44*
%TO.N,VCORE*%
X133776168Y-104826655D02*
X134345474Y-104257349D01*
X135530474Y-103732349D02*
X134870474Y-103732349D01*
X144137974Y-93607349D02*
X144867974Y-94337349D01*
X134870474Y-103732349D02*
X134345474Y-104257349D01*
X142505474Y-93167349D02*
X142945474Y-93607349D01*
X144867974Y-94337349D02*
X146065474Y-94337349D01*
X133776168Y-105442451D02*
X133776168Y-104826655D01*
X141725474Y-95537349D02*
X141725474Y-93947349D01*
X141725474Y-93947349D02*
X142505474Y-93167349D01*
X142945474Y-93607349D02*
X144137974Y-93607349D01*
%TO.N,/SCL*%
X121825600Y-78265600D02*
X123001200Y-77090000D01*
X123001200Y-77090000D02*
X140150000Y-77090000D01*
X141410000Y-75870000D02*
X141410000Y-77090000D01*
X122543400Y-81421800D02*
X121825600Y-80704000D01*
X157200600Y-77090000D02*
X141410000Y-77090000D01*
X124314800Y-81421800D02*
X122543400Y-81421800D01*
X141020000Y-77090000D02*
X140150000Y-77090000D01*
X158127800Y-81409600D02*
X158731800Y-80805600D01*
X155959900Y-81409600D02*
X158127800Y-81409600D01*
X121825600Y-80704000D02*
X121825600Y-78265600D01*
X141410000Y-77090000D02*
X141020000Y-77090000D01*
X158731800Y-78621200D02*
X157200600Y-77090000D01*
X158731800Y-80805600D02*
X158731800Y-78621200D01*
%TO.N,/SDA*%
X135420000Y-79630000D02*
X138360000Y-79630000D01*
X149580000Y-81409600D02*
X151849900Y-81409600D01*
X138360000Y-79630000D02*
X138870000Y-79630000D01*
X145802974Y-103732349D02*
X146117974Y-103417349D01*
X146117974Y-103417349D02*
X145932974Y-103232349D01*
X138870000Y-79630000D02*
X140150000Y-79630000D01*
X145500000Y-79630000D02*
X147290000Y-81420000D01*
X128424800Y-81421800D02*
X133628200Y-81421800D01*
X147300400Y-81409600D02*
X149580000Y-81409600D01*
X144420474Y-103732349D02*
X145802974Y-103732349D01*
X140150000Y-79630000D02*
X145500000Y-79630000D01*
X145932974Y-103232349D02*
X144420474Y-103232349D01*
X147290000Y-81420000D02*
X147300400Y-81409600D01*
X138870000Y-78410000D02*
X138870000Y-79630000D01*
X133628200Y-81421800D02*
X135420000Y-79630000D01*
%TO.N,/A2*%
X157886400Y-74550000D02*
X138870000Y-74550000D01*
X120631800Y-81339000D02*
X120631800Y-77554400D01*
X159798600Y-82964600D02*
X159798600Y-76462200D01*
X155959900Y-83409600D02*
X159353600Y-83409600D01*
X159353600Y-83409600D02*
X159798600Y-82964600D01*
X159798600Y-76462200D02*
X157886400Y-74550000D01*
X123636200Y-74550000D02*
X138460000Y-74550000D01*
X122714600Y-83421800D02*
X120631800Y-81339000D01*
X124314800Y-83421800D02*
X122714600Y-83421800D01*
X138870000Y-75870000D02*
X138870000Y-74550000D01*
X120631800Y-77554400D02*
X123636200Y-74550000D01*
X138870000Y-74550000D02*
X138460000Y-74550000D01*
%TO.N,/PLUG*%
X128424800Y-83421800D02*
X131608200Y-83421800D01*
X131608200Y-83421800D02*
X131660000Y-83370000D01*
X151830300Y-83390000D02*
X151849900Y-83409600D01*
X149480000Y-83390000D02*
X151830300Y-83390000D01*
%TO.N,/A0*%
X121808200Y-85421800D02*
X124314800Y-85421800D01*
X121780000Y-85450000D02*
X121808200Y-85421800D01*
%TO.N,/A1*%
X128426600Y-85420000D02*
X131390000Y-85420000D01*
X149219600Y-85409600D02*
X151849900Y-85409600D01*
X138440000Y-82140000D02*
X138870000Y-82140000D01*
X131390000Y-85420000D02*
X134670000Y-82140000D01*
X138870000Y-80950000D02*
X138870000Y-82140000D01*
X128424800Y-85421800D02*
X128426600Y-85420000D01*
X145950000Y-82140000D02*
X149219600Y-85409600D01*
X134670000Y-82140000D02*
X138440000Y-82140000D01*
X138870000Y-82140000D02*
X145950000Y-82140000D01*
%TO.N,/RX*%
X155959900Y-89409600D02*
X158549600Y-89409600D01*
X150135474Y-99657349D02*
X150175474Y-99617349D01*
X140725474Y-95537349D02*
X140725474Y-94527349D01*
X148445474Y-99657349D02*
X150135474Y-99657349D01*
X158549600Y-89409600D02*
X158580000Y-89440000D01*
X147214600Y-92134600D02*
X142370000Y-87290000D01*
X124314800Y-89421800D02*
X121838200Y-89421800D01*
X140725474Y-94527349D02*
X140335474Y-94137349D01*
X142370000Y-87290000D02*
X138870000Y-87290000D01*
X138870000Y-86030000D02*
X138870000Y-87290000D01*
%TO.N,/TX*%
X140735474Y-91307349D02*
X140775474Y-91347349D01*
X142677974Y-90867349D02*
X142677974Y-90817349D01*
X140775474Y-91347349D02*
X142197974Y-91347349D01*
X142197974Y-91347349D02*
X142677974Y-90867349D01*
%TO.N,Net-(U2-OSCI)*%
X127582500Y-111610000D02*
X128425000Y-110767500D01*
X126447500Y-111610000D02*
X127582500Y-111610000D01*
%TO.N,Net-(U2-VPHY)*%
X146230474Y-109687349D02*
X146230474Y-108972349D01*
X137190474Y-106047044D02*
X137190474Y-106647654D01*
X137190474Y-106647654D02*
X137835474Y-107292654D01*
X137835474Y-107292654D02*
X137835474Y-109787349D01*
X136595474Y-110147349D02*
X137560474Y-110147349D01*
X137633343Y-105622349D02*
X137615169Y-105622349D01*
X137835474Y-109787349D02*
X138085474Y-110037349D01*
X137615169Y-105622349D02*
X137190474Y-106047044D01*
X146230474Y-108972349D02*
X145905474Y-108647349D01*
X137725474Y-105530218D02*
X137633343Y-105622349D01*
X137560474Y-110147349D02*
X137770474Y-109937349D01*
X137725474Y-104427349D02*
X137725474Y-105530218D01*
%TO.N,Net-(U2-VPLL)*%
X140545474Y-109877349D02*
X141585474Y-109877349D01*
X140225474Y-109557349D02*
X140545474Y-109877349D01*
X140225474Y-104427349D02*
X140225474Y-107707349D01*
X140225474Y-107707349D02*
X140225474Y-109557349D01*
%TO.N,VCCIO*%
X124079074Y-106053749D02*
X123235474Y-106897349D01*
D46*
X155959900Y-93409600D02*
X158049600Y-93409600D01*
D44*
X124079074Y-105770000D02*
X124079074Y-106053749D01*
X148195474Y-109687349D02*
X148955474Y-110447349D01*
X148847974Y-105197349D02*
X149797974Y-106147349D01*
X144420474Y-102232349D02*
X145670474Y-102232349D01*
X134523118Y-100245633D02*
X134123758Y-100245633D01*
D46*
X158070000Y-93430000D02*
X158090000Y-93450000D01*
D44*
X145727974Y-96732349D02*
X144420474Y-96732349D01*
D46*
X121901800Y-93421800D02*
X121890000Y-93410000D01*
D44*
X133705474Y-99827349D02*
X133705474Y-100088935D01*
X134123758Y-100245633D02*
X133705474Y-99827349D01*
D46*
X158090000Y-93450000D02*
X158580000Y-93450000D01*
D44*
X124079074Y-104470000D02*
X122292823Y-104470000D01*
D46*
X124314800Y-93421800D02*
X122748200Y-93421800D01*
D44*
X148105474Y-111297349D02*
X148955474Y-110447349D01*
X134523118Y-100245633D02*
X134523118Y-100906579D01*
X147035474Y-102277349D02*
X145715474Y-102277349D01*
X130035474Y-99059849D02*
X130927974Y-98167349D01*
X135530474Y-96732349D02*
X133930474Y-96732349D01*
X147880474Y-109687349D02*
X148195474Y-109687349D01*
D46*
X123408000Y-93421800D02*
X123375000Y-93454800D01*
X122748200Y-93421800D02*
X121901800Y-93421800D01*
D44*
X135036402Y-99732349D02*
X134523118Y-100245633D01*
X133930474Y-96732349D02*
X133715474Y-96517349D01*
D46*
X124314800Y-93421800D02*
X123408000Y-93421800D01*
D44*
X130035474Y-99384849D02*
X130035474Y-99059849D01*
X135530474Y-99732349D02*
X135036402Y-99732349D01*
X148467974Y-105197349D02*
X148847974Y-105197349D01*
X145670474Y-102232349D02*
X145695474Y-102257349D01*
D46*
X158049600Y-93409600D02*
X158070000Y-93430000D01*
D44*
X147870474Y-111297349D02*
X148105474Y-111297349D01*
X145715474Y-102277349D02*
X145695474Y-102257349D01*
%TO.N,Net-(U2-DM)*%
X139245474Y-104447349D02*
X139225474Y-104427349D01*
X139237500Y-113615000D02*
X139227500Y-113605000D01*
X139987500Y-114515000D02*
X140237500Y-114265000D01*
X139245474Y-112202349D02*
X139245474Y-104447349D01*
X139494736Y-114515000D02*
X139987500Y-114515000D01*
X139237500Y-114257764D02*
X139494736Y-114515000D01*
X139237500Y-113615000D02*
X139237500Y-114257764D01*
X140237500Y-114265000D02*
X140237500Y-113615000D01*
%TO.N,Net-(U2-DP)*%
X139745474Y-111267349D02*
X139745474Y-104447349D01*
X139745474Y-104447349D02*
X139725474Y-104427349D01*
%TO.N,Net-(JP1-A)*%
X141225474Y-95537349D02*
X141225474Y-93097349D01*
X141225474Y-93097349D02*
X140735474Y-92607349D01*
%TO.N,Net-(JP2-A)*%
X145165169Y-99232349D02*
X145590169Y-99657349D01*
X145590169Y-99657349D02*
X147145474Y-99657349D01*
X144420474Y-99232349D02*
X145165169Y-99232349D01*
%TO.N,Net-(U1-D)*%
X129971874Y-104470000D02*
X128985274Y-104470000D01*
X128125474Y-103610200D02*
X128125474Y-101199849D01*
X130886276Y-104470000D02*
X129971874Y-104470000D01*
X135530474Y-102232349D02*
X133123927Y-102232349D01*
X133123927Y-102232349D02*
X130886276Y-104470000D01*
X128985274Y-104470000D02*
X128125474Y-103610200D01*
%TO.N,Net-(U1-Q)*%
X129971874Y-103820002D02*
X129971874Y-101273449D01*
X129971874Y-101273449D02*
X130035474Y-101209849D01*
X128200474Y-99374849D02*
X130035474Y-101209849D01*
%TO.N,Net-(U1-D)*%
X128107500Y-100777500D02*
X128182500Y-100777500D01*
%TO.N,Net-(U1-CS)*%
X130872670Y-105770000D02*
X129971874Y-105770000D01*
X135530474Y-103232349D02*
X133410321Y-103232349D01*
X129971874Y-105770000D02*
X128328125Y-105770000D01*
X133410321Y-103232349D02*
X130872670Y-105770000D01*
X128328125Y-105770000D02*
X124285474Y-101727349D01*
%TO.N,Net-(U1-CLK)*%
X129971874Y-105120002D02*
X128628127Y-105120002D01*
X126225474Y-102717349D02*
X126225474Y-101209849D01*
X130886272Y-105120002D02*
X129971874Y-105120002D01*
X133273925Y-102732349D02*
X130886272Y-105120002D01*
X135530474Y-102732349D02*
X133273925Y-102732349D01*
X128628127Y-105120002D02*
X126225474Y-102717349D01*
%TO.N,Net-(U2-REF)*%
X127327500Y-109540000D02*
X127937500Y-108930000D01*
X126680000Y-109540000D02*
X127327500Y-109540000D01*
%TD*%
M02*
