%TF.GenerationSoftware,KiCad,Pcbnew,8.0.0*%
%TF.CreationDate,2024-03-20T17:10:03-04:00*%
%TF.ProjectId,AntEater,416e7445-6174-4657-922e-6b696361645f,rev?*%
%TF.SameCoordinates,Original*%
%TF.FileFunction,Paste,Top*%
%TF.FilePolarity,Positive*%
%FSLAX46Y46*%
G04 Gerber Fmt 4.6, Leading zero omitted, Abs format (unit mm)*
G04 Created by KiCad (PCBNEW 8.0.0) date 2024-03-20 17:10:03*
%MOMM*%
%LPD*%
G01*
G04 APERTURE LIST*
G04 Aperture macros list*
%AMRoundRect*
0 Rectangle with rounded corners*
0 $1 Rounding radius*
0 $2 $3 $4 $5 $6 $7 $8 $9 X,Y pos of 4 corners*
0 Add a 4 corners polygon primitive as box body*
4,1,4,$2,$3,$4,$5,$6,$7,$8,$9,$2,$3,0*
0 Add four circle primitives for the rounded corners*
1,1,$1+$1,$2,$3*
1,1,$1+$1,$4,$5*
1,1,$1+$1,$6,$7*
1,1,$1+$1,$8,$9*
0 Add four rect primitives between the rounded corners*
20,1,$1+$1,$2,$3,$4,$5,0*
20,1,$1+$1,$4,$5,$6,$7,0*
20,1,$1+$1,$6,$7,$8,$9,0*
20,1,$1+$1,$8,$9,$2,$3,0*%
G04 Aperture macros list end*
%ADD10C,0.010000*%
%ADD11O,1.000000X1.800000*%
%ADD12O,1.000000X2.100000*%
%ADD13RoundRect,0.075000X-0.075000X-0.500000X0.075000X-0.500000X0.075000X0.500000X-0.075000X0.500000X0*%
%ADD14RoundRect,0.150000X-0.150000X-0.425000X0.150000X-0.425000X0.150000X0.425000X-0.150000X0.425000X0*%
%ADD15RoundRect,0.250000X0.262500X0.450000X-0.262500X0.450000X-0.262500X-0.450000X0.262500X-0.450000X0*%
%ADD16RoundRect,0.250000X0.250000X0.475000X-0.250000X0.475000X-0.250000X-0.475000X0.250000X-0.475000X0*%
%ADD17RoundRect,0.250000X-0.250000X-0.475000X0.250000X-0.475000X0.250000X0.475000X-0.250000X0.475000X0*%
%ADD18R,1.473200X0.355600*%
%ADD19RoundRect,0.250000X-0.159099X0.512652X-0.512652X0.159099X0.159099X-0.512652X0.512652X-0.159099X0*%
%ADD20RoundRect,0.200000X0.200000X0.275000X-0.200000X0.275000X-0.200000X-0.275000X0.200000X-0.275000X0*%
%ADD21RoundRect,0.250000X-0.475000X0.250000X-0.475000X-0.250000X0.475000X-0.250000X0.475000X0.250000X0*%
%ADD22R,1.900000X3.200000*%
%ADD23R,2.800000X1.100000*%
%ADD24R,0.952500X0.558800*%
%ADD25RoundRect,0.250000X-0.262500X-0.450000X0.262500X-0.450000X0.262500X0.450000X-0.262500X0.450000X0*%
%ADD26RoundRect,0.250000X0.450000X-0.262500X0.450000X0.262500X-0.450000X0.262500X-0.450000X-0.262500X0*%
%ADD27RoundRect,0.250000X-0.325000X-0.650000X0.325000X-0.650000X0.325000X0.650000X-0.325000X0.650000X0*%
%ADD28RoundRect,0.018900X-0.391100X-0.116100X0.391100X-0.116100X0.391100X0.116100X-0.391100X0.116100X0*%
%ADD29RoundRect,0.018900X-0.116100X0.391100X-0.116100X-0.391100X0.116100X-0.391100X0.116100X0.391100X0*%
%ADD30RoundRect,0.018900X0.391100X0.116100X-0.391100X0.116100X-0.391100X-0.116100X0.391100X-0.116100X0*%
%ADD31RoundRect,0.018900X0.116100X-0.391100X0.116100X0.391100X-0.116100X0.391100X-0.116100X-0.391100X0*%
%ADD32RoundRect,0.250000X0.325000X0.650000X-0.325000X0.650000X-0.325000X-0.650000X0.325000X-0.650000X0*%
%ADD33R,1.200000X1.800000*%
%ADD34RoundRect,0.250000X0.475000X-0.250000X0.475000X0.250000X-0.475000X0.250000X-0.475000X-0.250000X0*%
G04 APERTURE END LIST*
D10*
%TO.C,U2*%
X141835474Y-101842349D02*
X140295474Y-101842349D01*
X140295474Y-100302349D01*
X141835474Y-100302349D01*
X141835474Y-101842349D01*
G36*
X141835474Y-101842349D02*
G01*
X140295474Y-101842349D01*
X140295474Y-100302349D01*
X141835474Y-100302349D01*
X141835474Y-101842349D01*
G37*
X141835474Y-99662349D02*
X140295474Y-99662349D01*
X140295474Y-98122349D01*
X141835474Y-98122349D01*
X141835474Y-99662349D01*
G36*
X141835474Y-99662349D02*
G01*
X140295474Y-99662349D01*
X140295474Y-98122349D01*
X141835474Y-98122349D01*
X141835474Y-99662349D01*
G37*
X139655474Y-101842349D02*
X138115474Y-101842349D01*
X138115474Y-100302349D01*
X139655474Y-100302349D01*
X139655474Y-101842349D01*
G36*
X139655474Y-101842349D02*
G01*
X138115474Y-101842349D01*
X138115474Y-100302349D01*
X139655474Y-100302349D01*
X139655474Y-101842349D01*
G37*
X139655474Y-99662349D02*
X138115474Y-99662349D01*
X138115474Y-98122349D01*
X139655474Y-98122349D01*
X139655474Y-99662349D01*
G36*
X139655474Y-99662349D02*
G01*
X138115474Y-99662349D01*
X138115474Y-98122349D01*
X139655474Y-98122349D01*
X139655474Y-99662349D01*
G37*
%TD*%
D11*
%TO.C,J2*%
X144310000Y-118370000D03*
D12*
X144310000Y-114190000D03*
D11*
X135670000Y-118370000D03*
D12*
X135670000Y-114190000D03*
D13*
X138240000Y-113615000D03*
X139240000Y-113615000D03*
X140740000Y-113615000D03*
X141740000Y-113615000D03*
D14*
X142390000Y-113615000D03*
X143190000Y-113615000D03*
D13*
X141240000Y-113615000D03*
X140240000Y-113615000D03*
X139740000Y-113615000D03*
X138740000Y-113615000D03*
D14*
X137590000Y-113615000D03*
X136790000Y-113615000D03*
%TD*%
D15*
%TO.C,R5*%
X146565000Y-117580000D03*
X148390000Y-117580000D03*
%TD*%
D16*
%TO.C,C12*%
X135975474Y-107787349D03*
X137875474Y-107787349D03*
%TD*%
%TO.C,C10*%
X131795474Y-94557349D03*
X133695474Y-94557349D03*
%TD*%
D17*
%TO.C,C11*%
X148935474Y-102277349D03*
X147035474Y-102277349D03*
%TD*%
D18*
%TO.C,U1*%
X124079074Y-105770000D03*
X124079074Y-105120002D03*
X124079074Y-104470000D03*
X124079074Y-103820002D03*
X129971874Y-103820002D03*
X129971874Y-104470000D03*
X129971874Y-105120002D03*
X129971874Y-105770000D03*
%TD*%
D19*
%TO.C,C1*%
X132326223Y-106659101D03*
X133669725Y-105315597D03*
%TD*%
D20*
%TO.C,FB2*%
X146220474Y-111297349D03*
X147870474Y-111297349D03*
%TD*%
D15*
%TO.C,R3*%
X122307500Y-100940000D03*
X124132500Y-100940000D03*
%TD*%
D21*
%TO.C,C15*%
X151150000Y-115140000D03*
X151150000Y-113240000D03*
%TD*%
D22*
%TO.C,CN1*%
X118564800Y-75641800D03*
X118564800Y-99201800D03*
D23*
X128424800Y-95421800D03*
X124314800Y-95421800D03*
X128424800Y-93421800D03*
X124314800Y-93421800D03*
X128424800Y-91421800D03*
X124314800Y-91421800D03*
X128424800Y-89421800D03*
X124314800Y-89421800D03*
X128424800Y-87421800D03*
X124314800Y-87421800D03*
X128424800Y-85421800D03*
X124314800Y-85421800D03*
X128424800Y-83421800D03*
X124314800Y-83421800D03*
X128424800Y-81421800D03*
X124314800Y-81421800D03*
X128424800Y-79421800D03*
X124314800Y-79421800D03*
%TD*%
D20*
%TO.C,FB1*%
X147880474Y-109687349D03*
X146230474Y-109687349D03*
%TD*%
D17*
%TO.C,C3*%
X148555474Y-107137349D03*
X146655474Y-107137349D03*
%TD*%
D24*
%TO.C,U3*%
X156087950Y-113230200D03*
X156087950Y-115109800D03*
X153332050Y-115109800D03*
X153332050Y-114170000D03*
X153332050Y-113230200D03*
%TD*%
D15*
%TO.C,R8*%
X146642974Y-105197349D03*
X148467974Y-105197349D03*
%TD*%
D21*
%TO.C,C2*%
X126447500Y-113510000D03*
X126447500Y-111610000D03*
%TD*%
D17*
%TO.C,C5*%
X147965474Y-94337349D03*
X146065474Y-94337349D03*
%TD*%
D25*
%TO.C,R6*%
X126680000Y-109540000D03*
X124855000Y-109540000D03*
%TD*%
D26*
%TO.C,R1*%
X128125474Y-99384849D03*
X128125474Y-101209849D03*
%TD*%
D27*
%TO.C,C6*%
X144545000Y-110320000D03*
X141595000Y-110320000D03*
%TD*%
D17*
%TO.C,C8*%
X148940000Y-96730000D03*
X147040000Y-96730000D03*
%TD*%
D28*
%TO.C,U2*%
X135530474Y-103732349D03*
X135530474Y-103232349D03*
X135530474Y-102732349D03*
X135530474Y-102232349D03*
X135530474Y-101732349D03*
X135530474Y-101232349D03*
X135530474Y-100732349D03*
X135530474Y-100232349D03*
X135530474Y-99732349D03*
X135530474Y-99232349D03*
X135530474Y-98732349D03*
X135530474Y-98232349D03*
X135530474Y-97732349D03*
X135530474Y-97232349D03*
X135530474Y-96732349D03*
X135530474Y-96232349D03*
D29*
X136225474Y-95537349D03*
X136725474Y-95537349D03*
X137225474Y-95537349D03*
X137725474Y-95537349D03*
X138225474Y-95537349D03*
X138725474Y-95537349D03*
X139225474Y-95537349D03*
X139725474Y-95537349D03*
X140225474Y-95537349D03*
X140725474Y-95537349D03*
X141225474Y-95537349D03*
X141725474Y-95537349D03*
X142225474Y-95537349D03*
X142725474Y-95537349D03*
X143225474Y-95537349D03*
X143725474Y-95537349D03*
D30*
X144420474Y-96232349D03*
X144420474Y-96732349D03*
X144420474Y-97232349D03*
X144420474Y-97732349D03*
X144420474Y-98232349D03*
X144420474Y-98732349D03*
X144420474Y-99232349D03*
X144420474Y-99732349D03*
X144420474Y-100232349D03*
X144420474Y-100732349D03*
X144420474Y-101232349D03*
X144420474Y-101732349D03*
X144420474Y-102232349D03*
X144420474Y-102732349D03*
X144420474Y-103232349D03*
X144420474Y-103732349D03*
D31*
X143725474Y-104427349D03*
X143225474Y-104427349D03*
X142725474Y-104427349D03*
X142225474Y-104427349D03*
X141725474Y-104427349D03*
X141225474Y-104427349D03*
X140725474Y-104427349D03*
X140225474Y-104427349D03*
X139725474Y-104427349D03*
X139225474Y-104427349D03*
X138725474Y-104427349D03*
X138225474Y-104427349D03*
X137725474Y-104427349D03*
X137225474Y-104427349D03*
X136725474Y-104427349D03*
X136225474Y-104427349D03*
%TD*%
D22*
%TO.C,CN2*%
X161709900Y-99189600D03*
X161709900Y-75629600D03*
D23*
X151849900Y-79409600D03*
X155959900Y-79409600D03*
X151849900Y-81409600D03*
X155959900Y-81409600D03*
X151849900Y-83409600D03*
X155959900Y-83409600D03*
X151849900Y-85409600D03*
X155959900Y-85409600D03*
X151849900Y-87409600D03*
X155959900Y-87409600D03*
X151849900Y-89409600D03*
X155959900Y-89409600D03*
X151849900Y-91409600D03*
X155959900Y-91409600D03*
X151849900Y-93409600D03*
X155959900Y-93409600D03*
X151849900Y-95409600D03*
X155959900Y-95409600D03*
%TD*%
D26*
%TO.C,R4*%
X126225474Y-99384849D03*
X126225474Y-101209849D03*
%TD*%
D16*
%TO.C,C13*%
X131805474Y-99827349D03*
X133705474Y-99827349D03*
%TD*%
%TO.C,C14*%
X133715474Y-96517349D03*
X131815474Y-96517349D03*
%TD*%
D32*
%TO.C,C4*%
X134820474Y-109937349D03*
X137770474Y-109937349D03*
%TD*%
D33*
%TO.C,Y1*%
X130825000Y-110767500D03*
X130825000Y-114767500D03*
X128425000Y-114767500D03*
X128425000Y-110767500D03*
%TD*%
D21*
%TO.C,C16*%
X158220000Y-115190000D03*
X158220000Y-113290000D03*
%TD*%
D25*
%TO.C,R7*%
X133490000Y-117560000D03*
X131665000Y-117560000D03*
%TD*%
D17*
%TO.C,C9*%
X142860000Y-108170000D03*
X140960000Y-108170000D03*
%TD*%
D26*
%TO.C,R2*%
X130035474Y-99384849D03*
X130035474Y-101209849D03*
%TD*%
D34*
%TO.C,C7*%
X132757500Y-111610000D03*
X132757500Y-113510000D03*
%TD*%
M02*
