%TF.GenerationSoftware,KiCad,Pcbnew,8.0.0*%
%TF.CreationDate,2024-03-20T17:10:03-04:00*%
%TF.ProjectId,AntEater,416e7445-6174-4657-922e-6b696361645f,rev?*%
%TF.SameCoordinates,Original*%
%TF.FileFunction,Copper,L4,Bot*%
%TF.FilePolarity,Positive*%
%FSLAX46Y46*%
G04 Gerber Fmt 4.6, Leading zero omitted, Abs format (unit mm)*
G04 Created by KiCad (PCBNEW 8.0.0) date 2024-03-20 17:10:03*
%MOMM*%
%LPD*%
G01*
G04 APERTURE LIST*
%TA.AperFunction,ComponentPad*%
%ADD10O,1.000000X1.800000*%
%TD*%
%TA.AperFunction,ComponentPad*%
%ADD11O,1.000000X2.100000*%
%TD*%
%TA.AperFunction,ComponentPad*%
%ADD12O,1.700000X1.700000*%
%TD*%
%TA.AperFunction,ComponentPad*%
%ADD13R,1.700000X1.700000*%
%TD*%
%TA.AperFunction,ViaPad*%
%ADD14C,0.800000*%
%TD*%
%TA.AperFunction,ViaPad*%
%ADD15C,1.200000*%
%TD*%
%TA.AperFunction,Conductor*%
%ADD16C,0.250000*%
%TD*%
%TA.AperFunction,Conductor*%
%ADD17C,0.500000*%
%TD*%
G04 APERTURE END LIST*
D10*
%TO.P,J2,S1,SHIELD*%
%TO.N,/GND*%
X144310000Y-118370000D03*
D11*
X144310000Y-114190000D03*
D10*
X135670000Y-118370000D03*
D11*
X135670000Y-114190000D03*
%TD*%
D12*
%TO.P,J3,12,Pin_12*%
%TO.N,/GND*%
X141410000Y-88570000D03*
%TO.P,J3,11,Pin_11*%
X138870000Y-88570000D03*
%TO.P,J3,10,Pin_10*%
%TO.N,/A0*%
X141410000Y-86030000D03*
%TO.P,J3,9,Pin_9*%
%TO.N,/RX*%
X138870000Y-86030000D03*
%TO.P,J3,8,Pin_8*%
%TO.N,VCCIO*%
X141410000Y-83490000D03*
%TO.P,J3,7,Pin_7*%
%TO.N,/RST*%
X138870000Y-83490000D03*
%TO.P,J3,6,Pin_6*%
%TO.N,/TX*%
X141410000Y-80950000D03*
%TO.P,J3,5,Pin_5*%
%TO.N,/A1*%
X138870000Y-80950000D03*
%TO.P,J3,4,Pin_4*%
%TO.N,/PLUG*%
X141410000Y-78410000D03*
%TO.P,J3,3,Pin_3*%
%TO.N,/SDA*%
X138870000Y-78410000D03*
%TO.P,J3,2,Pin_2*%
%TO.N,/SCL*%
X141410000Y-75870000D03*
D13*
%TO.P,J3,1,Pin_1*%
%TO.N,/A2*%
X138870000Y-75870000D03*
%TD*%
D14*
%TO.N,/GND*%
X158300000Y-116590000D03*
X151170000Y-116420000D03*
X154660000Y-114150000D03*
%TO.N,VCCIO*%
X157040000Y-112420000D03*
%TO.N,/5V*%
X152260000Y-112400000D03*
%TO.N,/A0*%
X146860000Y-86310000D03*
%TO.N,/5V*%
X142410000Y-112340000D03*
X137580000Y-112340000D03*
%TO.N,VCCIO*%
X124640000Y-99340000D03*
%TO.N,/GND*%
X118447400Y-99093600D03*
X136745474Y-94327349D03*
X140986417Y-105670000D03*
X130390000Y-117570000D03*
X153837950Y-91430000D03*
X141427974Y-98477349D03*
X126346800Y-91421800D03*
X130950000Y-106980000D03*
X138427974Y-101407349D03*
X135025474Y-108527349D03*
X122260000Y-105840000D03*
X139975474Y-99982349D03*
X148785474Y-108567349D03*
X141477974Y-101427349D03*
X144430000Y-105685000D03*
X149800000Y-117600000D03*
X145695474Y-100382349D03*
X149220474Y-95047349D03*
X142568065Y-106215000D03*
X161703600Y-75624000D03*
X135447821Y-105189696D03*
X138507974Y-98477349D03*
X126372200Y-87421800D03*
X122110000Y-103350000D03*
X142990474Y-94347349D03*
X150285474Y-102317349D03*
X124200000Y-111030000D03*
X144245474Y-107967349D03*
X132775474Y-108927349D03*
X134296411Y-97886411D03*
X130547974Y-95627349D03*
X131867974Y-101457349D03*
X118625200Y-75776400D03*
X153905800Y-87409600D03*
X126657500Y-114910000D03*
X153905800Y-79409600D03*
X161729000Y-99169800D03*
X126372200Y-79421800D03*
X137915474Y-106347349D03*
%TO.N,VCORE*%
X134345474Y-104257349D03*
X141650000Y-106650000D03*
X134755474Y-95457349D03*
X142505474Y-93167349D03*
%TO.N,/SCL*%
X161670000Y-81340000D03*
X158127800Y-81409600D03*
%TO.N,/SDA*%
X160940000Y-82370000D03*
X149580000Y-81409600D03*
%TO.N,/PLUG*%
X131660000Y-83370000D03*
X149480000Y-83390000D03*
%TO.N,/A0*%
X121780000Y-85450000D03*
%TO.N,/RX*%
X150175474Y-99617349D03*
X140335474Y-94137349D03*
X147214600Y-92134600D03*
X135635000Y-89535000D03*
X158580000Y-89440000D03*
X121838200Y-89421800D03*
%TO.N,/TX*%
X149449600Y-89409600D03*
X142677974Y-90817349D03*
X133920000Y-84330000D03*
%TO.N,Net-(U2-VPHY)*%
X145905474Y-108647349D03*
X136595474Y-110147349D03*
%TO.N,VCCIO*%
X123235474Y-106897349D03*
X145695474Y-102257349D03*
X148955474Y-110447349D03*
D15*
X121890000Y-93410000D03*
D14*
X132230000Y-98160000D03*
X138830000Y-93820000D03*
X120900000Y-101780000D03*
X149797974Y-106147349D03*
X130970000Y-98140000D03*
D15*
X158580000Y-93450000D03*
D14*
X122125474Y-104637349D03*
X134523118Y-100906579D03*
X145727974Y-96732349D03*
%TO.N,Net-(U2-REF)*%
X127937500Y-108930000D03*
X138520474Y-111440000D03*
%TD*%
D16*
%TO.N,VCORE*%
X137235474Y-104257349D02*
X134345474Y-104257349D01*
X141650000Y-106650000D02*
X139628125Y-106650000D01*
X139628125Y-106650000D02*
X137235474Y-104257349D01*
%TO.N,/RX*%
X147214600Y-92134600D02*
X147500000Y-92420000D01*
X147500000Y-92420000D02*
X155600000Y-92420000D01*
X155600000Y-92420000D02*
X158580000Y-89440000D01*
%TO.N,/TX*%
X149449600Y-89409600D02*
X149449600Y-86769600D01*
X141525000Y-82210000D02*
X141410000Y-82095000D01*
X149449600Y-86769600D02*
X144890000Y-82210000D01*
X144890000Y-82210000D02*
X141525000Y-82210000D01*
X133920000Y-84330000D02*
X136050000Y-82200000D01*
X141305000Y-82200000D02*
X141410000Y-82095000D01*
X136050000Y-82200000D02*
X141305000Y-82200000D01*
%TO.N,/PLUG*%
X131660000Y-83370000D02*
X135350000Y-79680000D01*
X135350000Y-79680000D02*
X141285000Y-79680000D01*
X141285000Y-79680000D02*
X141410000Y-79555000D01*
X141410000Y-79555000D02*
X141515000Y-79660000D01*
X141515000Y-79660000D02*
X145750000Y-79660000D01*
X145750000Y-79660000D02*
X149480000Y-83390000D01*
%TO.N,/SDA*%
X150540400Y-82370000D02*
X149580000Y-81409600D01*
X160940000Y-82370000D02*
X150540400Y-82370000D01*
%TO.N,/A0*%
X146860000Y-86310000D02*
X146830000Y-86340000D01*
X146830000Y-86340000D02*
X145440000Y-86340000D01*
X145440000Y-86340000D02*
X145130000Y-86030000D01*
X145130000Y-86030000D02*
X141410000Y-86030000D01*
X141410000Y-86030000D02*
X140170000Y-87270000D01*
X140170000Y-87270000D02*
X138018299Y-87270000D01*
X138018299Y-87270000D02*
X137268299Y-86520000D01*
X137268299Y-86520000D02*
X122850000Y-86520000D01*
X122850000Y-86520000D02*
X121780000Y-85450000D01*
%TO.N,/RX*%
X135635000Y-89535000D02*
X135540000Y-89440000D01*
X135540000Y-89440000D02*
X121856400Y-89440000D01*
X121856400Y-89440000D02*
X121838200Y-89421800D01*
D17*
%TO.N,/5V*%
X152260000Y-112400000D02*
X152200000Y-112340000D01*
X152200000Y-112340000D02*
X142410000Y-112340000D01*
D16*
%TO.N,/TX*%
X142677974Y-90817349D02*
X148041851Y-90817349D01*
X148041851Y-90817349D02*
X149449600Y-89409600D01*
%TO.N,Net-(U2-REF)*%
X138380474Y-111580000D02*
X132147500Y-111580000D01*
X138520474Y-111440000D02*
X138380474Y-111580000D01*
X132147500Y-111580000D02*
X129497500Y-108930000D01*
X129497500Y-108930000D02*
X127937500Y-108930000D01*
D17*
%TO.N,/5V*%
X137580000Y-112340000D02*
X142410000Y-112340000D01*
D16*
%TO.N,/RX*%
X150175474Y-99617349D02*
X150175474Y-97544849D01*
X150175474Y-97544849D02*
X147214600Y-94583975D01*
X147214600Y-94583975D02*
X147214600Y-92134600D01*
X147084849Y-92004849D02*
X144990474Y-92004849D01*
X147214600Y-92134600D02*
X147084849Y-92004849D01*
%TO.N,VCORE*%
X139722830Y-95949993D02*
X142505474Y-93167349D01*
X135248118Y-103354705D02*
X134345474Y-104257349D01*
X134755474Y-95457349D02*
X135248118Y-95949993D01*
X135248118Y-95949993D02*
X135248118Y-103354705D01*
X135248118Y-95949993D02*
X139722830Y-95949993D01*
%TO.N,/SCL*%
X158197400Y-81340000D02*
X158127800Y-81409600D01*
X161670000Y-81340000D02*
X158197400Y-81340000D01*
%TO.N,/PLUG*%
X141410000Y-78410000D02*
X141410000Y-79555000D01*
%TO.N,/RX*%
X140335474Y-94137349D02*
X142467974Y-92004849D01*
X142467974Y-92004849D02*
X144990474Y-92004849D01*
%TO.N,/TX*%
X141410000Y-80950000D02*
X141410000Y-82095000D01*
%TO.N,Net-(U2-VPHY)*%
X144405474Y-110147349D02*
X136595474Y-110147349D01*
X145905474Y-108647349D02*
X144405474Y-110147349D01*
%TD*%
M02*
