%TF.GenerationSoftware,KiCad,Pcbnew,7.0.6-0*%
%TF.CreationDate,2023-11-06T09:59:00-05:00*%
%TF.ProjectId,AntSniffer,416e7453-6e69-4666-9665-722e6b696361,rev?*%
%TF.SameCoordinates,Original*%
%TF.FileFunction,Copper,L2,Bot*%
%TF.FilePolarity,Positive*%
%FSLAX46Y46*%
G04 Gerber Fmt 4.6, Leading zero omitted, Abs format (unit mm)*
G04 Created by KiCad (PCBNEW 7.0.6-0) date 2023-11-06 09:59:00*
%MOMM*%
%LPD*%
G01*
G04 APERTURE LIST*
%TA.AperFunction,ComponentPad*%
%ADD10R,1.700000X1.700000*%
%TD*%
%TA.AperFunction,ComponentPad*%
%ADD11O,1.700000X1.700000*%
%TD*%
%TA.AperFunction,ViaPad*%
%ADD12C,0.800000*%
%TD*%
G04 APERTURE END LIST*
D10*
%TO.P,J1,1,Pin_1*%
%TO.N,/A2*%
X168540000Y-44900000D03*
D11*
%TO.P,J1,2,Pin_2*%
%TO.N,/SCL*%
X168540000Y-47440000D03*
%TO.P,J1,3,Pin_3*%
%TO.N,/SDA*%
X168540000Y-49980000D03*
%TO.P,J1,4,Pin_4*%
%TO.N,/PLUG*%
X168540000Y-52520000D03*
%TO.P,J1,5,Pin_5*%
%TO.N,/A1*%
X168540000Y-55060000D03*
%TO.P,J1,6,Pin_6*%
%TO.N,/TX*%
X168540000Y-57600000D03*
%TO.P,J1,7,Pin_7*%
%TO.N,/RST*%
X168540000Y-60140000D03*
%TO.P,J1,8,Pin_8*%
%TO.N,/3V3*%
X168540000Y-62680000D03*
%TO.P,J1,9,Pin_9*%
%TO.N,/RX*%
X168540000Y-65220000D03*
%TO.P,J1,10,Pin_10*%
%TO.N,/A0*%
X168540000Y-67760000D03*
%TO.P,J1,11,Pin_11*%
%TO.N,GND*%
X168540000Y-70300000D03*
%TD*%
D12*
%TO.N,GND*%
X146837400Y-69443600D03*
X182295800Y-61759600D03*
X154736800Y-61771800D03*
X190093600Y-45974000D03*
X154762200Y-57771800D03*
X147015200Y-46126400D03*
X182295800Y-57759600D03*
X182295800Y-49759600D03*
X190119000Y-69519800D03*
X154762200Y-49771800D03*
%TD*%
%TA.AperFunction,Conductor*%
%TO.N,GND*%
G36*
X192550695Y-42545735D02*
G01*
X192593519Y-42549482D01*
X192719771Y-42561918D01*
X192739685Y-42565541D01*
X192806349Y-42583403D01*
X192899570Y-42611682D01*
X192915971Y-42617958D01*
X192983411Y-42649406D01*
X192986375Y-42650888D01*
X193023969Y-42670982D01*
X193070327Y-42695762D01*
X193076667Y-42699657D01*
X193142828Y-42745983D01*
X193146600Y-42748844D01*
X193218808Y-42808103D01*
X193223309Y-42812182D01*
X193280815Y-42869688D01*
X193284895Y-42874190D01*
X193344154Y-42946398D01*
X193347015Y-42950170D01*
X193393341Y-43016331D01*
X193397236Y-43022671D01*
X193442101Y-43106605D01*
X193443614Y-43109631D01*
X193475040Y-43177027D01*
X193481319Y-43193435D01*
X193509601Y-43286669D01*
X193527454Y-43353299D01*
X193531082Y-43373238D01*
X193543523Y-43499554D01*
X193547264Y-43542302D01*
X193547500Y-43547710D01*
X193547500Y-71615889D01*
X193547264Y-71621297D01*
X193543523Y-71664045D01*
X193531082Y-71790360D01*
X193527454Y-71810299D01*
X193509601Y-71876930D01*
X193481318Y-71970163D01*
X193475040Y-71986571D01*
X193443614Y-72053967D01*
X193442101Y-72056993D01*
X193397236Y-72140927D01*
X193393341Y-72147267D01*
X193347015Y-72213428D01*
X193344154Y-72217200D01*
X193284895Y-72289408D01*
X193280806Y-72293920D01*
X193223320Y-72351406D01*
X193218808Y-72355495D01*
X193146600Y-72414754D01*
X193142828Y-72417615D01*
X193076667Y-72463941D01*
X193070327Y-72467836D01*
X192986393Y-72512701D01*
X192983367Y-72514214D01*
X192915971Y-72545640D01*
X192899563Y-72551918D01*
X192806330Y-72580201D01*
X192739699Y-72598054D01*
X192719760Y-72601682D01*
X192593445Y-72614123D01*
X192552789Y-72617680D01*
X192550696Y-72617864D01*
X192545290Y-72618100D01*
X144487310Y-72618100D01*
X144481903Y-72617864D01*
X144479615Y-72617663D01*
X144439154Y-72614123D01*
X144312838Y-72601682D01*
X144292899Y-72598054D01*
X144226269Y-72580201D01*
X144133035Y-72551919D01*
X144116627Y-72545640D01*
X144068033Y-72522981D01*
X144049218Y-72514207D01*
X144046205Y-72512701D01*
X143962271Y-72467836D01*
X143955931Y-72463941D01*
X143889770Y-72417615D01*
X143885998Y-72414754D01*
X143813790Y-72355495D01*
X143809288Y-72351415D01*
X143751782Y-72293909D01*
X143747703Y-72289408D01*
X143688444Y-72217200D01*
X143685583Y-72213428D01*
X143639257Y-72147267D01*
X143635362Y-72140927D01*
X143610582Y-72094569D01*
X143590488Y-72056975D01*
X143589006Y-72054011D01*
X143557558Y-71986571D01*
X143551282Y-71970170D01*
X143522998Y-71876930D01*
X143505141Y-71810285D01*
X143501518Y-71790371D01*
X143489082Y-71664119D01*
X143485335Y-71621295D01*
X143485100Y-71615893D01*
X143485100Y-67760000D01*
X167184341Y-67760000D01*
X167204936Y-67995403D01*
X167204938Y-67995413D01*
X167266094Y-68223655D01*
X167266096Y-68223659D01*
X167266097Y-68223663D01*
X167365965Y-68437829D01*
X167365965Y-68437830D01*
X167365967Y-68437834D01*
X167501501Y-68631395D01*
X167501506Y-68631402D01*
X167668597Y-68798493D01*
X167668603Y-68798498D01*
X167854594Y-68928730D01*
X167898219Y-68983307D01*
X167905413Y-69052805D01*
X167873890Y-69115160D01*
X167854595Y-69131880D01*
X167668922Y-69261890D01*
X167668920Y-69261891D01*
X167501891Y-69428920D01*
X167501886Y-69428926D01*
X167366400Y-69622420D01*
X167366399Y-69622422D01*
X167266570Y-69836507D01*
X167266567Y-69836513D01*
X167209364Y-70049999D01*
X167209364Y-70050000D01*
X168106314Y-70050000D01*
X168080507Y-70090156D01*
X168040000Y-70228111D01*
X168040000Y-70371889D01*
X168080507Y-70509844D01*
X168106314Y-70550000D01*
X167209364Y-70550000D01*
X167266567Y-70763486D01*
X167266570Y-70763492D01*
X167366399Y-70977578D01*
X167501894Y-71171082D01*
X167668917Y-71338105D01*
X167862421Y-71473600D01*
X168076507Y-71573429D01*
X168076516Y-71573433D01*
X168290000Y-71630634D01*
X168290000Y-70735501D01*
X168397685Y-70784680D01*
X168504237Y-70800000D01*
X168575763Y-70800000D01*
X168682315Y-70784680D01*
X168790000Y-70735501D01*
X168790000Y-71630633D01*
X169003483Y-71573433D01*
X169003492Y-71573429D01*
X169217578Y-71473600D01*
X169411082Y-71338105D01*
X169578105Y-71171082D01*
X169713600Y-70977578D01*
X169813429Y-70763492D01*
X169813432Y-70763486D01*
X169870636Y-70550000D01*
X168973686Y-70550000D01*
X168999493Y-70509844D01*
X169040000Y-70371889D01*
X169040000Y-70228111D01*
X168999493Y-70090156D01*
X168973686Y-70050000D01*
X169870636Y-70050000D01*
X169870635Y-70049999D01*
X169813432Y-69836513D01*
X169813429Y-69836507D01*
X169713600Y-69622422D01*
X169713599Y-69622420D01*
X169578113Y-69428926D01*
X169578108Y-69428920D01*
X169411078Y-69261890D01*
X169225405Y-69131879D01*
X169181780Y-69077302D01*
X169174588Y-69007804D01*
X169206110Y-68945449D01*
X169225406Y-68928730D01*
X169411401Y-68798495D01*
X169578495Y-68631401D01*
X169714035Y-68437830D01*
X169813903Y-68223663D01*
X169875063Y-67995408D01*
X169895659Y-67760000D01*
X169875063Y-67524592D01*
X169813903Y-67296337D01*
X169714035Y-67082171D01*
X169578495Y-66888599D01*
X169578494Y-66888597D01*
X169411402Y-66721506D01*
X169411396Y-66721501D01*
X169225842Y-66591575D01*
X169182217Y-66536998D01*
X169175023Y-66467500D01*
X169206546Y-66405145D01*
X169225842Y-66388425D01*
X169248026Y-66372891D01*
X169411401Y-66258495D01*
X169578495Y-66091401D01*
X169714035Y-65897830D01*
X169813903Y-65683663D01*
X169875063Y-65455408D01*
X169895659Y-65220000D01*
X169875063Y-64984592D01*
X169813903Y-64756337D01*
X169714035Y-64542171D01*
X169578495Y-64348599D01*
X169578494Y-64348597D01*
X169411402Y-64181506D01*
X169411401Y-64181505D01*
X169225842Y-64051575D01*
X169225841Y-64051574D01*
X169182216Y-63996997D01*
X169175024Y-63927498D01*
X169206546Y-63865144D01*
X169225836Y-63848428D01*
X169411401Y-63718495D01*
X169578495Y-63551401D01*
X169714035Y-63357830D01*
X169813903Y-63143663D01*
X169875063Y-62915408D01*
X169895659Y-62680000D01*
X169875063Y-62444592D01*
X169813903Y-62216337D01*
X169714035Y-62002171D01*
X169578495Y-61808599D01*
X169578494Y-61808597D01*
X169411402Y-61641506D01*
X169411396Y-61641501D01*
X169225842Y-61511575D01*
X169182217Y-61456998D01*
X169175023Y-61387500D01*
X169206546Y-61325145D01*
X169225842Y-61308425D01*
X169248026Y-61292891D01*
X169411401Y-61178495D01*
X169578495Y-61011401D01*
X169714035Y-60817830D01*
X169813903Y-60603663D01*
X169875063Y-60375408D01*
X169895659Y-60140000D01*
X169875063Y-59904592D01*
X169813903Y-59676337D01*
X169714035Y-59462171D01*
X169578495Y-59268599D01*
X169578494Y-59268597D01*
X169411402Y-59101506D01*
X169411401Y-59101505D01*
X169225842Y-58971575D01*
X169225841Y-58971574D01*
X169182216Y-58916997D01*
X169175024Y-58847498D01*
X169206546Y-58785144D01*
X169225836Y-58768428D01*
X169411401Y-58638495D01*
X169578495Y-58471401D01*
X169714035Y-58277830D01*
X169813903Y-58063663D01*
X169875063Y-57835408D01*
X169895659Y-57600000D01*
X169875063Y-57364592D01*
X169813903Y-57136337D01*
X169714035Y-56922171D01*
X169578495Y-56728599D01*
X169578494Y-56728597D01*
X169411402Y-56561506D01*
X169411396Y-56561501D01*
X169225842Y-56431575D01*
X169182217Y-56376998D01*
X169175023Y-56307500D01*
X169206546Y-56245145D01*
X169225842Y-56228425D01*
X169248026Y-56212891D01*
X169411401Y-56098495D01*
X169578495Y-55931401D01*
X169714035Y-55737830D01*
X169813903Y-55523663D01*
X169875063Y-55295408D01*
X169895659Y-55060000D01*
X169875063Y-54824592D01*
X169813903Y-54596337D01*
X169714035Y-54382171D01*
X169578495Y-54188599D01*
X169578494Y-54188597D01*
X169411402Y-54021506D01*
X169411401Y-54021505D01*
X169225842Y-53891575D01*
X169225841Y-53891574D01*
X169182216Y-53836997D01*
X169175024Y-53767498D01*
X169206546Y-53705144D01*
X169225836Y-53688428D01*
X169411401Y-53558495D01*
X169578495Y-53391401D01*
X169714035Y-53197830D01*
X169813903Y-52983663D01*
X169875063Y-52755408D01*
X169895659Y-52520000D01*
X169875063Y-52284592D01*
X169813903Y-52056337D01*
X169714035Y-51842171D01*
X169578495Y-51648599D01*
X169578494Y-51648597D01*
X169411402Y-51481506D01*
X169411396Y-51481501D01*
X169225842Y-51351575D01*
X169182217Y-51296998D01*
X169175023Y-51227500D01*
X169206546Y-51165145D01*
X169225842Y-51148425D01*
X169248026Y-51132891D01*
X169411401Y-51018495D01*
X169578495Y-50851401D01*
X169714035Y-50657830D01*
X169813903Y-50443663D01*
X169875063Y-50215408D01*
X169895659Y-49980000D01*
X169875063Y-49744592D01*
X169813903Y-49516337D01*
X169714035Y-49302171D01*
X169578495Y-49108599D01*
X169578494Y-49108597D01*
X169411402Y-48941506D01*
X169411401Y-48941505D01*
X169225842Y-48811575D01*
X169225841Y-48811574D01*
X169182216Y-48756997D01*
X169175024Y-48687498D01*
X169206546Y-48625144D01*
X169225836Y-48608428D01*
X169411401Y-48478495D01*
X169578495Y-48311401D01*
X169714035Y-48117830D01*
X169813903Y-47903663D01*
X169875063Y-47675408D01*
X169895659Y-47440000D01*
X169875063Y-47204592D01*
X169813903Y-46976337D01*
X169714035Y-46762171D01*
X169578495Y-46568599D01*
X169456567Y-46446671D01*
X169423084Y-46385351D01*
X169428068Y-46315659D01*
X169469939Y-46259725D01*
X169500915Y-46242810D01*
X169632331Y-46193796D01*
X169747546Y-46107546D01*
X169833796Y-45992331D01*
X169884091Y-45857483D01*
X169890500Y-45797873D01*
X169890499Y-44002128D01*
X169884091Y-43942517D01*
X169833796Y-43807669D01*
X169833795Y-43807668D01*
X169833793Y-43807664D01*
X169747547Y-43692455D01*
X169747544Y-43692452D01*
X169632335Y-43606206D01*
X169632328Y-43606202D01*
X169497482Y-43555908D01*
X169497483Y-43555908D01*
X169437883Y-43549501D01*
X169437881Y-43549500D01*
X169437873Y-43549500D01*
X169437864Y-43549500D01*
X167642129Y-43549500D01*
X167642123Y-43549501D01*
X167582516Y-43555908D01*
X167447671Y-43606202D01*
X167447664Y-43606206D01*
X167332455Y-43692452D01*
X167332452Y-43692455D01*
X167246206Y-43807664D01*
X167246202Y-43807671D01*
X167195908Y-43942517D01*
X167189501Y-44002116D01*
X167189501Y-44002123D01*
X167189500Y-44002135D01*
X167189500Y-45797870D01*
X167189501Y-45797876D01*
X167195908Y-45857483D01*
X167246202Y-45992328D01*
X167246206Y-45992335D01*
X167332452Y-46107544D01*
X167332455Y-46107547D01*
X167447664Y-46193793D01*
X167447671Y-46193797D01*
X167579081Y-46242810D01*
X167635015Y-46284681D01*
X167659432Y-46350145D01*
X167644580Y-46418418D01*
X167623430Y-46446673D01*
X167501503Y-46568600D01*
X167365965Y-46762169D01*
X167365964Y-46762171D01*
X167266098Y-46976335D01*
X167266094Y-46976344D01*
X167204938Y-47204586D01*
X167204936Y-47204596D01*
X167184341Y-47439999D01*
X167184341Y-47440000D01*
X167204936Y-47675403D01*
X167204938Y-47675413D01*
X167266094Y-47903655D01*
X167266096Y-47903659D01*
X167266097Y-47903663D01*
X167365965Y-48117829D01*
X167365965Y-48117830D01*
X167365967Y-48117834D01*
X167501501Y-48311395D01*
X167501506Y-48311402D01*
X167668597Y-48478493D01*
X167668603Y-48478498D01*
X167854158Y-48608425D01*
X167897783Y-48663002D01*
X167904977Y-48732500D01*
X167873454Y-48794855D01*
X167854158Y-48811575D01*
X167668597Y-48941505D01*
X167501505Y-49108597D01*
X167365965Y-49302169D01*
X167365964Y-49302171D01*
X167266098Y-49516335D01*
X167266094Y-49516344D01*
X167204938Y-49744586D01*
X167204936Y-49744596D01*
X167184341Y-49979999D01*
X167184341Y-49980000D01*
X167204936Y-50215403D01*
X167204938Y-50215413D01*
X167266094Y-50443655D01*
X167266096Y-50443659D01*
X167266097Y-50443663D01*
X167365965Y-50657829D01*
X167365965Y-50657830D01*
X167365967Y-50657834D01*
X167501501Y-50851395D01*
X167501506Y-50851402D01*
X167668597Y-51018493D01*
X167668603Y-51018498D01*
X167854158Y-51148425D01*
X167897783Y-51203002D01*
X167904977Y-51272500D01*
X167873454Y-51334855D01*
X167854158Y-51351575D01*
X167668597Y-51481505D01*
X167501505Y-51648597D01*
X167365965Y-51842169D01*
X167365964Y-51842171D01*
X167266098Y-52056335D01*
X167266094Y-52056344D01*
X167204938Y-52284586D01*
X167204936Y-52284596D01*
X167184341Y-52519999D01*
X167184341Y-52520000D01*
X167204936Y-52755403D01*
X167204938Y-52755413D01*
X167266094Y-52983655D01*
X167266096Y-52983659D01*
X167266097Y-52983663D01*
X167365965Y-53197830D01*
X167365967Y-53197834D01*
X167501501Y-53391395D01*
X167501506Y-53391402D01*
X167668597Y-53558493D01*
X167668603Y-53558498D01*
X167854158Y-53688425D01*
X167897783Y-53743002D01*
X167904977Y-53812500D01*
X167873454Y-53874855D01*
X167854158Y-53891575D01*
X167668597Y-54021505D01*
X167501505Y-54188597D01*
X167365965Y-54382169D01*
X167365964Y-54382171D01*
X167266098Y-54596335D01*
X167266094Y-54596344D01*
X167204938Y-54824586D01*
X167204936Y-54824596D01*
X167184341Y-55059999D01*
X167184341Y-55060000D01*
X167204936Y-55295403D01*
X167204938Y-55295413D01*
X167266094Y-55523655D01*
X167266096Y-55523659D01*
X167266097Y-55523663D01*
X167365965Y-55737830D01*
X167365967Y-55737834D01*
X167501501Y-55931395D01*
X167501506Y-55931402D01*
X167668597Y-56098493D01*
X167668603Y-56098498D01*
X167854158Y-56228425D01*
X167897783Y-56283002D01*
X167904977Y-56352500D01*
X167873454Y-56414855D01*
X167854158Y-56431575D01*
X167668597Y-56561505D01*
X167501505Y-56728597D01*
X167365965Y-56922169D01*
X167365964Y-56922171D01*
X167266098Y-57136335D01*
X167266094Y-57136344D01*
X167204938Y-57364586D01*
X167204936Y-57364596D01*
X167184341Y-57599999D01*
X167184341Y-57600000D01*
X167204936Y-57835403D01*
X167204938Y-57835413D01*
X167266094Y-58063655D01*
X167266096Y-58063659D01*
X167266097Y-58063663D01*
X167365965Y-58277829D01*
X167365965Y-58277830D01*
X167365967Y-58277834D01*
X167501501Y-58471395D01*
X167501506Y-58471402D01*
X167668597Y-58638493D01*
X167668603Y-58638498D01*
X167854158Y-58768425D01*
X167897783Y-58823002D01*
X167904977Y-58892500D01*
X167873454Y-58954855D01*
X167854158Y-58971575D01*
X167668597Y-59101505D01*
X167501505Y-59268597D01*
X167365965Y-59462169D01*
X167365964Y-59462171D01*
X167266098Y-59676335D01*
X167266094Y-59676344D01*
X167204938Y-59904586D01*
X167204936Y-59904596D01*
X167184341Y-60139999D01*
X167184341Y-60140000D01*
X167204936Y-60375403D01*
X167204938Y-60375413D01*
X167266094Y-60603655D01*
X167266096Y-60603659D01*
X167266097Y-60603663D01*
X167365965Y-60817830D01*
X167365967Y-60817834D01*
X167501501Y-61011395D01*
X167501506Y-61011402D01*
X167668597Y-61178493D01*
X167668603Y-61178498D01*
X167854158Y-61308425D01*
X167897783Y-61363002D01*
X167904977Y-61432500D01*
X167873454Y-61494855D01*
X167854158Y-61511575D01*
X167668597Y-61641505D01*
X167501505Y-61808597D01*
X167365965Y-62002169D01*
X167365964Y-62002171D01*
X167266098Y-62216335D01*
X167266094Y-62216344D01*
X167204938Y-62444586D01*
X167204936Y-62444596D01*
X167184341Y-62679999D01*
X167184341Y-62680000D01*
X167204936Y-62915403D01*
X167204938Y-62915413D01*
X167266094Y-63143655D01*
X167266096Y-63143659D01*
X167266097Y-63143663D01*
X167365965Y-63357829D01*
X167365965Y-63357830D01*
X167365967Y-63357834D01*
X167501501Y-63551395D01*
X167501506Y-63551402D01*
X167668597Y-63718493D01*
X167668603Y-63718498D01*
X167854158Y-63848425D01*
X167897783Y-63903002D01*
X167904977Y-63972500D01*
X167873454Y-64034855D01*
X167854158Y-64051575D01*
X167668597Y-64181505D01*
X167501505Y-64348597D01*
X167365965Y-64542169D01*
X167365964Y-64542171D01*
X167266098Y-64756335D01*
X167266094Y-64756344D01*
X167204938Y-64984586D01*
X167204936Y-64984596D01*
X167184341Y-65219999D01*
X167184341Y-65220000D01*
X167204936Y-65455403D01*
X167204938Y-65455413D01*
X167266094Y-65683655D01*
X167266096Y-65683659D01*
X167266097Y-65683663D01*
X167365965Y-65897829D01*
X167365965Y-65897830D01*
X167365967Y-65897834D01*
X167501501Y-66091395D01*
X167501506Y-66091402D01*
X167668597Y-66258493D01*
X167668603Y-66258498D01*
X167854158Y-66388425D01*
X167897783Y-66443002D01*
X167904977Y-66512500D01*
X167873454Y-66574855D01*
X167854158Y-66591575D01*
X167668597Y-66721505D01*
X167501505Y-66888597D01*
X167365965Y-67082169D01*
X167365964Y-67082171D01*
X167266098Y-67296335D01*
X167266094Y-67296344D01*
X167204938Y-67524586D01*
X167204936Y-67524596D01*
X167184341Y-67759999D01*
X167184341Y-67760000D01*
X143485100Y-67760000D01*
X143485100Y-43547704D01*
X143485336Y-43542298D01*
X143489082Y-43499479D01*
X143501518Y-43373221D01*
X143505142Y-43353309D01*
X143523002Y-43286653D01*
X143551283Y-43193424D01*
X143557553Y-43177037D01*
X143589020Y-43109558D01*
X143590472Y-43106653D01*
X143635364Y-43022666D01*
X143639257Y-43016331D01*
X143672437Y-42968945D01*
X143685594Y-42950155D01*
X143688427Y-42946420D01*
X143747722Y-42874168D01*
X143751762Y-42869710D01*
X143809310Y-42812162D01*
X143813768Y-42808122D01*
X143886020Y-42748827D01*
X143889755Y-42745994D01*
X143955934Y-42699654D01*
X143962266Y-42695764D01*
X144046253Y-42650872D01*
X144049158Y-42649420D01*
X144116637Y-42617953D01*
X144133024Y-42611683D01*
X144226253Y-42583402D01*
X144292909Y-42565542D01*
X144312823Y-42561918D01*
X144439142Y-42549477D01*
X144481905Y-42545735D01*
X144487306Y-42545500D01*
X192545293Y-42545500D01*
X192550695Y-42545735D01*
G37*
%TD.AperFunction*%
%TD*%
M02*
