M48
; DRILL file {KiCad 7.0.6-0} date 2023 November 06, Monday 09:59:03
; FORMAT={-:-/ absolute / inch / decimal}
; #@! TF.CreationDate,2023-11-06T09:59:03-05:00
; #@! TF.GenerationSoftware,Kicad,Pcbnew,7.0.6-0
; #@! TF.FileFunction,Plated,1,2,PTH
FMAT,2
INCH
; #@! TA.AperFunction,Plated,PTH,ViaDrill
T1C0.0157
; #@! TA.AperFunction,Plated,PTH,ComponentDrill
T2C0.0394
%
G90
G05
T1
X5.781Y-2.734
X5.788Y-1.816
X6.092Y-2.432
X6.093Y-1.9595
X6.093Y-2.2745
X7.177Y-1.959
X7.177Y-2.274
X7.177Y-2.4315
X7.484Y-1.81
X7.485Y-2.737
T2
X6.6354Y-1.7677
X6.6354Y-1.8677
X6.6354Y-1.9677
X6.6354Y-2.0677
X6.6354Y-2.1677
X6.6354Y-2.2677
X6.6354Y-2.3677
X6.6354Y-2.4677
X6.6354Y-2.5677
X6.6354Y-2.6677
X6.6354Y-2.7677
T0
M30
