%TF.GenerationSoftware,KiCad,Pcbnew,7.0.6-0*%
%TF.CreationDate,2023-11-06T09:59:01-05:00*%
%TF.ProjectId,AntSniffer,416e7453-6e69-4666-9665-722e6b696361,rev?*%
%TF.SameCoordinates,Original*%
%TF.FileFunction,Soldermask,Top*%
%TF.FilePolarity,Negative*%
%FSLAX46Y46*%
G04 Gerber Fmt 4.6, Leading zero omitted, Abs format (unit mm)*
G04 Created by KiCad (PCBNEW 7.0.6-0) date 2023-11-06 09:59:01*
%MOMM*%
%LPD*%
G01*
G04 APERTURE LIST*
%ADD10R,2.800000X1.100000*%
%ADD11R,1.900000X3.200000*%
%ADD12R,1.700000X1.700000*%
%ADD13O,1.700000X1.700000*%
G04 APERTURE END LIST*
D10*
%TO.C,CN2*%
X184349900Y-65759600D03*
X180239900Y-65759600D03*
X184349900Y-63759600D03*
X180239900Y-63759600D03*
X184349900Y-61759600D03*
X180239900Y-61759600D03*
X184349900Y-59759600D03*
X180239900Y-59759600D03*
X184349900Y-57759600D03*
X180239900Y-57759600D03*
X184349900Y-55759600D03*
X180239900Y-55759600D03*
X184349900Y-53759600D03*
X180239900Y-53759600D03*
X184349900Y-51759600D03*
X180239900Y-51759600D03*
X184349900Y-49759600D03*
X180239900Y-49759600D03*
D11*
X190099900Y-45979600D03*
X190099900Y-69539600D03*
%TD*%
D10*
%TO.C,CN1*%
X152704800Y-49771800D03*
X156814800Y-49771800D03*
X152704800Y-51771800D03*
X156814800Y-51771800D03*
X152704800Y-53771800D03*
X156814800Y-53771800D03*
X152704800Y-55771800D03*
X156814800Y-55771800D03*
X152704800Y-57771800D03*
X156814800Y-57771800D03*
X152704800Y-59771800D03*
X156814800Y-59771800D03*
X152704800Y-61771800D03*
X156814800Y-61771800D03*
X152704800Y-63771800D03*
X156814800Y-63771800D03*
X152704800Y-65771800D03*
X156814800Y-65771800D03*
D11*
X146954800Y-69551800D03*
X146954800Y-45991800D03*
%TD*%
D12*
%TO.C,J1*%
X168540000Y-44900000D03*
D13*
X168540000Y-47440000D03*
X168540000Y-49980000D03*
X168540000Y-52520000D03*
X168540000Y-55060000D03*
X168540000Y-57600000D03*
X168540000Y-60140000D03*
X168540000Y-62680000D03*
X168540000Y-65220000D03*
X168540000Y-67760000D03*
X168540000Y-70300000D03*
%TD*%
M02*
