%TF.GenerationSoftware,KiCad,Pcbnew,7.0.6-0*%
%TF.CreationDate,2023-11-06T09:59:00-05:00*%
%TF.ProjectId,AntSniffer,416e7453-6e69-4666-9665-722e6b696361,rev?*%
%TF.SameCoordinates,Original*%
%TF.FileFunction,Copper,L1,Top*%
%TF.FilePolarity,Positive*%
%FSLAX46Y46*%
G04 Gerber Fmt 4.6, Leading zero omitted, Abs format (unit mm)*
G04 Created by KiCad (PCBNEW 7.0.6-0) date 2023-11-06 09:59:00*
%MOMM*%
%LPD*%
G01*
G04 APERTURE LIST*
%TA.AperFunction,SMDPad,CuDef*%
%ADD10R,2.800000X1.100000*%
%TD*%
%TA.AperFunction,SMDPad,CuDef*%
%ADD11R,1.900000X3.200000*%
%TD*%
%TA.AperFunction,ComponentPad*%
%ADD12R,1.700000X1.700000*%
%TD*%
%TA.AperFunction,ComponentPad*%
%ADD13O,1.700000X1.700000*%
%TD*%
%TA.AperFunction,ViaPad*%
%ADD14C,0.800000*%
%TD*%
%TA.AperFunction,Conductor*%
%ADD15C,0.750000*%
%TD*%
G04 APERTURE END LIST*
D10*
%TO.P,CN2,1,1*%
%TO.N,unconnected-(CN2-Pad1)*%
X184349900Y-65759600D03*
%TO.P,CN2,2,2*%
%TO.N,unconnected-(CN2-Pad2)*%
X180239900Y-65759600D03*
%TO.P,CN2,3,3*%
%TO.N,/3V3*%
X184349900Y-63759600D03*
%TO.P,CN2,4,4*%
%TO.N,/RST*%
X180239900Y-63759600D03*
%TO.P,CN2,5,5*%
%TO.N,GND*%
X184349900Y-61759600D03*
%TO.P,CN2,6,6*%
X180239900Y-61759600D03*
%TO.P,CN2,7,7*%
%TO.N,/RX*%
X184349900Y-59759600D03*
%TO.P,CN2,8,8*%
%TO.N,/TX*%
X180239900Y-59759600D03*
%TO.P,CN2,9,9*%
%TO.N,GND*%
X184349900Y-57759600D03*
%TO.P,CN2,10,10*%
X180239900Y-57759600D03*
%TO.P,CN2,11,11*%
%TO.N,/A0*%
X184349900Y-55759600D03*
%TO.P,CN2,12,12*%
%TO.N,/A1*%
X180239900Y-55759600D03*
%TO.P,CN2,13,13*%
%TO.N,/A2*%
X184349900Y-53759600D03*
%TO.P,CN2,14,14*%
%TO.N,/PLUG*%
X180239900Y-53759600D03*
%TO.P,CN2,15,15*%
%TO.N,/SCL*%
X184349900Y-51759600D03*
%TO.P,CN2,16,16*%
%TO.N,/SDA*%
X180239900Y-51759600D03*
%TO.P,CN2,17,17*%
%TO.N,GND*%
X184349900Y-49759600D03*
%TO.P,CN2,18,18*%
X180239900Y-49759600D03*
D11*
%TO.P,CN2,19,19*%
X190099900Y-45979600D03*
%TO.P,CN2,20,20*%
X190099900Y-69539600D03*
%TD*%
D10*
%TO.P,CN1,1,1*%
%TO.N,GND*%
X152704800Y-49771800D03*
%TO.P,CN1,2,2*%
X156814800Y-49771800D03*
%TO.P,CN1,3,3*%
%TO.N,/SCL*%
X152704800Y-51771800D03*
%TO.P,CN1,4,4*%
%TO.N,/SDA*%
X156814800Y-51771800D03*
%TO.P,CN1,5,5*%
%TO.N,/A2*%
X152704800Y-53771800D03*
%TO.P,CN1,6,6*%
%TO.N,/PLUG*%
X156814800Y-53771800D03*
%TO.P,CN1,7,7*%
%TO.N,/A0*%
X152704800Y-55771800D03*
%TO.P,CN1,8,8*%
%TO.N,/A1*%
X156814800Y-55771800D03*
%TO.P,CN1,9,9*%
%TO.N,GND*%
X152704800Y-57771800D03*
%TO.P,CN1,10,10*%
X156814800Y-57771800D03*
%TO.P,CN1,11,11*%
%TO.N,/RX*%
X152704800Y-59771800D03*
%TO.P,CN1,12,12*%
%TO.N,/TX*%
X156814800Y-59771800D03*
%TO.P,CN1,13,13*%
%TO.N,GND*%
X152704800Y-61771800D03*
%TO.P,CN1,14,14*%
X156814800Y-61771800D03*
%TO.P,CN1,15,15*%
%TO.N,/3V3*%
X152704800Y-63771800D03*
%TO.P,CN1,16,16*%
%TO.N,/RST*%
X156814800Y-63771800D03*
%TO.P,CN1,17,17*%
%TO.N,unconnected-(CN1-Pad17)*%
X152704800Y-65771800D03*
%TO.P,CN1,18,18*%
%TO.N,unconnected-(CN1-Pad18)*%
X156814800Y-65771800D03*
D11*
%TO.P,CN1,19,19*%
%TO.N,GND*%
X146954800Y-69551800D03*
%TO.P,CN1,20,20*%
X146954800Y-45991800D03*
%TD*%
D12*
%TO.P,J1,1,Pin_1*%
%TO.N,/A2*%
X168540000Y-44900000D03*
D13*
%TO.P,J1,2,Pin_2*%
%TO.N,/SCL*%
X168540000Y-47440000D03*
%TO.P,J1,3,Pin_3*%
%TO.N,/SDA*%
X168540000Y-49980000D03*
%TO.P,J1,4,Pin_4*%
%TO.N,/PLUG*%
X168540000Y-52520000D03*
%TO.P,J1,5,Pin_5*%
%TO.N,/A1*%
X168540000Y-55060000D03*
%TO.P,J1,6,Pin_6*%
%TO.N,/TX*%
X168540000Y-57600000D03*
%TO.P,J1,7,Pin_7*%
%TO.N,/RST*%
X168540000Y-60140000D03*
%TO.P,J1,8,Pin_8*%
%TO.N,/3V3*%
X168540000Y-62680000D03*
%TO.P,J1,9,Pin_9*%
%TO.N,/RX*%
X168540000Y-65220000D03*
%TO.P,J1,10,Pin_10*%
%TO.N,/A0*%
X168540000Y-67760000D03*
%TO.P,J1,11,Pin_11*%
%TO.N,GND*%
X168540000Y-70300000D03*
%TD*%
D14*
%TO.N,GND*%
X146837400Y-69443600D03*
X182295800Y-61759600D03*
X154736800Y-61771800D03*
X190093600Y-45974000D03*
X154762200Y-57771800D03*
X147015200Y-46126400D03*
X182295800Y-57759600D03*
X182295800Y-49759600D03*
X190119000Y-69519800D03*
X154762200Y-49771800D03*
%TD*%
D15*
%TO.N,/RX*%
X152704800Y-59771800D02*
X150667200Y-59771800D01*
X149650000Y-67710000D02*
X150840000Y-68900000D01*
X150840000Y-68900000D02*
X161200000Y-68900000D01*
X150667200Y-59771800D02*
X149650000Y-60789000D01*
X149650000Y-60789000D02*
X149650000Y-67710000D01*
X161200000Y-68900000D02*
X164880000Y-65220000D01*
X164880000Y-65220000D02*
X168540000Y-65220000D01*
X184349900Y-59759600D02*
X186277000Y-59759600D01*
X186277000Y-59759600D02*
X187520000Y-61002600D01*
X187520000Y-61002600D02*
X187520000Y-67200000D01*
X185880000Y-68840000D02*
X176040000Y-68840000D01*
X187520000Y-67200000D02*
X185880000Y-68840000D01*
X176040000Y-68840000D02*
X172410000Y-65210000D01*
X172410000Y-65210000D02*
X172400000Y-65220000D01*
X172400000Y-65220000D02*
X168540000Y-65220000D01*
%TO.N,/A0*%
X185990000Y-70500000D02*
X174900000Y-70500000D01*
X186493400Y-55759600D02*
X188574900Y-57841100D01*
X184349900Y-55759600D02*
X186493400Y-55759600D01*
X188574900Y-57841100D02*
X188574900Y-67915100D01*
X188574900Y-67915100D02*
X185990000Y-70500000D01*
X174900000Y-70500000D02*
X172160000Y-67760000D01*
X172160000Y-67760000D02*
X168540000Y-67760000D01*
%TO.N,/3V3*%
X184349900Y-63759600D02*
X186439600Y-63759600D01*
X186460000Y-63780000D02*
X186460000Y-66480000D01*
X172930000Y-62730000D02*
X172930000Y-62680000D01*
X186439600Y-63759600D02*
X186460000Y-63780000D01*
X186460000Y-66480000D02*
X185500000Y-67440000D01*
X185500000Y-67440000D02*
X177640000Y-67440000D01*
X177640000Y-67440000D02*
X172930000Y-62730000D01*
X172930000Y-62680000D02*
X168540000Y-62680000D01*
%TO.N,/A0*%
X152704800Y-55771800D02*
X150755600Y-55771800D01*
X150480000Y-70470000D02*
X162260000Y-70470000D01*
X150755600Y-55771800D02*
X148600000Y-57927400D01*
X148600000Y-57927400D02*
X148600000Y-68590000D01*
X164970000Y-67760000D02*
X168540000Y-67760000D01*
X148600000Y-68590000D02*
X150480000Y-70470000D01*
X162260000Y-70470000D02*
X164970000Y-67760000D01*
%TO.N,/A2*%
X184349900Y-53759600D02*
X187743600Y-53759600D01*
X189130000Y-52373200D02*
X189130000Y-49480800D01*
X189130000Y-49480800D02*
X188188600Y-48539400D01*
X188188600Y-48539400D02*
X188188600Y-46812200D01*
X187743600Y-53759600D02*
X189130000Y-52373200D01*
X188188600Y-46812200D02*
X186276400Y-44900000D01*
X186276400Y-44900000D02*
X168540000Y-44900000D01*
%TO.N,/3V3*%
X150670000Y-66837000D02*
X151273000Y-67440000D01*
X151138200Y-63771800D02*
X150670000Y-64240000D01*
X150670000Y-64240000D02*
X150670000Y-66837000D01*
X152704800Y-63771800D02*
X151138200Y-63771800D01*
X151273000Y-67440000D02*
X159670000Y-67440000D01*
X159670000Y-67440000D02*
X164430000Y-62680000D01*
X164430000Y-62680000D02*
X168540000Y-62680000D01*
%TO.N,/RST*%
X168540000Y-60140000D02*
X173120000Y-60140000D01*
X173120000Y-60140000D02*
X176739600Y-63759600D01*
X176739600Y-63759600D02*
X180239900Y-63759600D01*
X168540000Y-60140000D02*
X163840000Y-60140000D01*
X163130000Y-60130000D02*
X159488200Y-63771800D01*
X163840000Y-60140000D02*
X163830000Y-60130000D01*
X163830000Y-60130000D02*
X163130000Y-60130000D01*
X159488200Y-63771800D02*
X156814800Y-63771800D01*
%TO.N,/TX*%
X168540000Y-57600000D02*
X175300000Y-57600000D01*
X177459600Y-59759600D02*
X180239900Y-59759600D01*
X175300000Y-57600000D02*
X177459600Y-59759600D01*
X156814800Y-59771800D02*
X159788200Y-59771800D01*
X159788200Y-59771800D02*
X161960000Y-57600000D01*
X161960000Y-57600000D02*
X168540000Y-57600000D01*
%TO.N,/A1*%
X168540000Y-55060000D02*
X172990000Y-55060000D01*
X172990000Y-55060000D02*
X173689600Y-55759600D01*
X173689600Y-55759600D02*
X180239900Y-55759600D01*
X156814800Y-55771800D02*
X164788200Y-55771800D01*
X164788200Y-55771800D02*
X165500000Y-55060000D01*
X165500000Y-55060000D02*
X168540000Y-55060000D01*
%TO.N,/PLUG*%
X168540000Y-52520000D02*
X173360000Y-52520000D01*
X173360000Y-52520000D02*
X174599600Y-53759600D01*
X174599600Y-53759600D02*
X180239900Y-53759600D01*
X163128200Y-53771800D02*
X164380000Y-52520000D01*
X164380000Y-52520000D02*
X168540000Y-52520000D01*
X156814800Y-53771800D02*
X163128200Y-53771800D01*
%TO.N,/SDA*%
X173890000Y-49980000D02*
X175680000Y-51770000D01*
X175680000Y-51770000D02*
X175690400Y-51759600D01*
X168540000Y-49980000D02*
X173890000Y-49980000D01*
X175690400Y-51759600D02*
X180239900Y-51759600D01*
X156814800Y-51771800D02*
X162018200Y-51771800D01*
X162018200Y-51771800D02*
X163810000Y-49980000D01*
X163810000Y-49980000D02*
X168540000Y-49980000D01*
%TO.N,/SCL*%
X152704800Y-51771800D02*
X150933400Y-51771800D01*
X150215600Y-51054000D02*
X150215600Y-48615600D01*
X150933400Y-51771800D02*
X150215600Y-51054000D01*
X150215600Y-48615600D02*
X151391200Y-47440000D01*
X151391200Y-47440000D02*
X168540000Y-47440000D01*
X184349900Y-51759600D02*
X186517800Y-51759600D01*
X186517800Y-51759600D02*
X187121800Y-51155600D01*
X185590600Y-47440000D02*
X168540000Y-47440000D01*
X187121800Y-51155600D02*
X187121800Y-48971200D01*
X187121800Y-48971200D02*
X185590600Y-47440000D01*
%TO.N,/A2*%
X152704800Y-53771800D02*
X151104600Y-53771800D01*
X151104600Y-53771800D02*
X149021800Y-51689000D01*
X149021800Y-51689000D02*
X149021800Y-47904400D01*
X149021800Y-47904400D02*
X152026200Y-44900000D01*
X152026200Y-44900000D02*
X168540000Y-44900000D01*
%TO.N,/3V3*%
X151798000Y-63771800D02*
X151765000Y-63804800D01*
X152704800Y-63771800D02*
X151798000Y-63771800D01*
%TO.N,GND*%
X152704800Y-49771800D02*
X154762200Y-49771800D01*
X152704800Y-57771800D02*
X154762200Y-57771800D01*
X190099900Y-69539600D02*
X190099900Y-69538900D01*
X152704800Y-61771800D02*
X154736800Y-61771800D01*
X154762200Y-49771800D02*
X156814800Y-49771800D01*
X180239900Y-49759600D02*
X182295800Y-49759600D01*
X146954800Y-69551800D02*
X146945600Y-69551800D01*
X190099900Y-69538900D02*
X190119000Y-69519800D01*
X190099900Y-45979600D02*
X190099200Y-45979600D01*
X154762200Y-57771800D02*
X156814800Y-57771800D01*
X146954800Y-45991800D02*
X146954800Y-46066000D01*
X184349900Y-49759600D02*
X182295800Y-49759600D01*
X180239900Y-61759600D02*
X182295800Y-61759600D01*
X190099200Y-45979600D02*
X190093600Y-45974000D01*
X184349900Y-61759600D02*
X182295800Y-61759600D01*
X180239900Y-57759600D02*
X182295800Y-57759600D01*
X146945600Y-69551800D02*
X146837400Y-69443600D01*
X184349900Y-57759600D02*
X182295800Y-57759600D01*
X146954800Y-46066000D02*
X147015200Y-46126400D01*
X154736800Y-61771800D02*
X156814800Y-61771800D01*
%TD*%
M02*
