%TF.GenerationSoftware,KiCad,Pcbnew,7.0.2*%
%TF.CreationDate,2023-11-04T13:59:20-04:00*%
%TF.ProjectId,AntSniffer,416e7453-6e69-4666-9665-722e6b696361,rev?*%
%TF.SameCoordinates,Original*%
%TF.FileFunction,Drillmap*%
%TF.FilePolarity,Positive*%
%FSLAX45Y45*%
G04 Gerber Fmt 4.5, Leading zero omitted, Abs format (unit mm)*
G04 Created by KiCad (PCBNEW 7.0.2) date 2023-11-04 13:59:20*
%MOMM*%
%LPD*%
G01*
G04 APERTURE LIST*
%ADD10C,0.100000*%
%ADD11C,0.200000*%
G04 APERTURE END LIST*
D10*
X14348460Y-4254500D02*
X19354800Y-4254500D01*
X19354800Y-7261860D01*
X14348460Y-7261860D01*
X14348460Y-4254500D01*
D11*
X14591079Y-7579384D02*
X14591079Y-7379384D01*
X14591079Y-7379384D02*
X14638698Y-7379384D01*
X14638698Y-7379384D02*
X14667269Y-7388908D01*
X14667269Y-7388908D02*
X14686317Y-7407955D01*
X14686317Y-7407955D02*
X14695841Y-7427003D01*
X14695841Y-7427003D02*
X14705365Y-7465098D01*
X14705365Y-7465098D02*
X14705365Y-7493669D01*
X14705365Y-7493669D02*
X14695841Y-7531765D01*
X14695841Y-7531765D02*
X14686317Y-7550812D01*
X14686317Y-7550812D02*
X14667269Y-7569860D01*
X14667269Y-7569860D02*
X14638698Y-7579384D01*
X14638698Y-7579384D02*
X14591079Y-7579384D01*
X14791079Y-7579384D02*
X14791079Y-7446050D01*
X14791079Y-7484146D02*
X14800603Y-7465098D01*
X14800603Y-7465098D02*
X14810127Y-7455574D01*
X14810127Y-7455574D02*
X14829174Y-7446050D01*
X14829174Y-7446050D02*
X14848222Y-7446050D01*
X14914888Y-7579384D02*
X14914888Y-7446050D01*
X14914888Y-7379384D02*
X14905365Y-7388908D01*
X14905365Y-7388908D02*
X14914888Y-7398431D01*
X14914888Y-7398431D02*
X14924412Y-7388908D01*
X14924412Y-7388908D02*
X14914888Y-7379384D01*
X14914888Y-7379384D02*
X14914888Y-7398431D01*
X15038698Y-7579384D02*
X15019650Y-7569860D01*
X15019650Y-7569860D02*
X15010127Y-7550812D01*
X15010127Y-7550812D02*
X15010127Y-7379384D01*
X15143460Y-7579384D02*
X15124412Y-7569860D01*
X15124412Y-7569860D02*
X15114888Y-7550812D01*
X15114888Y-7550812D02*
X15114888Y-7379384D01*
X15372031Y-7579384D02*
X15372031Y-7379384D01*
X15372031Y-7379384D02*
X15438698Y-7522241D01*
X15438698Y-7522241D02*
X15505365Y-7379384D01*
X15505365Y-7379384D02*
X15505365Y-7579384D01*
X15686317Y-7579384D02*
X15686317Y-7474622D01*
X15686317Y-7474622D02*
X15676793Y-7455574D01*
X15676793Y-7455574D02*
X15657746Y-7446050D01*
X15657746Y-7446050D02*
X15619650Y-7446050D01*
X15619650Y-7446050D02*
X15600603Y-7455574D01*
X15686317Y-7569860D02*
X15667269Y-7579384D01*
X15667269Y-7579384D02*
X15619650Y-7579384D01*
X15619650Y-7579384D02*
X15600603Y-7569860D01*
X15600603Y-7569860D02*
X15591079Y-7550812D01*
X15591079Y-7550812D02*
X15591079Y-7531765D01*
X15591079Y-7531765D02*
X15600603Y-7512717D01*
X15600603Y-7512717D02*
X15619650Y-7503193D01*
X15619650Y-7503193D02*
X15667269Y-7503193D01*
X15667269Y-7503193D02*
X15686317Y-7493669D01*
X15781555Y-7446050D02*
X15781555Y-7646050D01*
X15781555Y-7455574D02*
X15800603Y-7446050D01*
X15800603Y-7446050D02*
X15838698Y-7446050D01*
X15838698Y-7446050D02*
X15857746Y-7455574D01*
X15857746Y-7455574D02*
X15867269Y-7465098D01*
X15867269Y-7465098D02*
X15876793Y-7484146D01*
X15876793Y-7484146D02*
X15876793Y-7541288D01*
X15876793Y-7541288D02*
X15867269Y-7560336D01*
X15867269Y-7560336D02*
X15857746Y-7569860D01*
X15857746Y-7569860D02*
X15838698Y-7579384D01*
X15838698Y-7579384D02*
X15800603Y-7579384D01*
X15800603Y-7579384D02*
X15781555Y-7569860D01*
X15962508Y-7560336D02*
X15972031Y-7569860D01*
X15972031Y-7569860D02*
X15962508Y-7579384D01*
X15962508Y-7579384D02*
X15952984Y-7569860D01*
X15952984Y-7569860D02*
X15962508Y-7560336D01*
X15962508Y-7560336D02*
X15962508Y-7579384D01*
X15962508Y-7455574D02*
X15972031Y-7465098D01*
X15972031Y-7465098D02*
X15962508Y-7474622D01*
X15962508Y-7474622D02*
X15952984Y-7465098D01*
X15952984Y-7465098D02*
X15962508Y-7455574D01*
X15962508Y-7455574D02*
X15962508Y-7474622D01*
M02*
