%TF.GenerationSoftware,KiCad,Pcbnew,7.0.2*%
%TF.CreationDate,2023-11-04T13:59:20-04:00*%
%TF.ProjectId,AntSniffer,416e7453-6e69-4666-9665-722e6b696361,rev?*%
%TF.SameCoordinates,Original*%
%TF.FileFunction,Drillmap*%
%TF.FilePolarity,Positive*%
%FSLAX45Y45*%
G04 Gerber Fmt 4.5, Leading zero omitted, Abs format (unit mm)*
G04 Created by KiCad (PCBNEW 7.0.2) date 2023-11-04 13:59:20*
%MOMM*%
%LPD*%
G01*
G04 APERTURE LIST*
%ADD10C,0.100000*%
%ADD11C,0.200000*%
%ADD12C,0.040000*%
G04 APERTURE END LIST*
D10*
X14348460Y-4254500D02*
X19354800Y-4254500D01*
X19354800Y-7261860D01*
X14348460Y-7261860D01*
X14348460Y-4254500D01*
D11*
D12*
X14663740Y-6924360D02*
X14703740Y-6964360D01*
X14703740Y-6924360D02*
X14663740Y-6964360D01*
X14681520Y-4592640D02*
X14721520Y-4632640D01*
X14721520Y-4592640D02*
X14681520Y-4632640D01*
X15156500Y-6360480D02*
X15196500Y-6400480D01*
X15196500Y-6360480D02*
X15156500Y-6400480D01*
X15453680Y-6157180D02*
X15493680Y-6197180D01*
X15493680Y-6157180D02*
X15453680Y-6197180D01*
X15456220Y-4957180D02*
X15496220Y-4997180D01*
X15496220Y-4957180D02*
X15456220Y-4997180D01*
X15456220Y-5757180D02*
X15496220Y-5797180D01*
X15496220Y-5757180D02*
X15456220Y-5797180D01*
X16261400Y-7064060D02*
X16301400Y-7104060D01*
X16301400Y-7064060D02*
X16261400Y-7104060D01*
X17201200Y-7086920D02*
X17241200Y-7126920D01*
X17241200Y-7086920D02*
X17201200Y-7126920D01*
X18209580Y-4955960D02*
X18249580Y-4995960D01*
X18249580Y-4955960D02*
X18209580Y-4995960D01*
X18209580Y-5755960D02*
X18249580Y-5795960D01*
X18249580Y-5755960D02*
X18209580Y-5795960D01*
X18209580Y-6155960D02*
X18249580Y-6195960D01*
X18249580Y-6155960D02*
X18209580Y-6195960D01*
X18511840Y-6355400D02*
X18551840Y-6395400D01*
X18551840Y-6355400D02*
X18511840Y-6395400D01*
X18989360Y-4577400D02*
X19029360Y-4617400D01*
X19029360Y-4577400D02*
X18989360Y-4617400D01*
X18991900Y-6931980D02*
X19031900Y-6971980D01*
X19031900Y-6931980D02*
X18991900Y-6971980D01*
D10*
X16907980Y-4597900D02*
G75*
G03*
X16907980Y-4597900I-50000J0D01*
G01*
X16907980Y-4851900D02*
G75*
G03*
X16907980Y-4851900I-50000J0D01*
G01*
X16907980Y-5105900D02*
G75*
G03*
X16907980Y-5105900I-50000J0D01*
G01*
X16907980Y-5359900D02*
G75*
G03*
X16907980Y-5359900I-50000J0D01*
G01*
X16907980Y-5613900D02*
G75*
G03*
X16907980Y-5613900I-50000J0D01*
G01*
X16907980Y-5867900D02*
G75*
G03*
X16907980Y-5867900I-50000J0D01*
G01*
X16907980Y-6121900D02*
G75*
G03*
X16907980Y-6121900I-50000J0D01*
G01*
X16907980Y-6375900D02*
G75*
G03*
X16907980Y-6375900I-50000J0D01*
G01*
X16907980Y-6629900D02*
G75*
G03*
X16907980Y-6629900I-50000J0D01*
G01*
X16907980Y-6883900D02*
G75*
G03*
X16907980Y-6883900I-50000J0D01*
G01*
D11*
X14591079Y-7579384D02*
X14591079Y-7379384D01*
X14591079Y-7379384D02*
X14638698Y-7379384D01*
X14638698Y-7379384D02*
X14667269Y-7388908D01*
X14667269Y-7388908D02*
X14686317Y-7407955D01*
X14686317Y-7407955D02*
X14695841Y-7427003D01*
X14695841Y-7427003D02*
X14705365Y-7465098D01*
X14705365Y-7465098D02*
X14705365Y-7493669D01*
X14705365Y-7493669D02*
X14695841Y-7531765D01*
X14695841Y-7531765D02*
X14686317Y-7550812D01*
X14686317Y-7550812D02*
X14667269Y-7569860D01*
X14667269Y-7569860D02*
X14638698Y-7579384D01*
X14638698Y-7579384D02*
X14591079Y-7579384D01*
X14791079Y-7579384D02*
X14791079Y-7446050D01*
X14791079Y-7484146D02*
X14800603Y-7465098D01*
X14800603Y-7465098D02*
X14810127Y-7455574D01*
X14810127Y-7455574D02*
X14829174Y-7446050D01*
X14829174Y-7446050D02*
X14848222Y-7446050D01*
X14914888Y-7579384D02*
X14914888Y-7446050D01*
X14914888Y-7379384D02*
X14905365Y-7388908D01*
X14905365Y-7388908D02*
X14914888Y-7398431D01*
X14914888Y-7398431D02*
X14924412Y-7388908D01*
X14924412Y-7388908D02*
X14914888Y-7379384D01*
X14914888Y-7379384D02*
X14914888Y-7398431D01*
X15038698Y-7579384D02*
X15019650Y-7569860D01*
X15019650Y-7569860D02*
X15010127Y-7550812D01*
X15010127Y-7550812D02*
X15010127Y-7379384D01*
X15143460Y-7579384D02*
X15124412Y-7569860D01*
X15124412Y-7569860D02*
X15114888Y-7550812D01*
X15114888Y-7550812D02*
X15114888Y-7379384D01*
X15372031Y-7579384D02*
X15372031Y-7379384D01*
X15372031Y-7379384D02*
X15438698Y-7522241D01*
X15438698Y-7522241D02*
X15505365Y-7379384D01*
X15505365Y-7379384D02*
X15505365Y-7579384D01*
X15686317Y-7579384D02*
X15686317Y-7474622D01*
X15686317Y-7474622D02*
X15676793Y-7455574D01*
X15676793Y-7455574D02*
X15657746Y-7446050D01*
X15657746Y-7446050D02*
X15619650Y-7446050D01*
X15619650Y-7446050D02*
X15600603Y-7455574D01*
X15686317Y-7569860D02*
X15667269Y-7579384D01*
X15667269Y-7579384D02*
X15619650Y-7579384D01*
X15619650Y-7579384D02*
X15600603Y-7569860D01*
X15600603Y-7569860D02*
X15591079Y-7550812D01*
X15591079Y-7550812D02*
X15591079Y-7531765D01*
X15591079Y-7531765D02*
X15600603Y-7512717D01*
X15600603Y-7512717D02*
X15619650Y-7503193D01*
X15619650Y-7503193D02*
X15667269Y-7503193D01*
X15667269Y-7503193D02*
X15686317Y-7493669D01*
X15781555Y-7446050D02*
X15781555Y-7646050D01*
X15781555Y-7455574D02*
X15800603Y-7446050D01*
X15800603Y-7446050D02*
X15838698Y-7446050D01*
X15838698Y-7446050D02*
X15857746Y-7455574D01*
X15857746Y-7455574D02*
X15867269Y-7465098D01*
X15867269Y-7465098D02*
X15876793Y-7484146D01*
X15876793Y-7484146D02*
X15876793Y-7541288D01*
X15876793Y-7541288D02*
X15867269Y-7560336D01*
X15867269Y-7560336D02*
X15857746Y-7569860D01*
X15857746Y-7569860D02*
X15838698Y-7579384D01*
X15838698Y-7579384D02*
X15800603Y-7579384D01*
X15800603Y-7579384D02*
X15781555Y-7569860D01*
X15962508Y-7560336D02*
X15972031Y-7569860D01*
X15972031Y-7569860D02*
X15962508Y-7579384D01*
X15962508Y-7579384D02*
X15952984Y-7569860D01*
X15952984Y-7569860D02*
X15962508Y-7560336D01*
X15962508Y-7560336D02*
X15962508Y-7579384D01*
X15962508Y-7455574D02*
X15972031Y-7465098D01*
X15972031Y-7465098D02*
X15962508Y-7474622D01*
X15962508Y-7474622D02*
X15952984Y-7465098D01*
X15952984Y-7465098D02*
X15962508Y-7455574D01*
X15962508Y-7455574D02*
X15962508Y-7474622D01*
D12*
X14303460Y-7886860D02*
X14343460Y-7926860D01*
X14343460Y-7886860D02*
X14303460Y-7926860D01*
D11*
X14629174Y-7799384D02*
X14648222Y-7799384D01*
X14648222Y-7799384D02*
X14667269Y-7808908D01*
X14667269Y-7808908D02*
X14676793Y-7818431D01*
X14676793Y-7818431D02*
X14686317Y-7837479D01*
X14686317Y-7837479D02*
X14695841Y-7875574D01*
X14695841Y-7875574D02*
X14695841Y-7923193D01*
X14695841Y-7923193D02*
X14686317Y-7961288D01*
X14686317Y-7961288D02*
X14676793Y-7980336D01*
X14676793Y-7980336D02*
X14667269Y-7989860D01*
X14667269Y-7989860D02*
X14648222Y-7999384D01*
X14648222Y-7999384D02*
X14629174Y-7999384D01*
X14629174Y-7999384D02*
X14610127Y-7989860D01*
X14610127Y-7989860D02*
X14600603Y-7980336D01*
X14600603Y-7980336D02*
X14591079Y-7961288D01*
X14591079Y-7961288D02*
X14581555Y-7923193D01*
X14581555Y-7923193D02*
X14581555Y-7875574D01*
X14581555Y-7875574D02*
X14591079Y-7837479D01*
X14591079Y-7837479D02*
X14600603Y-7818431D01*
X14600603Y-7818431D02*
X14610127Y-7808908D01*
X14610127Y-7808908D02*
X14629174Y-7799384D01*
X14781555Y-7980336D02*
X14791079Y-7989860D01*
X14791079Y-7989860D02*
X14781555Y-7999384D01*
X14781555Y-7999384D02*
X14772031Y-7989860D01*
X14772031Y-7989860D02*
X14781555Y-7980336D01*
X14781555Y-7980336D02*
X14781555Y-7999384D01*
X14962508Y-7866050D02*
X14962508Y-7999384D01*
X14914888Y-7789860D02*
X14867269Y-7932717D01*
X14867269Y-7932717D02*
X14991079Y-7932717D01*
X15105365Y-7799384D02*
X15124412Y-7799384D01*
X15124412Y-7799384D02*
X15143460Y-7808908D01*
X15143460Y-7808908D02*
X15152984Y-7818431D01*
X15152984Y-7818431D02*
X15162508Y-7837479D01*
X15162508Y-7837479D02*
X15172031Y-7875574D01*
X15172031Y-7875574D02*
X15172031Y-7923193D01*
X15172031Y-7923193D02*
X15162508Y-7961288D01*
X15162508Y-7961288D02*
X15152984Y-7980336D01*
X15152984Y-7980336D02*
X15143460Y-7989860D01*
X15143460Y-7989860D02*
X15124412Y-7999384D01*
X15124412Y-7999384D02*
X15105365Y-7999384D01*
X15105365Y-7999384D02*
X15086317Y-7989860D01*
X15086317Y-7989860D02*
X15076793Y-7980336D01*
X15076793Y-7980336D02*
X15067269Y-7961288D01*
X15067269Y-7961288D02*
X15057746Y-7923193D01*
X15057746Y-7923193D02*
X15057746Y-7875574D01*
X15057746Y-7875574D02*
X15067269Y-7837479D01*
X15067269Y-7837479D02*
X15076793Y-7818431D01*
X15076793Y-7818431D02*
X15086317Y-7808908D01*
X15086317Y-7808908D02*
X15105365Y-7799384D01*
X15295841Y-7799384D02*
X15314889Y-7799384D01*
X15314889Y-7799384D02*
X15333936Y-7808908D01*
X15333936Y-7808908D02*
X15343460Y-7818431D01*
X15343460Y-7818431D02*
X15352984Y-7837479D01*
X15352984Y-7837479D02*
X15362508Y-7875574D01*
X15362508Y-7875574D02*
X15362508Y-7923193D01*
X15362508Y-7923193D02*
X15352984Y-7961288D01*
X15352984Y-7961288D02*
X15343460Y-7980336D01*
X15343460Y-7980336D02*
X15333936Y-7989860D01*
X15333936Y-7989860D02*
X15314889Y-7999384D01*
X15314889Y-7999384D02*
X15295841Y-7999384D01*
X15295841Y-7999384D02*
X15276793Y-7989860D01*
X15276793Y-7989860D02*
X15267269Y-7980336D01*
X15267269Y-7980336D02*
X15257746Y-7961288D01*
X15257746Y-7961288D02*
X15248222Y-7923193D01*
X15248222Y-7923193D02*
X15248222Y-7875574D01*
X15248222Y-7875574D02*
X15257746Y-7837479D01*
X15257746Y-7837479D02*
X15267269Y-7818431D01*
X15267269Y-7818431D02*
X15276793Y-7808908D01*
X15276793Y-7808908D02*
X15295841Y-7799384D01*
X15448222Y-7999384D02*
X15448222Y-7866050D01*
X15448222Y-7885098D02*
X15457746Y-7875574D01*
X15457746Y-7875574D02*
X15476793Y-7866050D01*
X15476793Y-7866050D02*
X15505365Y-7866050D01*
X15505365Y-7866050D02*
X15524412Y-7875574D01*
X15524412Y-7875574D02*
X15533936Y-7894622D01*
X15533936Y-7894622D02*
X15533936Y-7999384D01*
X15533936Y-7894622D02*
X15543460Y-7875574D01*
X15543460Y-7875574D02*
X15562508Y-7866050D01*
X15562508Y-7866050D02*
X15591079Y-7866050D01*
X15591079Y-7866050D02*
X15610127Y-7875574D01*
X15610127Y-7875574D02*
X15619650Y-7894622D01*
X15619650Y-7894622D02*
X15619650Y-7999384D01*
X15714889Y-7999384D02*
X15714889Y-7866050D01*
X15714889Y-7885098D02*
X15724412Y-7875574D01*
X15724412Y-7875574D02*
X15743460Y-7866050D01*
X15743460Y-7866050D02*
X15772031Y-7866050D01*
X15772031Y-7866050D02*
X15791079Y-7875574D01*
X15791079Y-7875574D02*
X15800603Y-7894622D01*
X15800603Y-7894622D02*
X15800603Y-7999384D01*
X15800603Y-7894622D02*
X15810127Y-7875574D01*
X15810127Y-7875574D02*
X15829174Y-7866050D01*
X15829174Y-7866050D02*
X15857746Y-7866050D01*
X15857746Y-7866050D02*
X15876793Y-7875574D01*
X15876793Y-7875574D02*
X15886317Y-7894622D01*
X15886317Y-7894622D02*
X15886317Y-7999384D01*
X16276793Y-7789860D02*
X16105365Y-8047003D01*
X16533936Y-7799384D02*
X16552984Y-7799384D01*
X16552984Y-7799384D02*
X16572032Y-7808908D01*
X16572032Y-7808908D02*
X16581555Y-7818431D01*
X16581555Y-7818431D02*
X16591079Y-7837479D01*
X16591079Y-7837479D02*
X16600603Y-7875574D01*
X16600603Y-7875574D02*
X16600603Y-7923193D01*
X16600603Y-7923193D02*
X16591079Y-7961288D01*
X16591079Y-7961288D02*
X16581555Y-7980336D01*
X16581555Y-7980336D02*
X16572032Y-7989860D01*
X16572032Y-7989860D02*
X16552984Y-7999384D01*
X16552984Y-7999384D02*
X16533936Y-7999384D01*
X16533936Y-7999384D02*
X16514889Y-7989860D01*
X16514889Y-7989860D02*
X16505365Y-7980336D01*
X16505365Y-7980336D02*
X16495841Y-7961288D01*
X16495841Y-7961288D02*
X16486317Y-7923193D01*
X16486317Y-7923193D02*
X16486317Y-7875574D01*
X16486317Y-7875574D02*
X16495841Y-7837479D01*
X16495841Y-7837479D02*
X16505365Y-7818431D01*
X16505365Y-7818431D02*
X16514889Y-7808908D01*
X16514889Y-7808908D02*
X16533936Y-7799384D01*
X16686317Y-7980336D02*
X16695841Y-7989860D01*
X16695841Y-7989860D02*
X16686317Y-7999384D01*
X16686317Y-7999384D02*
X16676793Y-7989860D01*
X16676793Y-7989860D02*
X16686317Y-7980336D01*
X16686317Y-7980336D02*
X16686317Y-7999384D01*
X16819651Y-7799384D02*
X16838698Y-7799384D01*
X16838698Y-7799384D02*
X16857746Y-7808908D01*
X16857746Y-7808908D02*
X16867270Y-7818431D01*
X16867270Y-7818431D02*
X16876794Y-7837479D01*
X16876794Y-7837479D02*
X16886317Y-7875574D01*
X16886317Y-7875574D02*
X16886317Y-7923193D01*
X16886317Y-7923193D02*
X16876794Y-7961288D01*
X16876794Y-7961288D02*
X16867270Y-7980336D01*
X16867270Y-7980336D02*
X16857746Y-7989860D01*
X16857746Y-7989860D02*
X16838698Y-7999384D01*
X16838698Y-7999384D02*
X16819651Y-7999384D01*
X16819651Y-7999384D02*
X16800603Y-7989860D01*
X16800603Y-7989860D02*
X16791079Y-7980336D01*
X16791079Y-7980336D02*
X16781555Y-7961288D01*
X16781555Y-7961288D02*
X16772032Y-7923193D01*
X16772032Y-7923193D02*
X16772032Y-7875574D01*
X16772032Y-7875574D02*
X16781555Y-7837479D01*
X16781555Y-7837479D02*
X16791079Y-7818431D01*
X16791079Y-7818431D02*
X16800603Y-7808908D01*
X16800603Y-7808908D02*
X16819651Y-7799384D01*
X17076794Y-7999384D02*
X16962508Y-7999384D01*
X17019651Y-7999384D02*
X17019651Y-7799384D01*
X17019651Y-7799384D02*
X17000603Y-7827955D01*
X17000603Y-7827955D02*
X16981555Y-7847003D01*
X16981555Y-7847003D02*
X16962508Y-7856527D01*
X17257746Y-7799384D02*
X17162508Y-7799384D01*
X17162508Y-7799384D02*
X17152984Y-7894622D01*
X17152984Y-7894622D02*
X17162508Y-7885098D01*
X17162508Y-7885098D02*
X17181555Y-7875574D01*
X17181555Y-7875574D02*
X17229175Y-7875574D01*
X17229175Y-7875574D02*
X17248222Y-7885098D01*
X17248222Y-7885098D02*
X17257746Y-7894622D01*
X17257746Y-7894622D02*
X17267270Y-7913669D01*
X17267270Y-7913669D02*
X17267270Y-7961288D01*
X17267270Y-7961288D02*
X17257746Y-7980336D01*
X17257746Y-7980336D02*
X17248222Y-7989860D01*
X17248222Y-7989860D02*
X17229175Y-7999384D01*
X17229175Y-7999384D02*
X17181555Y-7999384D01*
X17181555Y-7999384D02*
X17162508Y-7989860D01*
X17162508Y-7989860D02*
X17152984Y-7980336D01*
X17333936Y-7799384D02*
X17467270Y-7799384D01*
X17467270Y-7799384D02*
X17381555Y-7999384D01*
X17533936Y-7799384D02*
X17533936Y-7837479D01*
X17610127Y-7799384D02*
X17610127Y-7837479D01*
X17905365Y-8075574D02*
X17895841Y-8066050D01*
X17895841Y-8066050D02*
X17876794Y-8037479D01*
X17876794Y-8037479D02*
X17867270Y-8018431D01*
X17867270Y-8018431D02*
X17857746Y-7989860D01*
X17857746Y-7989860D02*
X17848222Y-7942241D01*
X17848222Y-7942241D02*
X17848222Y-7904146D01*
X17848222Y-7904146D02*
X17857746Y-7856527D01*
X17857746Y-7856527D02*
X17867270Y-7827955D01*
X17867270Y-7827955D02*
X17876794Y-7808908D01*
X17876794Y-7808908D02*
X17895841Y-7780336D01*
X17895841Y-7780336D02*
X17905365Y-7770812D01*
X18086317Y-7999384D02*
X17972032Y-7999384D01*
X18029175Y-7999384D02*
X18029175Y-7799384D01*
X18029175Y-7799384D02*
X18010127Y-7827955D01*
X18010127Y-7827955D02*
X17991079Y-7847003D01*
X17991079Y-7847003D02*
X17972032Y-7856527D01*
X18257746Y-7866050D02*
X18257746Y-7999384D01*
X18210127Y-7789860D02*
X18162508Y-7932717D01*
X18162508Y-7932717D02*
X18286317Y-7932717D01*
X18514889Y-7999384D02*
X18514889Y-7799384D01*
X18600603Y-7999384D02*
X18600603Y-7894622D01*
X18600603Y-7894622D02*
X18591079Y-7875574D01*
X18591079Y-7875574D02*
X18572032Y-7866050D01*
X18572032Y-7866050D02*
X18543460Y-7866050D01*
X18543460Y-7866050D02*
X18524413Y-7875574D01*
X18524413Y-7875574D02*
X18514889Y-7885098D01*
X18724413Y-7999384D02*
X18705365Y-7989860D01*
X18705365Y-7989860D02*
X18695841Y-7980336D01*
X18695841Y-7980336D02*
X18686318Y-7961288D01*
X18686318Y-7961288D02*
X18686318Y-7904146D01*
X18686318Y-7904146D02*
X18695841Y-7885098D01*
X18695841Y-7885098D02*
X18705365Y-7875574D01*
X18705365Y-7875574D02*
X18724413Y-7866050D01*
X18724413Y-7866050D02*
X18752984Y-7866050D01*
X18752984Y-7866050D02*
X18772032Y-7875574D01*
X18772032Y-7875574D02*
X18781556Y-7885098D01*
X18781556Y-7885098D02*
X18791079Y-7904146D01*
X18791079Y-7904146D02*
X18791079Y-7961288D01*
X18791079Y-7961288D02*
X18781556Y-7980336D01*
X18781556Y-7980336D02*
X18772032Y-7989860D01*
X18772032Y-7989860D02*
X18752984Y-7999384D01*
X18752984Y-7999384D02*
X18724413Y-7999384D01*
X18905365Y-7999384D02*
X18886318Y-7989860D01*
X18886318Y-7989860D02*
X18876794Y-7970812D01*
X18876794Y-7970812D02*
X18876794Y-7799384D01*
X19057746Y-7989860D02*
X19038699Y-7999384D01*
X19038699Y-7999384D02*
X19000603Y-7999384D01*
X19000603Y-7999384D02*
X18981556Y-7989860D01*
X18981556Y-7989860D02*
X18972032Y-7970812D01*
X18972032Y-7970812D02*
X18972032Y-7894622D01*
X18972032Y-7894622D02*
X18981556Y-7875574D01*
X18981556Y-7875574D02*
X19000603Y-7866050D01*
X19000603Y-7866050D02*
X19038699Y-7866050D01*
X19038699Y-7866050D02*
X19057746Y-7875574D01*
X19057746Y-7875574D02*
X19067270Y-7894622D01*
X19067270Y-7894622D02*
X19067270Y-7913669D01*
X19067270Y-7913669D02*
X18972032Y-7932717D01*
X19143460Y-7989860D02*
X19162508Y-7999384D01*
X19162508Y-7999384D02*
X19200603Y-7999384D01*
X19200603Y-7999384D02*
X19219651Y-7989860D01*
X19219651Y-7989860D02*
X19229175Y-7970812D01*
X19229175Y-7970812D02*
X19229175Y-7961288D01*
X19229175Y-7961288D02*
X19219651Y-7942241D01*
X19219651Y-7942241D02*
X19200603Y-7932717D01*
X19200603Y-7932717D02*
X19172032Y-7932717D01*
X19172032Y-7932717D02*
X19152984Y-7923193D01*
X19152984Y-7923193D02*
X19143460Y-7904146D01*
X19143460Y-7904146D02*
X19143460Y-7894622D01*
X19143460Y-7894622D02*
X19152984Y-7875574D01*
X19152984Y-7875574D02*
X19172032Y-7866050D01*
X19172032Y-7866050D02*
X19200603Y-7866050D01*
X19200603Y-7866050D02*
X19219651Y-7875574D01*
X19295841Y-8075574D02*
X19305365Y-8066050D01*
X19305365Y-8066050D02*
X19324413Y-8037479D01*
X19324413Y-8037479D02*
X19333937Y-8018431D01*
X19333937Y-8018431D02*
X19343460Y-7989860D01*
X19343460Y-7989860D02*
X19352984Y-7942241D01*
X19352984Y-7942241D02*
X19352984Y-7904146D01*
X19352984Y-7904146D02*
X19343460Y-7856527D01*
X19343460Y-7856527D02*
X19333937Y-7827955D01*
X19333937Y-7827955D02*
X19324413Y-7808908D01*
X19324413Y-7808908D02*
X19305365Y-7780336D01*
X19305365Y-7780336D02*
X19295841Y-7770812D01*
D10*
X14343460Y-8170860D02*
G75*
G03*
X14343460Y-8170860I-50000J0D01*
G01*
D11*
X14695841Y-8263384D02*
X14581555Y-8263384D01*
X14638698Y-8263384D02*
X14638698Y-8063384D01*
X14638698Y-8063384D02*
X14619650Y-8091955D01*
X14619650Y-8091955D02*
X14600603Y-8111003D01*
X14600603Y-8111003D02*
X14581555Y-8120527D01*
X14781555Y-8244336D02*
X14791079Y-8253860D01*
X14791079Y-8253860D02*
X14781555Y-8263384D01*
X14781555Y-8263384D02*
X14772031Y-8253860D01*
X14772031Y-8253860D02*
X14781555Y-8244336D01*
X14781555Y-8244336D02*
X14781555Y-8263384D01*
X14914888Y-8063384D02*
X14933936Y-8063384D01*
X14933936Y-8063384D02*
X14952984Y-8072908D01*
X14952984Y-8072908D02*
X14962508Y-8082431D01*
X14962508Y-8082431D02*
X14972031Y-8101479D01*
X14972031Y-8101479D02*
X14981555Y-8139574D01*
X14981555Y-8139574D02*
X14981555Y-8187193D01*
X14981555Y-8187193D02*
X14972031Y-8225288D01*
X14972031Y-8225288D02*
X14962508Y-8244336D01*
X14962508Y-8244336D02*
X14952984Y-8253860D01*
X14952984Y-8253860D02*
X14933936Y-8263384D01*
X14933936Y-8263384D02*
X14914888Y-8263384D01*
X14914888Y-8263384D02*
X14895841Y-8253860D01*
X14895841Y-8253860D02*
X14886317Y-8244336D01*
X14886317Y-8244336D02*
X14876793Y-8225288D01*
X14876793Y-8225288D02*
X14867269Y-8187193D01*
X14867269Y-8187193D02*
X14867269Y-8139574D01*
X14867269Y-8139574D02*
X14876793Y-8101479D01*
X14876793Y-8101479D02*
X14886317Y-8082431D01*
X14886317Y-8082431D02*
X14895841Y-8072908D01*
X14895841Y-8072908D02*
X14914888Y-8063384D01*
X15105365Y-8063384D02*
X15124412Y-8063384D01*
X15124412Y-8063384D02*
X15143460Y-8072908D01*
X15143460Y-8072908D02*
X15152984Y-8082431D01*
X15152984Y-8082431D02*
X15162508Y-8101479D01*
X15162508Y-8101479D02*
X15172031Y-8139574D01*
X15172031Y-8139574D02*
X15172031Y-8187193D01*
X15172031Y-8187193D02*
X15162508Y-8225288D01*
X15162508Y-8225288D02*
X15152984Y-8244336D01*
X15152984Y-8244336D02*
X15143460Y-8253860D01*
X15143460Y-8253860D02*
X15124412Y-8263384D01*
X15124412Y-8263384D02*
X15105365Y-8263384D01*
X15105365Y-8263384D02*
X15086317Y-8253860D01*
X15086317Y-8253860D02*
X15076793Y-8244336D01*
X15076793Y-8244336D02*
X15067269Y-8225288D01*
X15067269Y-8225288D02*
X15057746Y-8187193D01*
X15057746Y-8187193D02*
X15057746Y-8139574D01*
X15057746Y-8139574D02*
X15067269Y-8101479D01*
X15067269Y-8101479D02*
X15076793Y-8082431D01*
X15076793Y-8082431D02*
X15086317Y-8072908D01*
X15086317Y-8072908D02*
X15105365Y-8063384D01*
X15295841Y-8063384D02*
X15314889Y-8063384D01*
X15314889Y-8063384D02*
X15333936Y-8072908D01*
X15333936Y-8072908D02*
X15343460Y-8082431D01*
X15343460Y-8082431D02*
X15352984Y-8101479D01*
X15352984Y-8101479D02*
X15362508Y-8139574D01*
X15362508Y-8139574D02*
X15362508Y-8187193D01*
X15362508Y-8187193D02*
X15352984Y-8225288D01*
X15352984Y-8225288D02*
X15343460Y-8244336D01*
X15343460Y-8244336D02*
X15333936Y-8253860D01*
X15333936Y-8253860D02*
X15314889Y-8263384D01*
X15314889Y-8263384D02*
X15295841Y-8263384D01*
X15295841Y-8263384D02*
X15276793Y-8253860D01*
X15276793Y-8253860D02*
X15267269Y-8244336D01*
X15267269Y-8244336D02*
X15257746Y-8225288D01*
X15257746Y-8225288D02*
X15248222Y-8187193D01*
X15248222Y-8187193D02*
X15248222Y-8139574D01*
X15248222Y-8139574D02*
X15257746Y-8101479D01*
X15257746Y-8101479D02*
X15267269Y-8082431D01*
X15267269Y-8082431D02*
X15276793Y-8072908D01*
X15276793Y-8072908D02*
X15295841Y-8063384D01*
X15448222Y-8263384D02*
X15448222Y-8130050D01*
X15448222Y-8149098D02*
X15457746Y-8139574D01*
X15457746Y-8139574D02*
X15476793Y-8130050D01*
X15476793Y-8130050D02*
X15505365Y-8130050D01*
X15505365Y-8130050D02*
X15524412Y-8139574D01*
X15524412Y-8139574D02*
X15533936Y-8158622D01*
X15533936Y-8158622D02*
X15533936Y-8263384D01*
X15533936Y-8158622D02*
X15543460Y-8139574D01*
X15543460Y-8139574D02*
X15562508Y-8130050D01*
X15562508Y-8130050D02*
X15591079Y-8130050D01*
X15591079Y-8130050D02*
X15610127Y-8139574D01*
X15610127Y-8139574D02*
X15619650Y-8158622D01*
X15619650Y-8158622D02*
X15619650Y-8263384D01*
X15714889Y-8263384D02*
X15714889Y-8130050D01*
X15714889Y-8149098D02*
X15724412Y-8139574D01*
X15724412Y-8139574D02*
X15743460Y-8130050D01*
X15743460Y-8130050D02*
X15772031Y-8130050D01*
X15772031Y-8130050D02*
X15791079Y-8139574D01*
X15791079Y-8139574D02*
X15800603Y-8158622D01*
X15800603Y-8158622D02*
X15800603Y-8263384D01*
X15800603Y-8158622D02*
X15810127Y-8139574D01*
X15810127Y-8139574D02*
X15829174Y-8130050D01*
X15829174Y-8130050D02*
X15857746Y-8130050D01*
X15857746Y-8130050D02*
X15876793Y-8139574D01*
X15876793Y-8139574D02*
X15886317Y-8158622D01*
X15886317Y-8158622D02*
X15886317Y-8263384D01*
X16276793Y-8053860D02*
X16105365Y-8311003D01*
X16533936Y-8063384D02*
X16552984Y-8063384D01*
X16552984Y-8063384D02*
X16572032Y-8072908D01*
X16572032Y-8072908D02*
X16581555Y-8082431D01*
X16581555Y-8082431D02*
X16591079Y-8101479D01*
X16591079Y-8101479D02*
X16600603Y-8139574D01*
X16600603Y-8139574D02*
X16600603Y-8187193D01*
X16600603Y-8187193D02*
X16591079Y-8225288D01*
X16591079Y-8225288D02*
X16581555Y-8244336D01*
X16581555Y-8244336D02*
X16572032Y-8253860D01*
X16572032Y-8253860D02*
X16552984Y-8263384D01*
X16552984Y-8263384D02*
X16533936Y-8263384D01*
X16533936Y-8263384D02*
X16514889Y-8253860D01*
X16514889Y-8253860D02*
X16505365Y-8244336D01*
X16505365Y-8244336D02*
X16495841Y-8225288D01*
X16495841Y-8225288D02*
X16486317Y-8187193D01*
X16486317Y-8187193D02*
X16486317Y-8139574D01*
X16486317Y-8139574D02*
X16495841Y-8101479D01*
X16495841Y-8101479D02*
X16505365Y-8082431D01*
X16505365Y-8082431D02*
X16514889Y-8072908D01*
X16514889Y-8072908D02*
X16533936Y-8063384D01*
X16686317Y-8244336D02*
X16695841Y-8253860D01*
X16695841Y-8253860D02*
X16686317Y-8263384D01*
X16686317Y-8263384D02*
X16676793Y-8253860D01*
X16676793Y-8253860D02*
X16686317Y-8244336D01*
X16686317Y-8244336D02*
X16686317Y-8263384D01*
X16819651Y-8063384D02*
X16838698Y-8063384D01*
X16838698Y-8063384D02*
X16857746Y-8072908D01*
X16857746Y-8072908D02*
X16867270Y-8082431D01*
X16867270Y-8082431D02*
X16876794Y-8101479D01*
X16876794Y-8101479D02*
X16886317Y-8139574D01*
X16886317Y-8139574D02*
X16886317Y-8187193D01*
X16886317Y-8187193D02*
X16876794Y-8225288D01*
X16876794Y-8225288D02*
X16867270Y-8244336D01*
X16867270Y-8244336D02*
X16857746Y-8253860D01*
X16857746Y-8253860D02*
X16838698Y-8263384D01*
X16838698Y-8263384D02*
X16819651Y-8263384D01*
X16819651Y-8263384D02*
X16800603Y-8253860D01*
X16800603Y-8253860D02*
X16791079Y-8244336D01*
X16791079Y-8244336D02*
X16781555Y-8225288D01*
X16781555Y-8225288D02*
X16772032Y-8187193D01*
X16772032Y-8187193D02*
X16772032Y-8139574D01*
X16772032Y-8139574D02*
X16781555Y-8101479D01*
X16781555Y-8101479D02*
X16791079Y-8082431D01*
X16791079Y-8082431D02*
X16800603Y-8072908D01*
X16800603Y-8072908D02*
X16819651Y-8063384D01*
X16952984Y-8063384D02*
X17076794Y-8063384D01*
X17076794Y-8063384D02*
X17010127Y-8139574D01*
X17010127Y-8139574D02*
X17038698Y-8139574D01*
X17038698Y-8139574D02*
X17057746Y-8149098D01*
X17057746Y-8149098D02*
X17067270Y-8158622D01*
X17067270Y-8158622D02*
X17076794Y-8177669D01*
X17076794Y-8177669D02*
X17076794Y-8225288D01*
X17076794Y-8225288D02*
X17067270Y-8244336D01*
X17067270Y-8244336D02*
X17057746Y-8253860D01*
X17057746Y-8253860D02*
X17038698Y-8263384D01*
X17038698Y-8263384D02*
X16981555Y-8263384D01*
X16981555Y-8263384D02*
X16962508Y-8253860D01*
X16962508Y-8253860D02*
X16952984Y-8244336D01*
X17172032Y-8263384D02*
X17210127Y-8263384D01*
X17210127Y-8263384D02*
X17229175Y-8253860D01*
X17229175Y-8253860D02*
X17238698Y-8244336D01*
X17238698Y-8244336D02*
X17257746Y-8215765D01*
X17257746Y-8215765D02*
X17267270Y-8177669D01*
X17267270Y-8177669D02*
X17267270Y-8101479D01*
X17267270Y-8101479D02*
X17257746Y-8082431D01*
X17257746Y-8082431D02*
X17248222Y-8072908D01*
X17248222Y-8072908D02*
X17229175Y-8063384D01*
X17229175Y-8063384D02*
X17191079Y-8063384D01*
X17191079Y-8063384D02*
X17172032Y-8072908D01*
X17172032Y-8072908D02*
X17162508Y-8082431D01*
X17162508Y-8082431D02*
X17152984Y-8101479D01*
X17152984Y-8101479D02*
X17152984Y-8149098D01*
X17152984Y-8149098D02*
X17162508Y-8168146D01*
X17162508Y-8168146D02*
X17172032Y-8177669D01*
X17172032Y-8177669D02*
X17191079Y-8187193D01*
X17191079Y-8187193D02*
X17229175Y-8187193D01*
X17229175Y-8187193D02*
X17248222Y-8177669D01*
X17248222Y-8177669D02*
X17257746Y-8168146D01*
X17257746Y-8168146D02*
X17267270Y-8149098D01*
X17438698Y-8130050D02*
X17438698Y-8263384D01*
X17391079Y-8053860D02*
X17343460Y-8196717D01*
X17343460Y-8196717D02*
X17467270Y-8196717D01*
X17533936Y-8063384D02*
X17533936Y-8101479D01*
X17610127Y-8063384D02*
X17610127Y-8101479D01*
X17905365Y-8339574D02*
X17895841Y-8330050D01*
X17895841Y-8330050D02*
X17876794Y-8301479D01*
X17876794Y-8301479D02*
X17867270Y-8282431D01*
X17867270Y-8282431D02*
X17857746Y-8253860D01*
X17857746Y-8253860D02*
X17848222Y-8206241D01*
X17848222Y-8206241D02*
X17848222Y-8168146D01*
X17848222Y-8168146D02*
X17857746Y-8120527D01*
X17857746Y-8120527D02*
X17867270Y-8091955D01*
X17867270Y-8091955D02*
X17876794Y-8072908D01*
X17876794Y-8072908D02*
X17895841Y-8044336D01*
X17895841Y-8044336D02*
X17905365Y-8034812D01*
X18086317Y-8263384D02*
X17972032Y-8263384D01*
X18029175Y-8263384D02*
X18029175Y-8063384D01*
X18029175Y-8063384D02*
X18010127Y-8091955D01*
X18010127Y-8091955D02*
X17991079Y-8111003D01*
X17991079Y-8111003D02*
X17972032Y-8120527D01*
X18210127Y-8063384D02*
X18229175Y-8063384D01*
X18229175Y-8063384D02*
X18248222Y-8072908D01*
X18248222Y-8072908D02*
X18257746Y-8082431D01*
X18257746Y-8082431D02*
X18267270Y-8101479D01*
X18267270Y-8101479D02*
X18276794Y-8139574D01*
X18276794Y-8139574D02*
X18276794Y-8187193D01*
X18276794Y-8187193D02*
X18267270Y-8225288D01*
X18267270Y-8225288D02*
X18257746Y-8244336D01*
X18257746Y-8244336D02*
X18248222Y-8253860D01*
X18248222Y-8253860D02*
X18229175Y-8263384D01*
X18229175Y-8263384D02*
X18210127Y-8263384D01*
X18210127Y-8263384D02*
X18191079Y-8253860D01*
X18191079Y-8253860D02*
X18181556Y-8244336D01*
X18181556Y-8244336D02*
X18172032Y-8225288D01*
X18172032Y-8225288D02*
X18162508Y-8187193D01*
X18162508Y-8187193D02*
X18162508Y-8139574D01*
X18162508Y-8139574D02*
X18172032Y-8101479D01*
X18172032Y-8101479D02*
X18181556Y-8082431D01*
X18181556Y-8082431D02*
X18191079Y-8072908D01*
X18191079Y-8072908D02*
X18210127Y-8063384D01*
X18514889Y-8263384D02*
X18514889Y-8063384D01*
X18600603Y-8263384D02*
X18600603Y-8158622D01*
X18600603Y-8158622D02*
X18591079Y-8139574D01*
X18591079Y-8139574D02*
X18572032Y-8130050D01*
X18572032Y-8130050D02*
X18543460Y-8130050D01*
X18543460Y-8130050D02*
X18524413Y-8139574D01*
X18524413Y-8139574D02*
X18514889Y-8149098D01*
X18724413Y-8263384D02*
X18705365Y-8253860D01*
X18705365Y-8253860D02*
X18695841Y-8244336D01*
X18695841Y-8244336D02*
X18686318Y-8225288D01*
X18686318Y-8225288D02*
X18686318Y-8168146D01*
X18686318Y-8168146D02*
X18695841Y-8149098D01*
X18695841Y-8149098D02*
X18705365Y-8139574D01*
X18705365Y-8139574D02*
X18724413Y-8130050D01*
X18724413Y-8130050D02*
X18752984Y-8130050D01*
X18752984Y-8130050D02*
X18772032Y-8139574D01*
X18772032Y-8139574D02*
X18781556Y-8149098D01*
X18781556Y-8149098D02*
X18791079Y-8168146D01*
X18791079Y-8168146D02*
X18791079Y-8225288D01*
X18791079Y-8225288D02*
X18781556Y-8244336D01*
X18781556Y-8244336D02*
X18772032Y-8253860D01*
X18772032Y-8253860D02*
X18752984Y-8263384D01*
X18752984Y-8263384D02*
X18724413Y-8263384D01*
X18905365Y-8263384D02*
X18886318Y-8253860D01*
X18886318Y-8253860D02*
X18876794Y-8234812D01*
X18876794Y-8234812D02*
X18876794Y-8063384D01*
X19057746Y-8253860D02*
X19038699Y-8263384D01*
X19038699Y-8263384D02*
X19000603Y-8263384D01*
X19000603Y-8263384D02*
X18981556Y-8253860D01*
X18981556Y-8253860D02*
X18972032Y-8234812D01*
X18972032Y-8234812D02*
X18972032Y-8158622D01*
X18972032Y-8158622D02*
X18981556Y-8139574D01*
X18981556Y-8139574D02*
X19000603Y-8130050D01*
X19000603Y-8130050D02*
X19038699Y-8130050D01*
X19038699Y-8130050D02*
X19057746Y-8139574D01*
X19057746Y-8139574D02*
X19067270Y-8158622D01*
X19067270Y-8158622D02*
X19067270Y-8177669D01*
X19067270Y-8177669D02*
X18972032Y-8196717D01*
X19143460Y-8253860D02*
X19162508Y-8263384D01*
X19162508Y-8263384D02*
X19200603Y-8263384D01*
X19200603Y-8263384D02*
X19219651Y-8253860D01*
X19219651Y-8253860D02*
X19229175Y-8234812D01*
X19229175Y-8234812D02*
X19229175Y-8225288D01*
X19229175Y-8225288D02*
X19219651Y-8206241D01*
X19219651Y-8206241D02*
X19200603Y-8196717D01*
X19200603Y-8196717D02*
X19172032Y-8196717D01*
X19172032Y-8196717D02*
X19152984Y-8187193D01*
X19152984Y-8187193D02*
X19143460Y-8168146D01*
X19143460Y-8168146D02*
X19143460Y-8158622D01*
X19143460Y-8158622D02*
X19152984Y-8139574D01*
X19152984Y-8139574D02*
X19172032Y-8130050D01*
X19172032Y-8130050D02*
X19200603Y-8130050D01*
X19200603Y-8130050D02*
X19219651Y-8139574D01*
X19295841Y-8339574D02*
X19305365Y-8330050D01*
X19305365Y-8330050D02*
X19324413Y-8301479D01*
X19324413Y-8301479D02*
X19333937Y-8282431D01*
X19333937Y-8282431D02*
X19343460Y-8253860D01*
X19343460Y-8253860D02*
X19352984Y-8206241D01*
X19352984Y-8206241D02*
X19352984Y-8168146D01*
X19352984Y-8168146D02*
X19343460Y-8120527D01*
X19343460Y-8120527D02*
X19333937Y-8091955D01*
X19333937Y-8091955D02*
X19324413Y-8072908D01*
X19324413Y-8072908D02*
X19305365Y-8044336D01*
X19305365Y-8044336D02*
X19295841Y-8034812D01*
M02*
