M48
; DRILL file {KiCad 7.0.2} date Sat Nov  4 13:59:09 2023
; FORMAT={-:-/ absolute / metric / decimal}
; #@! TF.CreationDate,2023-11-04T13:59:09-04:00
; #@! TF.GenerationSoftware,Kicad,Pcbnew,7.0.2
; #@! TF.FileFunction,Plated,1,4,PTH
FMAT,2
METRIC
; #@! TA.AperFunction,Plated,PTH,ViaDrill
T1C0.400
; #@! TA.AperFunction,Plated,PTH,ComponentDrill
T2C1.000
%
G90
G05
T1
X146.837Y-69.444
X147.015Y-46.126
X151.765Y-63.805
X154.737Y-61.772
X154.762Y-49.772
X154.762Y-57.772
X162.814Y-70.841
X172.212Y-71.069
X182.296Y-49.76
X182.296Y-57.76
X182.296Y-61.76
X185.318Y-63.754
X190.094Y-45.974
X190.119Y-69.52
T2
X168.58Y-45.979
X168.58Y-48.519
X168.58Y-51.059
X168.58Y-53.599
X168.58Y-56.139
X168.58Y-58.679
X168.58Y-61.219
X168.58Y-63.759
X168.58Y-66.299
X168.58Y-68.839
T0
M30
